<svg xmlns="http://www.w3.org/2000/svg" width="22" height="22" viewBox="0 0 22 22" fill="none">
  <path fill-rule="evenodd" clip-rule="evenodd" d="M10.5 18.5C7.73858 18.5 5.5 16.0203 5.5 12.9615L5.5 6.39744C5.5 4.24494 7.07529 2.5 9.01852 2.5C10.9617 2.5 12.537 4.24494 12.537 6.39744L12.537 13.0788C12.537 14.3249 11.625 15.3352 10.5 15.3352C9.37498 15.3352 8.46296 14.3249 8.46296 13.0788L8.46296 6.63187C8.46296 6.292 8.71169 6.01648 9.01852 6.01648C9.32534 6.01648 9.57407 6.292 9.57407 6.63187L9.57407 13.0788C9.57407 13.6452 9.98863 14.1044 10.5 14.1044C11.0114 14.1044 11.4259 13.6452 11.4259 13.0788L11.4259 6.39744C11.4259 4.92468 10.3481 3.73077 9.01852 3.73077C7.68894 3.73077 6.61111 4.92468 6.61111 6.39744L6.61111 12.9615C6.61111 15.3406 8.35223 17.2692 10.5 17.2692C12.6478 17.2692 14.3889 15.3406 14.3889 12.9615L14.3889 6.63187C14.3889 6.292 14.6376 6.01648 14.9444 6.01648C15.2513 6.01648 15.5 6.292 15.5 6.63187L15.5 12.9615C15.5 16.0203 13.2614 18.5 10.5 18.5Z" fill="#1791C9"/>
  <circle cx="14" cy="17.5" r="4" fill="#DF1517"/>
  <text x="14" y="18" font-family="Arial" font-size="5" fill="white" text-anchor="middle" dominant-baseline="middle">2</text>
</svg>
