<svg xmlns="http://www.w3.org/2000/svg" width="22" height="22" viewBox="0 0 22 22" fill="none">
  <path d="M11 10.8414C12.1883 10.8414 13.1516 9.87825 13.1516 8.6892C13.1516 7.50014 12.1883 6.5376 11 6.5376C9.81172 6.5376 8.84839 7.50093 8.84839 8.6892C8.84839 9.87746 9.81172 10.8414 11 10.8414Z" fill="white"/>
  <path d="M12.4128 11.3573L11.4477 13.7615L11.2404 12.0264H11.3825C11.4655 12.0264 11.5305 11.9555 11.5305 11.8725V11.4046C11.5305 11.3215 11.4655 11.2505 11.3825 11.2505H10.6186C10.5357 11.2505 10.4647 11.3215 10.4647 11.4046V11.8725C10.4647 11.9555 10.5357 12.0264 10.6186 12.0264H10.7548L10.5475 13.7615L9.58812 11.3573C8.61693 11.5883 7.86499 12.3936 7.74055 13.418L7.64575 14.2174C8.4868 15.1056 9.67703 15.6565 10.9976 15.6565C12.3181 15.6565 13.5143 15.1058 14.3551 14.2174L14.2605 13.418C14.1361 12.3936 13.3841 11.5883 12.4129 11.3573H12.4128Z" fill="white"/>
  <path d="M21.0685 8.75939L19.0629 8.46733C18.8113 7.85985 18.7438 7.69733 18.492 7.08906L19.7038 5.46526C20.0273 5.03148 19.9837 4.42695 19.6009 4.04479L17.9553 2.39841C17.5732 2.01626 16.9683 1.97308 16.5351 2.29615L14.9109 3.50856C14.3028 3.25615 14.1403 3.18941 13.5322 2.93759L13.2408 0.931827C13.1632 0.396577 12.7045 0.000488281 12.164 0.000488281H9.83612C9.29577 0.000488281 8.83707 0.396577 8.75934 0.931827L8.46787 2.93759C7.85999 3.18941 7.69748 3.25615 7.08941 3.50856L5.46521 2.29615C5.03202 1.97328 4.42729 2.01626 4.04514 2.39841L2.39896 4.04479C2.0168 4.42695 1.97323 5.03168 2.29611 5.46447L3.50851 7.08926C3.25689 7.69752 3.18917 7.86004 2.93754 8.46752L0.931779 8.75958C0.396922 8.83672 0.000244141 9.29601 0.000244141 9.83578V12.1636C0.000244141 12.7046 0.396922 13.1629 0.931779 13.2406L2.93735 13.5317C3.18917 14.1403 3.25649 14.3029 3.50851 14.9111L2.29611 16.5349C1.97323 16.9687 2.0168 17.5734 2.39896 17.9554L4.04514 19.6006C4.42729 19.9827 5.03222 20.0271 5.46521 19.704L7.08941 18.4916C7.69748 18.7433 7.85999 18.8108 8.46787 19.0624L8.75934 21.0686C8.83707 21.6028 9.29577 21.9999 9.83612 21.9999H12.1638C12.7045 21.9999 13.1632 21.6028 13.2408 21.0686L13.5322 19.0624C14.1403 18.8108 14.3028 18.7433 14.9109 18.4916L16.5351 19.704C16.9683 20.0269 17.5732 19.9827 17.9553 19.6006L19.6009 17.9554C19.9833 17.5734 20.0273 16.9677 19.7038 16.5349L18.4882 14.9064C18.7393 14.3007 18.8062 14.1382 19.0573 13.5327L21.0685 13.2404C21.6034 13.1627 22.0004 12.7044 22.0004 12.1634V9.83558C22.0004 9.29582 21.6034 8.83652 21.0685 8.75939ZM11.0002 16.8403C7.77422 16.8403 5.15882 14.2265 5.15882 11.0003C5.15882 7.77407 7.77402 5.15906 11.0002 5.15906C14.2265 5.15906 16.8409 7.77407 16.8409 11.0003C16.8409 14.2265 14.2263 16.8403 11.0002 16.8403Z" fill="white"/>
</svg>