<svg width="21" height="22" viewBox="0 0 21 22" fill="none" xmlns="http://www.w3.org/2000/svg">
<g id="calendario">
<path id="Vector" d="M18.5295 3.38055H15.7791V0.987279C15.7791 0.728967 15.5696 0.519531 15.3112 0.519531C15.0529 0.519531 14.8433 0.728971 14.8433 0.987279V3.38055H6.62399V0.987279C6.62399 0.728967 6.4144 0.519531 6.15609 0.519531C5.89762 0.519531 5.68818 0.728971 5.68818 0.987279V3.38055H2.93776C2.28281 3.38134 1.65498 3.64184 1.19176 4.10503C0.728709 4.56809 0.468207 5.19592 0.467285 5.85086V19.0111C0.468225 19.666 0.728729 20.2938 1.19176 20.7571C1.65498 21.2201 2.28281 21.4806 2.93776 21.4814H18.5293C19.1843 21.4806 19.8121 21.2201 20.2753 20.7571C20.7384 20.2938 20.9989 19.666 20.9998 19.0111V5.85086C20.9989 5.19592 20.7384 4.56809 20.2753 4.10503C19.8121 3.64182 19.1843 3.38132 18.5293 3.38055H18.5295ZM2.93792 4.31621H5.68834V6.63774C5.68834 6.89605 5.89778 7.10549 6.15625 7.10549C6.41456 7.10549 6.62415 6.89605 6.62415 6.63774V4.31621H14.8434V6.63774C14.8434 6.89605 15.053 7.10549 15.3113 7.10549C15.5698 7.10549 15.7792 6.89605 15.7792 6.63774V4.31621H18.5297C18.9365 4.31668 19.3267 4.4785 19.6143 4.76627C19.9021 5.05403 20.0639 5.44407 20.0644 5.8509V8.74433H1.40338V5.8509C1.40385 5.44407 1.56567 5.05404 1.85344 4.76627C2.14105 4.47851 2.53124 4.31669 2.93808 4.31621H2.93792ZM18.5295 20.5458H2.93792C2.53108 20.5453 2.14089 20.3835 1.85328 20.0957C1.56552 19.808 1.4037 19.4179 1.40322 19.0111V9.68022H20.0642V19.0111C20.0637 19.4179 19.9019 19.808 19.6141 20.0957C19.3265 20.3835 18.9363 20.5453 18.5295 20.5458Z" fill="#2F647E"/>
<path id="Vector_2" d="M7.18876 11.3193H5.124C4.99993 11.3192 4.88088 11.3685 4.79316 11.4562C4.70544 11.544 4.65609 11.663 4.65625 11.7871V13.8518C4.65609 13.9759 4.70544 14.095 4.79316 14.1827C4.88088 14.2706 4.99993 14.3198 5.124 14.3198H7.18876C7.31283 14.3198 7.43188 14.2706 7.5196 14.1827C7.60732 14.095 7.65667 13.9759 7.65651 13.8518V11.7871C7.65667 11.663 7.60732 11.544 7.5196 11.4562C7.43188 11.3685 7.31283 11.3192 7.18876 11.3193ZM6.72085 13.3839H5.59191V12.255H6.72085V13.3839Z" fill="#2F647E"/>
<path id="Vector_3" d="M11.766 11.3193H9.70164C9.57757 11.3192 9.45852 11.3685 9.3708 11.4562C9.28308 11.544 9.23373 11.663 9.23389 11.7871V13.8518C9.23373 13.9759 9.28308 14.095 9.3708 14.1827C9.45852 14.2706 9.57757 14.3198 9.70164 14.3198H11.766C11.89 14.3198 12.0091 14.2706 12.0968 14.1827C12.1845 14.095 12.2339 13.9759 12.2339 13.8518V11.7871C12.2339 11.663 12.1845 11.544 12.0968 11.4562C12.0091 11.3685 11.89 11.3192 11.766 11.3193ZM11.298 13.3839H10.1695V12.255H11.298V13.3839Z" fill="#2F647E"/>
<path id="Vector_4" d="M16.3435 11.3193H14.2788C14.1547 11.3192 14.0357 11.3685 13.9479 11.4562C13.8602 11.544 13.8109 11.663 13.811 11.7871V13.8518C13.8109 13.9759 13.8602 14.095 13.9479 14.1827C14.0357 14.2706 14.1547 14.3198 14.2788 14.3198H16.3435C16.4676 14.3198 16.5867 14.2706 16.6744 14.1827C16.7621 14.095 16.8115 13.9759 16.8113 13.8518V11.7871C16.8115 11.663 16.7621 11.544 16.6744 11.4562C16.5867 11.3685 16.4676 11.3192 16.3435 11.3193ZM15.8756 13.3839H14.7467V12.255H15.8756V13.3839Z" fill="#2F647E"/>
<path id="Vector_5" d="M7.18876 16.1826H5.124C4.99993 16.1825 4.88088 16.2318 4.79316 16.3195C4.70544 16.4073 4.65609 16.5263 4.65625 16.6504V18.7151C4.65609 18.8392 4.70544 18.9582 4.79316 19.046C4.88088 19.1338 4.99993 19.183 5.124 19.183H7.18876C7.31283 19.183 7.43188 19.1338 7.5196 19.046C7.60732 18.9582 7.65667 18.8392 7.65651 18.7151V16.6504C7.65667 16.5263 7.60732 16.4073 7.5196 16.3195C7.43188 16.2318 7.31283 16.1825 7.18876 16.1826ZM6.72085 18.2472H5.59191V17.1183H6.72085V18.2472Z" fill="#2F647E"/>
<path id="Vector_6" d="M11.766 16.1826H9.70164C9.57757 16.1825 9.45852 16.2318 9.3708 16.3195C9.28308 16.4073 9.23373 16.5263 9.23389 16.6504V18.7151C9.23373 18.8392 9.28308 18.9582 9.3708 19.046C9.45852 19.1338 9.57757 19.183 9.70164 19.183H11.766C11.89 19.183 12.0091 19.1338 12.0968 19.046C12.1845 18.9582 12.2339 18.8392 12.2339 18.7151V16.6504C12.2339 16.5263 12.1845 16.4073 12.0968 16.3195C12.0091 16.2318 11.89 16.1825 11.766 16.1826ZM11.298 18.2472H10.1695V17.1183H11.298V18.2472Z" fill="#2F647E"/>
<path id="Vector_7" d="M16.3435 16.1826H14.2788C14.1547 16.1825 14.0357 16.2318 13.9479 16.3195C13.8602 16.4073 13.8109 16.5263 13.811 16.6504V18.7151C13.8109 18.8392 13.8602 18.9582 13.9479 19.046C14.0357 19.1338 14.1547 19.183 14.2788 19.183H16.3435C16.4676 19.183 16.5867 19.1338 16.6744 19.046C16.7621 18.9582 16.8115 18.8392 16.8113 18.7151V16.6504C16.8115 16.5263 16.7621 16.4073 16.6744 16.3195C16.5867 16.2318 16.4676 16.1825 16.3435 16.1826ZM15.8756 18.2472H14.7467V17.1183H15.8756V18.2472Z" fill="#2F647E"/>
</g>
</svg>
