<svg width="31" height="32" viewBox="0 0 31 32" fill="none" xmlns="http://www.w3.org/2000/svg">
<g filter="url(#filter0_d_1053_92183)">
<path d="M23.178 5.39527C23.178 4.26248 22.2592 3.34375 21.1265 3.34375H6.05152C4.91873 3.34375 4 4.26248 4 5.39527V8.15388H23.178V5.39527Z" fill="#2F647E"/>
<path d="M4 8.1543V19.8549C4 20.9877 4.91873 21.9064 6.05152 21.9064H21.1265C22.2592 21.9064 23.178 20.9877 23.178 19.8549V8.1543H4Z" fill="#F6F9FA"/>
<path d="M9.74098 5.57405C9.74098 5.82658 9.47642 6.02861 9.15174 6.02861C8.82706 6.02861 8.5625 5.82418 8.5625 5.57405V2.49557C8.5625 2.24304 8.82706 2.04102 9.15174 2.04102C9.47883 2.04102 9.74098 2.24545 9.74098 2.49557V5.57405Z" fill="#414042"/>
<path d="M18.616 5.57405C18.616 5.82658 18.3514 6.02861 18.0267 6.02861C17.6997 6.02861 17.4375 5.82418 17.4375 5.57405V2.49557C17.4375 2.24304 17.7021 2.04102 18.0267 2.04102C18.3514 2.04102 18.616 2.24545 18.616 2.49557V5.57405Z" fill="#414042"/>
<path d="M12.7089 9.47266H10.4096C10.2476 9.47266 10.1162 9.60402 10.1162 9.76607V12.0653C10.1162 12.2274 10.2476 12.3587 10.4096 12.3587H12.7089C12.8709 12.3587 13.0023 12.2274 13.0023 12.0653V9.76607C13.0023 9.60402 12.8709 9.47266 12.7089 9.47266Z" fill="#CBCBCB"/>
<path d="M16.8768 9.47266H14.5776C14.4155 9.47266 14.2842 9.60402 14.2842 9.76607V12.0653C14.2842 12.2274 14.4155 12.3587 14.5776 12.3587H16.8768C17.0389 12.3587 17.1703 12.2274 17.1703 12.0653V9.76607C17.1703 9.60402 17.0389 9.47266 16.8768 9.47266Z" fill="#CBCBCB"/>
<path d="M21.0468 9.47266H18.7475C18.5855 9.47266 18.4541 9.60402 18.4541 9.76607V12.0653C18.4541 12.2274 18.5855 12.3587 18.7475 12.3587H21.0468C21.2088 12.3587 21.3402 12.2274 21.3402 12.0653V9.76607C21.3402 9.60402 21.2088 9.47266 21.0468 9.47266Z" fill="#CBCBCB"/>
<path d="M8.5409 13.4414H6.24166C6.07961 13.4414 5.94824 13.5728 5.94824 13.7348V16.0341C5.94824 16.1961 6.07961 16.3275 6.24166 16.3275H8.5409C8.70295 16.3275 8.83432 16.1961 8.83432 16.0341V13.7348C8.83432 13.5728 8.70295 13.4414 8.5409 13.4414Z" fill="#CBCBCB"/>
<path d="M16.8768 13.4414H14.5776C14.4155 13.4414 14.2842 13.5728 14.2842 13.7348V16.0341C14.2842 16.1961 14.4155 16.3275 14.5776 16.3275H16.8768C17.0389 16.3275 17.1703 16.1961 17.1703 16.0341V13.7348C17.1703 13.5728 17.0389 13.4414 16.8768 13.4414Z" fill="#CBCBCB"/>
<path d="M21.0468 13.4414H18.7475C18.5855 13.4414 18.4541 13.5728 18.4541 13.7348V16.0341C18.4541 16.1961 18.5855 16.3275 18.7475 16.3275H21.0468C21.2088 16.3275 21.3402 16.1961 21.3402 16.0341V13.7348C21.3402 13.5728 21.2088 13.4414 21.0468 13.4414Z" fill="#CBCBCB"/>
<path d="M8.5409 17.4102H6.24166C6.07961 17.4102 5.94824 17.5415 5.94824 17.7036V20.0028C5.94824 20.1649 6.07961 20.2962 6.24166 20.2962H8.5409C8.70295 20.2962 8.83432 20.1649 8.83432 20.0028V17.7036C8.83432 17.5415 8.70295 17.4102 8.5409 17.4102Z" fill="#CBCBCB"/>
<path d="M12.7089 17.4102H10.4096C10.2476 17.4102 10.1162 17.5415 10.1162 17.7036V20.0028C10.1162 20.1649 10.2476 20.2962 10.4096 20.2962H12.7089C12.8709 20.2962 13.0023 20.1649 13.0023 20.0028V17.7036C13.0023 17.5415 12.8709 17.4102 12.7089 17.4102Z" fill="#CBCBCB"/>
<path d="M16.8768 17.4102H14.5776C14.4155 17.4102 14.2842 17.5415 14.2842 17.7036V20.0028C14.2842 20.1649 14.4155 20.2962 14.5776 20.2962H16.8768C17.0389 20.2962 17.1703 20.1649 17.1703 20.0028V17.7036C17.1703 17.5415 17.0389 17.4102 16.8768 17.4102Z" fill="#CBCBCB"/>
<path d="M21.0468 17.4102H18.7475C18.5855 17.4102 18.4541 17.5415 18.4541 17.7036V20.0028C18.4541 20.1649 18.5855 20.2962 18.7475 20.2962H21.0468C21.2088 20.2962 21.3402 20.1649 21.3402 20.0028V17.7036C21.3402 17.5415 21.2088 17.4102 21.0468 17.4102Z" fill="#CBCBCB"/>
<path d="M12.7089 13.4414H10.4096C10.2476 13.4414 10.1162 13.5728 10.1162 13.7348V16.0341C10.1162 16.1961 10.2476 16.3275 10.4096 16.3275H12.7089C12.8709 16.3275 13.0023 16.1961 13.0023 16.0341V13.7348C13.0023 13.5728 12.8709 13.4414 12.7089 13.4414Z" fill="#2F647E"/>
<g filter="url(#filter1_d_1053_92183)">
<path d="M25.204 14.9121H18.3203C17.4984 14.9121 16.832 15.5784 16.832 16.4004V23.284C16.832 24.106 17.4984 24.7723 18.3203 24.7723H25.204C26.0259 24.7723 26.6922 24.106 26.6922 23.284V16.4004C26.6922 15.5784 26.0259 14.9121 25.204 14.9121Z" fill="#2F647E"/>
<path d="M25.2037 25.0811H18.3169C17.3278 25.0811 16.5205 24.2769 16.5205 23.2847V16.398C16.5205 15.4089 17.3247 14.6016 18.3169 14.6016H25.2037C26.1928 14.6016 27.0001 15.4058 27.0001 16.398V23.2847C27.0001 24.2738 26.1958 25.0811 25.2037 25.0811ZM18.3169 15.2209C17.6668 15.2209 17.1368 15.7509 17.1368 16.4011V23.2878C17.1368 23.938 17.6668 24.4679 18.3169 24.4679H25.2037C25.8538 24.4679 26.3838 23.938 26.3838 23.2878V16.4011C26.3838 15.7509 25.8538 15.2209 25.2037 15.2209H18.3169Z" fill="white"/>
<path d="M24.227 19.3798V20.3042H22.2241V22.3071H21.2997V20.3042H19.2969V19.3798H21.2997V17.377H22.2241V19.3798H24.227Z" fill="white"/>
</g>
</g>
<defs>
<filter id="filter0_d_1053_92183" x="0" y="0.0410156" width="31" height="31.041" filterUnits="userSpaceOnUse" color-interpolation-filters="sRGB">
<feFlood flood-opacity="0" result="BackgroundImageFix"/>
<feColorMatrix in="SourceAlpha" type="matrix" values="0 0 0 0 0 0 0 0 0 0 0 0 0 0 0 0 0 0 127 0" result="hardAlpha"/>
<feOffset dy="2"/>
<feGaussianBlur stdDeviation="2"/>
<feComposite in2="hardAlpha" operator="out"/>
<feColorMatrix type="matrix" values="0 0 0 0 0.847059 0 0 0 0 0.376471 0 0 0 0 0.0941176 0 0 0 0.31 0"/>
<feBlend mode="normal" in2="BackgroundImageFix" result="effect1_dropShadow_1053_92183"/>
<feBlend mode="normal" in="SourceGraphic" in2="effect1_dropShadow_1053_92183" result="shape"/>
</filter>
<filter id="filter1_d_1053_92183" x="14.5205" y="12.6016" width="12.4795" height="12.4805" filterUnits="userSpaceOnUse" color-interpolation-filters="sRGB">
<feFlood flood-opacity="0" result="BackgroundImageFix"/>
<feColorMatrix in="SourceAlpha" type="matrix" values="0 0 0 0 0 0 0 0 0 0 0 0 0 0 0 0 0 0 127 0" result="hardAlpha"/>
<feOffset dx="-1" dy="-1"/>
<feGaussianBlur stdDeviation="0.5"/>
<feComposite in2="hardAlpha" operator="out"/>
<feColorMatrix type="matrix" values="0 0 0 0 0 0 0 0 0 0 0 0 0 0 0 0 0 0 0.25 0"/>
<feBlend mode="normal" in2="BackgroundImageFix" result="effect1_dropShadow_1053_92183"/>
<feBlend mode="normal" in="SourceGraphic" in2="effect1_dropShadow_1053_92183" result="shape"/>
</filter>
</defs>
</svg>
