<svg width="31" height="30" viewBox="0 0 31 30" fill="none" xmlns="http://www.w3.org/2000/svg">
<g id="Group" clip-path="url(#clip0_5273_167227)">
<rect id="Rectangle Copy" x="0.5" width="30" height="30" rx="6" fill="#53565A"/>
<g id="Group 127">
<path id="Vector" d="M22.6087 11.8375C21.221 9.62275 18.8161 8.10395 16.0441 7.92758V6.37147C16.4644 6.17 16.7557 5.74333 16.7557 5.24814C16.7557 4.55895 16.1935 4 15.5003 4C14.8072 4 14.245 4.55895 14.245 5.24814C14.245 5.74333 14.5356 6.17 14.9566 6.37215V7.92826C12.1839 8.1053 9.77899 9.6241 8.39197 11.8382C6.95242 12.7879 6 14.405 6 16.2318C6 17.948 6.84053 19.4797 8.13613 20.4463C9.35599 22.8802 6.82143 24.9891 6.82143 24.9891C6.82143 24.9891 9.84517 25.1682 12.0986 24.0707C13.1363 24.5286 14.2853 24.7836 15.4942 24.7836C18.4129 24.7836 20.9829 23.3001 22.4845 21.0507C22.4852 21.0494 22.4866 21.048 22.4873 21.0466C22.5957 20.8838 22.6988 20.7177 22.7956 20.5467C22.7977 20.5426 22.7997 20.5392 22.8018 20.5352C22.8148 20.5121 22.827 20.489 22.8393 20.466C24.1486 19.5 25 17.9595 25 16.2325C25 14.4057 24.0476 12.7886 22.6087 11.8382V11.8375ZM19.643 20.4341H11.3564C9.00259 20.4341 7.08751 18.549 7.08751 16.2318C7.08751 13.9146 9.00259 12.0288 11.3564 12.0288H19.643C21.9967 12.0288 23.9118 13.9139 23.9118 16.2318C23.9118 18.5497 21.9967 20.4341 19.643 20.4341Z" fill="white"/>
<path id="Vector_2" d="M12.7323 16.2322C12.7323 16.8522 12.226 17.3555 11.6025 17.3555C10.9789 17.3555 10.4727 16.8522 10.4727 16.2322C10.4727 15.6122 10.9789 15.1089 11.6025 15.1089C12.226 15.1089 12.7323 15.6122 12.7323 16.2322Z" fill="white"/>
<path id="Vector_3" d="M20.6034 16.2322C20.6034 16.8522 20.0971 17.3555 19.4736 17.3555C18.85 17.3555 18.3438 16.8522 18.3438 16.2322C18.3438 15.6122 18.8493 15.1089 19.4736 15.1089C20.0978 15.1089 20.6034 15.6122 20.6034 16.2322Z" fill="white"/>
</g>
</g>
<defs>
<clipPath id="clip0_5273_167227">
<rect width="30" height="30" fill="white" transform="translate(0.5)"/>
</clipPath>
</defs>
</svg>
