<svg width="24" height="30" viewBox="0 0 24 30" fill="none" xmlns="http://www.w3.org/2000/svg">
<g id="Group 26">
<path id="path2" d="M15.75 0V7.49999H23.25L15.75 0ZM13.875 7.49999V0H3.5625C2.00918 0 0.75 1.25918 0.75 2.8125V27.1875C0.75 28.7402 2.00918 30 3.5625 30H20.4375C21.9908 30 23.25 28.7408 23.25 27.1875V9.37499H15.8027C14.7129 9.37499 13.875 8.5371 13.875 7.49999ZM16.6875 24.375H7.31249C6.79687 24.375 6.375 23.9531 6.375 23.4375C6.375 22.9219 6.79687 22.5 7.31249 22.5H16.6875C17.2052 22.5 17.625 22.9196 17.625 23.4375C17.625 23.9531 17.2031 24.375 16.6875 24.375ZM16.6875 20.625H7.31249C6.79687 20.625 6.375 20.2031 6.375 19.6875C6.375 19.1719 6.79687 18.75 7.31249 18.75H16.6875C17.2052 18.75 17.625 19.1696 17.625 19.6875C17.625 20.2031 17.2031 20.625 16.6875 20.625ZM17.625 15.9375C17.625 16.4531 17.2031 16.875 16.6875 16.875H7.31249C6.79687 16.875 6.375 16.4531 6.375 15.9375C6.375 15.4219 6.79687 15 7.31249 15H16.6875C17.2031 15 17.625 15.4219 17.625 15.9375Z" fill="white"/>
</g>
</svg>
