<svg xmlns="http://www.w3.org/2000/svg" width="15" height="16" viewBox="0 0 15 16" fill="none">
  <path d="M8.14041 0.5H2.01737C1.34801 0.5 0.804443 1.05556 0.804443 1.73967V14.2603C0.804443 14.9444 1.34801 15.5 2.01737 15.5H10.3506C11.02 15.5 11.5636 14.9444 11.5636 14.2603V12.6488" stroke="#2F647E" stroke-linecap="round" stroke-linejoin="round"/>
  <path d="M11.5681 3.99805V5.93101" stroke="#2F647E" stroke-linecap="round" stroke-linejoin="round"/>
  <path d="M8.14038 0.5V3.24564C8.14038 3.66345 8.46832 3.99862 8.87712 3.99862H11.5411L8.14038 0.5Z" stroke="#2F647E" stroke-linecap="round" stroke-linejoin="round"/>
  <path d="M3.25269 12.3828H6.24906" stroke="#2F647E" stroke-linecap="round" stroke-linejoin="round"/>
  <path d="M3.25269 10.293H6.24906" stroke="#2F647E" stroke-linecap="round" stroke-linejoin="round"/>
  <path d="M3.25269 7.99805H8.38741" stroke="#2F647E" stroke-linecap="round" stroke-linejoin="round"/>
  <path d="M3.25269 5.70215H8.38741" stroke="#2F647E" stroke-linecap="round" stroke-linejoin="round"/>
  <path d="M9.71266 12.3506L7.72705 12.9199L8.2841 10.8906L12.5428 6.53795C12.8213 6.25328 13.2526 6.23033 13.5042 6.48744L14.0208 7.01545C14.2724 7.27257 14.2499 7.71334 13.9714 7.998L9.71266 12.3506Z" stroke="#2F647E" stroke-width="0.95" stroke-linecap="round" stroke-linejoin="round"/>
  <path d="M12.0979 6.99609L13.5265 8.45615" stroke="#2F647E" stroke-width="0.95" stroke-linecap="round" stroke-linejoin="round"/>
  <path d="M8.28418 10.8906L9.71274 12.3507" stroke="#2F647E" stroke-width="0.95" stroke-linecap="round" stroke-linejoin="round"/>
</svg>