<svg xmlns="http://www.w3.org/2000/svg" width="21" height="14" viewBox="0 0 21 14" fill="#2F647E">
  <path d="M19.2738 0H1.72586C0.901062 0 0.232422 0.66864 0.232422 1.49344V12.5075C0.232422 13.3323 0.901062 14.001 1.72586 14.001H19.2738C20.0985 14.001 20.7672 13.3323 20.7672 12.5075V1.49344C20.7672 0.66864 20.0985 0 19.2738 0ZM10.4998 8.25479L1.8864 0.933398H19.1132L10.4998 8.25479ZM1.16582 1.54594L6.78917 6.32578L1.16582 12.3817V1.54594ZM7.50108 6.9309L10.1975 9.22286C10.2847 9.29693 10.3922 9.33398 10.4998 9.33398C10.6074 9.33398 10.7149 9.29693 10.8021 9.22286L13.4985 6.9309L19.1969 13.0676H1.80273L7.50108 6.9309ZM14.2104 6.32578L19.8338 1.54594V12.3817L14.2104 6.32578Z" fill="#2F647E"/>
</svg>