<svg width="36" height="34" viewBox="0 0 36 34" fill="none" xmlns="http://www.w3.org/2000/svg">
<g id="Layer_1">
<path id="Vector" d="M2.83314 27.8208C1.63613 27.8208 0.665039 26.8497 0.665039 25.6527V19.9371C0.665039 18.7401 1.63613 17.769 2.83314 17.769C4.03016 17.769 5.00124 18.7401 5.00124 19.9371V25.6527C5.00124 26.8497 4.03016 27.8208 2.83314 27.8208Z" fill="white"/>
<path id="Vector_2" d="M11.3987 27.6146V17.7174C11.3987 16.5204 10.4276 15.5493 9.2306 15.5493C8.03359 15.5493 7.0625 16.5204 7.0625 17.7174V27.6146C7.0625 28.8116 8.03359 29.7827 9.2306 29.7827C10.4276 29.7827 11.3987 28.8116 11.3987 27.6146Z" fill="white"/>
<path id="Vector_3" d="M17.7957 29.8027V15.6486C17.7957 14.4516 16.8246 13.4805 15.6276 13.4805C14.4306 13.4805 13.4595 14.4516 13.4595 15.6486V29.8027C13.4595 30.9997 14.4306 31.9708 15.6276 31.9708C16.8246 31.9708 17.7957 30.9997 17.7957 29.8027Z" fill="white"/>
<path id="Vector_4" d="M24.1931 31.832V13.3893C24.1931 12.1923 23.2221 11.2212 22.025 11.2212C20.828 11.2212 19.8569 12.1923 19.8569 13.3893V31.832C19.8569 33.0291 20.828 34.0001 22.025 34.0001C23.2221 34.0001 24.1931 33.0291 24.1931 31.832Z" fill="white"/>
<path id="Vector_5" d="M33.6902 8.53368L4.78746 0.0911634C4.56946 0.0277454 4.35542 0 4.14139 0C2.92456 0 1.8623 0.986943 1.8623 2.28701V15.9298H3.57459V2.28701C3.57459 1.93425 3.8679 1.71229 4.14139 1.71229C4.19688 1.71229 4.24841 1.72021 4.3039 1.73607L33.2066 10.1746C33.4484 10.246 33.6189 10.4719 33.6189 10.7216V28.9226C33.6189 29.2753 33.3256 29.4973 33.0521 29.4973C32.9966 29.4973 32.945 29.4894 32.8896 29.4735L26.298 27.5472V29.3308L32.41 31.1145C32.628 31.1779 32.842 31.2056 33.056 31.2056C34.2729 31.2056 35.3351 30.2187 35.3351 28.9186V10.7256C35.3351 9.71088 34.6653 8.81907 33.6902 8.53368Z" fill="white"/>
</g>
</svg>
