<svg xmlns="http://www.w3.org/2000/svg" width="21" height="21" viewBox="0 0 21 21" fill="none">
  <path d="M14.8791 7.67318V13.5606C14.8791 14.2176 14.3438 14.7529 13.6868 14.7529H5.50185C4.84479 14.7529 4.30957 14.2176 4.30957 13.5606V5.50185C4.30957 4.84044 4.84044 4.30957 5.50185 4.30957H11.5154" stroke="#85BECE" stroke-width="1.01" stroke-linecap="round" stroke-linejoin="round"/>
  <path d="M14.7744 5.98535H15.3662C16.0233 5.98535 16.5585 6.52057 16.5585 7.17763V15.3626C16.5585 16.0196 16.0233 16.5548 15.3662 16.5548H7.30312C6.64606 16.5548 6.11084 16.0196 6.11084 15.3626" stroke="#85BECE" stroke-width="1.01" stroke-linecap="round" stroke-linejoin="round"/>
  <path d="M11.4893 4.30957V6.98567C11.4893 7.38164 11.8069 7.69929 12.2029 7.69929H14.879L11.4893 4.30957Z" stroke="#85BECE" stroke-linecap="round" stroke-linejoin="round"/>
  <path d="M7.79053 9.92285H11.6241" stroke="#85BECE" stroke-linecap="round" stroke-linejoin="round"/>
  <path d="M9.70508 8.00879V11.838" stroke="#85BECE" stroke-linecap="round" stroke-linejoin="round"/>
</svg>