<svg width="42" height="18" viewBox="0 0 42 18" fill="none" xmlns="http://www.w3.org/2000/svg">
<path id="SVGID" d="M1.83011 14.6185C1.93917 14.0142 2.15728 13.2677 2.66622 12.4147C3.1388 11.526 3.72044 10.8507 4.33844 10.1042C4.99279 9.42889 5.53807 9.00235 5.97431 8.78908C6.37419 8.61135 6.5923 8.71799 6.55595 9.14453V10.9218C5.61078 11.8815 4.70197 12.8768 3.8295 13.9786C3.1388 14.8317 2.62987 15.2938 2.26634 15.4004C2.19363 15.4004 2.15728 15.436 2.12093 15.436C1.83011 15.436 1.7574 15.1516 1.83011 14.6185ZM14.7353 5.55448C15.4623 5.30566 16.0076 5.4123 16.2984 5.83884C16.6983 6.4431 17.0982 7.04737 17.5708 7.79382C16.044 8.9668 14.6262 10.2464 13.1358 11.6327C11.9725 12.7346 11.0637 13.3388 10.3003 13.5166H10.2276C9.82768 13.5877 9.57321 13.5166 9.39145 13.3744C9.17334 13.1967 9.06428 12.9478 8.99158 12.5924C8.84616 11.7393 8.70075 11.0284 8.62805 10.282C9.75498 9.14453 10.9183 8.18481 12.0815 7.18955C12.3724 6.94073 12.6995 6.72746 12.954 6.51419C13.2812 6.26538 13.6084 6.08765 13.9355 5.94547C14.2263 5.80329 14.4445 5.69666 14.6989 5.62557H14.7353C14.7111 5.60187 14.7111 5.57818 14.7353 5.55448ZM31.3848 1.89334C32.9843 1.68007 34.2203 1.82225 35.3109 2.31988C36.4742 2.8886 36.9831 3.67059 36.8013 4.95021C36.6196 6.26538 35.7471 7.47391 34.0385 8.82462C32.33 10.1042 30.476 10.8507 28.4402 11.0284C26.8044 11.1706 25.4957 10.673 24.5505 9.71325C23.569 8.6469 22.6965 7.75827 21.8604 6.90519C23.7144 5.59002 25.423 4.45258 27.1315 3.42178V3.45732C28.6947 2.53315 30.0397 2.07107 31.3848 1.89334ZM32.1482 0.11609C30.0761 0.435995 28.0403 1.00472 25.6774 2.31988C24.0416 3.24405 22.3693 4.27486 20.5881 5.51893C20.0064 4.91467 19.4611 4.38149 18.9522 3.84832C18.6977 3.5995 18.4433 3.49287 18.0434 3.38623C17.9707 3.38623 17.9343 3.38623 17.8616 3.35069C17.7889 3.35069 17.7162 3.31514 17.6435 3.31514C17.2436 3.31514 16.7347 3.42178 16.153 3.5995C15.7532 3.74168 15.3896 3.88386 14.9898 4.06159C14.4081 4.34595 13.7901 4.66585 13.1358 5.12794C12.7359 5.37675 12.336 5.66111 11.9361 6.01656C10.7729 6.94073 9.64592 7.90045 8.48264 9.00235C8.44628 8.43363 8.37358 7.90045 8.37358 7.36727C8.33723 6.72746 7.9737 6.65637 7.283 6.94073C6.5196 7.29619 5.64713 7.90045 4.59291 9.03789C3.53868 10.1042 2.66622 11.2772 1.90281 12.699C1.10306 14.0853 0.739528 15.3294 0.594118 16.3957C0.448707 17.5332 0.666826 18.0663 1.28482 17.9952C1.86646 17.9241 2.62987 17.1422 3.79315 15.6493C4.73832 14.4763 5.68349 13.3744 6.70136 12.2725C6.77406 13.1256 6.84677 14.0142 6.99218 14.9739C7.02853 15.3649 7.13759 15.7204 7.283 16.0403V16.0758C7.46477 16.4313 7.64652 16.6445 7.93735 16.8223C8.19181 16.9644 8.55534 17 8.99158 17C9.3551 16.9289 9.75498 16.8223 10.1549 16.6445C10.7729 16.3246 11.4636 15.8625 12.2633 15.1872C12.7722 14.7962 13.2448 14.3341 13.7901 13.8009C15.426 12.2014 17.0255 10.7796 18.7341 9.39334C19.4248 10.4241 20.1882 11.5616 21.0606 12.8412C22.3693 14.7606 24.4051 15.827 27.3496 15.7914C29.0946 15.7559 30.8395 15.4004 32.5844 14.7251C34.3657 14.0142 36.0379 13.0545 37.6011 11.8104C40.7638 9.25116 42.0361 6.86964 41.9998 4.7014C41.9634 2.60424 40.6911 1.50235 38.6553 0.68481C37.6738 0.32936 36.6923 0.11609 35.6017 0.0449995C35.2382 0.00945449 34.911 0.00945449 34.5475 0.00945449C33.7477 -0.0260905 32.9843 0.0449995 32.1482 0.11609Z" fill="#F2A900"/>
</svg>
