<svg width="73" height="13" viewBox="0 0 73 13" fill="none" xmlns="http://www.w3.org/2000/svg">
<g id="Group">
<path id="Vector" d="M0.582031 6.06494V0.484375H4.61717V1.373H1.49085V3.07916H4.47176V3.8967H1.49085V6.06494H0.582031Z" fill="#001489"/>
<path id="Vector_2" d="M6.32559 2.12109V4.21825C6.32559 4.53816 6.43465 4.82252 6.61641 5.03579C6.79817 5.24906 7.08899 5.35569 7.41617 5.35569C7.56158 5.35569 7.74334 5.32015 7.8524 5.24906C7.99781 5.17797 8.10687 5.10688 8.21592 5.00024C8.32498 4.89361 8.39769 4.75143 8.43404 4.60925C8.47039 4.46707 8.50674 4.32489 8.50674 4.14716V2.12109H9.34286V6.06659H8.57945L8.5431 5.49787C8.36133 5.71114 8.14322 5.88887 7.9251 5.9955C7.70699 6.10214 7.45252 6.13768 7.1617 6.13768C6.90723 6.13768 6.68911 6.10214 6.471 5.9955C6.25288 5.92441 6.07112 5.78223 5.92571 5.64005C5.7803 5.49787 5.67124 5.2846 5.56218 5.03579C5.48948 4.78697 5.45312 4.53816 5.45312 4.2538V2.15664H6.32559V2.12109Z" fill="#001489"/>
<path id="Vector_3" d="M13.5595 6.06346V3.96631C13.5595 3.61086 13.4504 3.36204 13.2687 3.14877C13.0869 2.9355 12.7961 2.82887 12.4689 2.82887C12.2871 2.82887 12.1417 2.86441 11.9963 2.9355C11.8509 3.00659 11.7418 3.07768 11.6328 3.18432C11.5237 3.29095 11.451 3.43313 11.4147 3.57531C11.3783 3.71749 11.342 3.85967 11.342 4.0374V6.09901H10.5059V2.11797H11.2693L11.3056 2.68669C11.6691 2.26014 12.1417 2.04688 12.6507 2.04688C12.9051 2.04688 13.1232 2.08242 13.3414 2.15351C13.5595 2.2246 13.7412 2.36678 13.8867 2.50896C14.0321 2.65114 14.1775 2.86441 14.2502 3.11323C14.3229 3.36204 14.3956 3.61086 14.3956 3.93076V6.02792H13.5595V6.06346Z" fill="#001489"/>
<path id="Vector_4" d="M19.5208 0.484375V6.06494H18.7211L18.6847 5.46068C18.5393 5.70949 18.3212 5.88722 18.0667 5.99385C17.8123 6.10049 17.5578 6.17158 17.3033 6.17158C17.0125 6.17158 16.7217 6.13603 16.5036 6.0294C16.2855 5.92276 16.031 5.81613 15.8492 5.6384C15.6675 5.46068 15.522 5.24741 15.413 4.99859C15.3039 4.74978 15.2676 4.46542 15.2676 4.14551C15.2676 3.82561 15.3039 3.5057 15.413 3.25689C15.522 3.00807 15.6675 2.7948 15.8492 2.61708C16.031 2.43935 16.2491 2.29717 16.5036 2.22608C16.758 2.15499 17.0125 2.0839 17.3033 2.0839C17.4124 2.0839 17.5578 2.0839 17.7032 2.11945C17.8486 2.15499 17.994 2.19054 18.1031 2.26163C18.2485 2.33272 18.3576 2.40381 18.4666 2.4749C18.5757 2.54599 18.6484 2.65262 18.7211 2.7948V0.555465H19.5208V0.484375ZM17.3397 2.83035C17.1579 2.83035 16.9762 2.86589 16.8307 2.90144C16.6853 2.97253 16.5399 3.04362 16.4309 3.15025C16.3218 3.25689 16.2127 3.39907 16.1764 3.54125C16.1037 3.68343 16.0673 3.86115 16.0673 4.07442C16.0673 4.28769 16.1037 4.46542 16.1764 4.6076C16.2491 4.74978 16.3218 4.89196 16.4309 4.99859C16.5399 5.10523 16.6853 5.21186 16.8307 5.24741C16.9762 5.28295 17.1579 5.3185 17.3397 5.3185C17.5214 5.3185 17.6669 5.28295 17.8486 5.21186C17.994 5.14077 18.1394 5.06968 18.2485 4.96305C18.3576 4.85641 18.4666 4.71423 18.5393 4.57205C18.612 4.42987 18.6484 4.25215 18.6484 4.03888C18.6484 3.86115 18.612 3.68343 18.5393 3.5057C18.4666 3.36352 18.3939 3.22134 18.2485 3.11471C18.1394 3.00807 17.994 2.90144 17.8486 2.86589C17.6669 2.83035 17.5214 2.83035 17.3397 2.83035Z" fill="#001489"/>
<path id="Vector_5" d="M23.8473 2.75816L23.8836 2.1539H24.6834V6.06385H23.8836L23.8473 5.42404C23.7746 5.56622 23.7019 5.67286 23.5928 5.74395C23.4837 5.85058 23.3747 5.92167 23.2293 5.95722C23.0839 6.02831 22.9748 6.06385 22.8294 6.0994C22.684 6.13494 22.5749 6.13494 22.4295 6.13494C22.1387 6.13494 21.8479 6.0994 21.5934 5.99276C21.3389 5.88613 21.1208 5.77949 20.9391 5.60177C20.7573 5.42404 20.6119 5.21077 20.5028 4.96196C20.3938 4.71314 20.3574 4.39324 20.3574 4.07333C20.3574 3.75343 20.3938 3.46907 20.5028 3.18471C20.6119 2.93589 20.7573 2.72262 20.9391 2.54489C21.1208 2.36717 21.3389 2.22499 21.5934 2.1539C21.8479 2.04726 22.1023 2.01172 22.3932 2.01172C22.684 2.01172 22.9385 2.08281 23.1929 2.18944C23.5201 2.36717 23.7382 2.54489 23.8473 2.75816ZM22.5386 2.79371C22.3568 2.79371 22.1751 2.82925 22.0296 2.90034C21.8842 2.97143 21.7388 3.04252 21.6298 3.14916C21.5207 3.2558 21.4116 3.39798 21.3389 3.54016C21.2662 3.68234 21.2299 3.89561 21.2299 4.07333C21.2299 4.2866 21.2662 4.46433 21.3389 4.60651C21.4116 4.78423 21.4844 4.89087 21.6298 5.03305C21.7388 5.13968 21.8842 5.24632 22.0296 5.28186C22.1751 5.35295 22.3568 5.3885 22.5386 5.3885C22.8294 5.3885 23.0839 5.31741 23.2656 5.21077C23.4474 5.10414 23.5928 4.92641 23.7019 4.71314C23.8109 4.53542 23.8473 4.32215 23.8473 4.07333C23.8473 3.86006 23.8109 3.64679 23.7019 3.43352C23.5928 3.25579 23.4474 3.07807 23.2656 2.93589C23.0839 2.8648 22.8294 2.79371 22.5386 2.79371Z" fill="#001489"/>
<path id="Vector_6" d="M29.2275 5.56583C29.0094 5.7791 28.7549 5.95683 28.5004 6.02792C28.246 6.13455 27.9915 6.1701 27.7007 6.1701C27.4099 6.1701 27.1554 6.13455 26.8646 6.02792C26.6101 5.95683 26.392 5.81465 26.1739 5.63692C25.9921 5.4592 25.8467 5.24593 25.7013 4.99711C25.5922 4.7483 25.5195 4.42839 25.5195 4.10849C25.5195 3.75304 25.5922 3.46868 25.7013 3.21986C25.8104 2.97105 25.9558 2.75778 26.1739 2.58005C26.3556 2.40233 26.5738 2.26015 26.8282 2.18905C27.0827 2.11796 27.3735 2.04688 27.6643 2.04688C27.9552 2.04688 28.2096 2.08242 28.4277 2.18905C28.6459 2.29569 28.9003 2.43787 29.1184 2.65114L28.5732 3.18432C28.4641 3.07768 28.3187 2.97105 28.1369 2.89996C27.9915 2.82887 27.8097 2.82887 27.6643 2.82887C27.4826 2.82887 27.3008 2.86441 27.1554 2.9355C27.01 3.00659 26.8646 3.07768 26.7555 3.18432C26.6465 3.29095 26.5374 3.43313 26.4647 3.57531C26.392 3.71749 26.3556 3.89522 26.3556 4.10849C26.3556 4.32176 26.392 4.49948 26.4647 4.64166C26.5374 4.78384 26.6101 4.92602 26.7555 5.03266C26.8646 5.13929 27.01 5.21038 27.1554 5.28147C27.3008 5.35256 27.4826 5.35256 27.6643 5.35256C27.8461 5.35256 27.9915 5.31702 28.1733 5.28147C28.355 5.24593 28.5004 5.13929 28.6095 4.99711L29.2275 5.56583Z" fill="#001489"/>
<path id="Vector_7" d="M29.8828 0.982005C29.8828 0.80428 29.9192 0.697645 30.0282 0.59101C30.1373 0.51992 30.2463 0.484375 30.3918 0.484375C30.5372 0.484375 30.6462 0.51992 30.7553 0.59101C30.8643 0.6621 30.9007 0.80428 30.9007 0.982005C30.9007 1.15973 30.8643 1.26637 30.7553 1.373C30.6462 1.44409 30.5372 1.51518 30.3918 1.51518C30.2463 1.51518 30.1373 1.47964 30.0282 1.373C29.9192 1.26637 29.8828 1.15973 29.8828 0.982005ZM30.828 2.11945V6.06494H29.9919V2.11945H30.828Z" fill="#001489"/>
<path id="Vector_8" d="M33.7725 2.04836C34.0997 2.04836 34.3542 2.0839 34.6086 2.19054C34.8631 2.29717 35.0812 2.43935 35.263 2.61708C35.4447 2.7948 35.5901 3.00807 35.6992 3.25689C35.8083 3.5057 35.8446 3.79006 35.8446 4.07442C35.8446 4.35878 35.8083 4.64314 35.6992 4.89196C35.5901 5.14077 35.4447 5.35404 35.263 5.53177C35.0812 5.70949 34.8631 5.85167 34.6086 5.95831C34.3542 6.06494 34.0633 6.10049 33.7362 6.10049C33.409 6.10049 33.1182 6.06494 32.8637 5.95831C32.6092 5.85167 32.3911 5.70949 32.2094 5.53177C32.0276 5.35404 31.8822 5.14077 31.8095 4.89196C31.7004 4.64314 31.6641 4.35878 31.6641 4.07442C31.6641 3.79006 31.7004 3.5057 31.8095 3.25689C31.9185 3.00807 32.0639 2.7948 32.2457 2.61708C32.4275 2.43935 32.6456 2.29717 32.9001 2.19054C33.1909 2.11945 33.4453 2.04836 33.7725 2.04836ZM33.7725 2.83035C33.5908 2.83035 33.409 2.86589 33.2636 2.93698C33.1182 3.00807 32.9728 3.11471 32.8637 3.22134C32.7546 3.32798 32.6819 3.47016 32.6092 3.64788C32.5365 3.79006 32.5365 3.96779 32.5365 4.14551C32.5365 4.32324 32.5729 4.50096 32.6092 4.64314C32.6819 4.78532 32.7546 4.9275 32.8637 5.03414C32.9728 5.14077 33.0818 5.24741 33.2636 5.3185C33.409 5.38959 33.5908 5.42513 33.7725 5.42513C33.9543 5.42513 34.136 5.38959 34.2815 5.3185C34.4269 5.24741 34.5723 5.17632 34.6813 5.03414C34.7904 4.9275 34.8631 4.78532 34.9358 4.64314C35.0085 4.50096 35.0085 4.32324 35.0085 4.14551C35.0085 3.96779 34.9722 3.79006 34.9358 3.64788C34.8631 3.5057 34.7904 3.36352 34.6813 3.22134C34.5723 3.11471 34.4269 3.00807 34.2815 2.93698C34.136 2.86589 33.9543 2.83035 33.7725 2.83035ZM34.9358 0.484375L34.0997 1.55073H33.3363V1.51518L33.9179 0.484375H34.9358Z" fill="#001489"/>
<path id="Vector_9" d="M39.8056 6.06346V3.96631C39.8056 3.61086 39.6965 3.36204 39.5148 3.14877C39.333 2.9355 39.0422 2.82887 38.715 2.82887C38.5332 2.82887 38.3878 2.86441 38.2424 2.9355C38.097 3.00659 37.9879 3.07768 37.8789 3.18432C37.7698 3.29095 37.6971 3.43313 37.6608 3.57531C37.6244 3.71749 37.5881 3.85967 37.5881 4.0374V6.09901H36.752V2.11797H37.5154L37.5517 2.68669C37.9152 2.26014 38.3878 2.04688 38.8968 2.04688C39.1512 2.04688 39.3693 2.08242 39.5875 2.15351C39.8056 2.2246 39.9873 2.36678 40.1327 2.50896C40.2782 2.65114 40.4236 2.86441 40.4963 3.11323C40.569 3.36204 40.6417 3.61086 40.6417 3.93076V6.02792H39.8056V6.06346Z" fill="#001489"/>
<path id="Vector_10" d="M48.0939 6.06494H43.877V0.484375H48.0575V1.373H44.7858V2.86589H47.9121V3.68343H44.7858V5.17632H48.0939V6.06494Z" fill="#001489"/>
<path id="Vector_11" d="M51.6941 3.11439C51.5487 2.97221 51.3669 2.86558 51.1852 2.83003C51.0034 2.79449 50.8217 2.75894 50.6399 2.75894C50.3854 2.75894 50.1673 2.79449 50.0219 2.86558C49.8765 2.93667 49.8038 3.07885 49.8038 3.22103C49.8038 3.39875 49.8765 3.50539 50.0583 3.57648C50.2037 3.64757 50.4218 3.68311 50.6762 3.71866C50.858 3.71866 51.0398 3.7542 51.2579 3.78975C51.476 3.82529 51.6578 3.89638 51.8032 3.96747C51.9849 4.03856 52.094 4.18074 52.2031 4.32292C52.3121 4.4651 52.3485 4.67837 52.3485 4.92719C52.3485 5.10491 52.3121 5.28264 52.2394 5.42482C52.1667 5.567 52.0576 5.70918 51.8759 5.81581C51.7305 5.92245 51.5487 5.99354 51.3306 6.06463C51.1125 6.13572 50.8944 6.17126 50.6399 6.17126C50.3127 6.17126 49.9855 6.13572 49.6947 6.02908C49.3676 5.92245 49.0767 5.74472 48.8223 5.46036L49.2585 4.89164C49.4403 5.10491 49.6584 5.24709 49.9128 5.31818C50.1673 5.38927 50.4218 5.46036 50.6399 5.46036C50.749 5.46036 50.8217 5.46036 50.9307 5.42482C51.0398 5.38927 51.1125 5.38927 51.2215 5.35373C51.2942 5.31818 51.3669 5.24709 51.4397 5.176C51.476 5.10491 51.5124 5.03382 51.5124 4.92719C51.5124 4.74946 51.4397 4.60728 51.2942 4.53619C51.1488 4.4651 50.8944 4.39401 50.6035 4.35847C50.4218 4.35847 50.24 4.32292 50.0219 4.25183C49.8401 4.21629 49.6584 4.1452 49.513 4.03856C49.3676 3.96747 49.2221 3.82529 49.1131 3.68311C49.004 3.54093 48.9677 3.36321 48.9677 3.14994C48.9677 2.93667 49.004 2.75894 49.1131 2.58122C49.2221 2.43904 49.3312 2.29686 49.513 2.22577C49.6584 2.11913 49.8401 2.04804 50.0583 2.0125C50.24 1.97695 50.4581 1.94141 50.6399 1.94141C50.9671 1.94141 51.2215 1.97695 51.476 2.04804C51.7305 2.11913 51.9486 2.26131 52.2031 2.47458L51.6941 3.11439Z" fill="#001489"/>
<path id="Vector_12" d="M54.4921 1.01562V2.15307H55.6554V2.86397H54.4921V4.71231C54.4921 4.92558 54.5284 5.06776 54.6375 5.17439C54.7466 5.28103 54.892 5.35212 55.0737 5.35212C55.1464 5.35212 55.2555 5.35212 55.3282 5.31657C55.4009 5.28103 55.51 5.24548 55.5827 5.20994L55.8371 5.92084C55.6917 5.99193 55.5463 6.02747 55.4373 6.06302C55.3282 6.09856 55.1828 6.09856 55.0374 6.09856C54.6011 6.09856 54.274 5.99193 54.0195 5.77866C53.8014 5.52984 53.656 5.20994 53.656 4.71231V2.82842H52.8926V2.11752H53.656V1.05117L54.4921 1.01562Z" fill="#001489"/>
<path id="Vector_13" d="M59.691 2.75816L59.7274 2.1539H60.5271V6.06385H59.7274L59.691 5.42404C59.6183 5.56622 59.5456 5.67286 59.4366 5.74395C59.3275 5.85058 59.2184 5.92167 59.073 5.95722C58.9276 6.02831 58.8186 6.06385 58.6731 6.0994C58.5277 6.13494 58.4187 6.13494 58.2733 6.13494C57.9824 6.13494 57.6916 6.0994 57.4372 5.99276C57.1827 5.88613 56.9646 5.77949 56.7828 5.60177C56.601 5.42404 56.4556 5.21077 56.3466 4.96196C56.2375 4.71314 56.2012 4.39324 56.2012 4.07333C56.2012 3.75343 56.2375 3.46907 56.3466 3.18471C56.4556 2.93589 56.601 2.72262 56.7828 2.54489C56.9646 2.36717 57.1827 2.22499 57.4372 2.1539C57.6916 2.04726 57.9461 2.01172 58.2369 2.01172C58.5277 2.01172 58.7822 2.08281 59.0367 2.18944C59.4002 2.36717 59.582 2.54489 59.691 2.75816ZM58.4187 2.79371C58.2369 2.79371 58.0552 2.82925 57.9097 2.90034C57.7643 2.97143 57.6189 3.04252 57.5099 3.14916C57.4008 3.2558 57.2917 3.39798 57.219 3.54016C57.1463 3.68234 57.11 3.89561 57.11 4.07333C57.11 4.2866 57.1463 4.46433 57.219 4.60651C57.2917 4.78423 57.3645 4.89087 57.5099 5.03305C57.6189 5.13968 57.7643 5.24632 57.9097 5.28186C58.0552 5.35295 58.2369 5.3885 58.4187 5.3885C58.7095 5.3885 58.964 5.31741 59.1457 5.21077C59.3275 5.10414 59.4729 4.92641 59.582 4.71314C59.691 4.53542 59.7274 4.32215 59.7274 4.07333C59.7274 3.86006 59.691 3.64679 59.582 3.43352C59.4729 3.25579 59.3275 3.07807 59.1457 2.93589C58.9276 2.8648 58.6731 2.79371 58.4187 2.79371Z" fill="#001489"/>
<path id="Vector_14" d="M62.9999 1.01562V2.15307H64.1632V2.86397H62.9999V4.71231C62.9999 4.92558 63.0363 5.06776 63.1453 5.17439C63.2544 5.28103 63.3998 5.35212 63.5815 5.35212C63.6543 5.35212 63.7633 5.35212 63.836 5.31657C63.9087 5.28103 64.0178 5.24548 64.0905 5.20994L64.345 5.92084C64.1995 5.99193 64.0541 6.02747 63.9451 6.06302C63.836 6.09856 63.6906 6.09856 63.5452 6.09856C63.109 6.09856 62.7818 5.99193 62.5273 5.77866C62.3092 5.52984 62.1638 5.20994 62.1638 4.71231V2.82842H61.4004V2.11752H62.1638V1.05117L62.9999 1.01562Z" fill="#001489"/>
<path id="Vector_15" d="M68.1969 2.75816L68.2332 2.1539H69.033V6.06385H68.2332L68.1969 5.42404C68.1242 5.56622 68.0515 5.67286 67.9424 5.74395C67.8334 5.85058 67.7243 5.92167 67.5789 5.95722C67.4335 6.02831 67.3244 6.06385 67.179 6.0994C67.0336 6.13494 66.9245 6.13494 66.7791 6.13494C66.4883 6.13494 66.1975 6.0994 65.943 5.99276C65.6885 5.88613 65.4704 5.77949 65.2887 5.60177C65.1069 5.42404 64.9615 5.21077 64.8524 4.96196C64.7434 4.71314 64.707 4.39324 64.707 4.07333C64.707 3.75343 64.7434 3.46907 64.8524 3.18471C64.9615 2.93589 65.1069 2.72262 65.2887 2.54489C65.4704 2.36717 65.6885 2.22499 65.943 2.1539C66.1975 2.04726 66.452 2.01172 66.7428 2.01172C67.0336 2.01172 67.2881 2.08281 67.5425 2.18944C67.9061 2.36717 68.0878 2.54489 68.1969 2.75816ZM66.8882 2.79371C66.7064 2.79371 66.5247 2.82925 66.3793 2.90034C66.2338 2.97143 66.0884 3.04252 65.9794 3.14916C65.8703 3.2558 65.7613 3.39798 65.6886 3.54016C65.6158 3.68234 65.5795 3.89561 65.5795 4.07333C65.5795 4.2866 65.6158 4.46433 65.6886 4.60651C65.7613 4.78423 65.834 4.89087 65.9794 5.03305C66.0884 5.13968 66.2338 5.24632 66.3793 5.28186C66.5247 5.31741 66.7064 5.3885 66.8882 5.3885C67.179 5.3885 67.4335 5.31741 67.6152 5.21077C67.797 5.06859 67.9424 4.92641 68.0515 4.71314C68.1605 4.53542 68.1969 4.32215 68.1969 4.07333C68.1969 3.86006 68.1605 3.64679 68.0515 3.43352C67.9424 3.25579 67.797 3.07807 67.6152 2.93589C67.4335 2.8648 67.179 2.79371 66.8882 2.79371Z" fill="#001489"/>
<path id="Vector_16" d="M71.0697 0.484375V6.06494H70.1973V0.484375H71.0697Z" fill="#001489"/>
<path id="Vector_17" d="M0.581642 11.7151L0.436231 12.4971H0L0.472584 9.90234H1.70857C1.92669 9.90234 2.0721 9.93789 2.21751 10.0445C2.36292 10.1512 2.43563 10.2578 2.47198 10.3644C2.50833 10.5066 2.54468 10.6488 2.50833 10.791C2.47198 10.9331 2.43563 11.0753 2.32657 11.2175C2.21751 11.3597 2.10845 11.4663 1.96304 11.5374C1.81763 11.644 1.63587 11.6796 1.41775 11.6796H0.581642V11.7151ZM0.654347 11.3241H1.4541C1.56316 11.3241 1.67222 11.2886 1.78128 11.2531C1.85398 11.2175 1.92669 11.1464 1.99939 11.0398C2.0721 10.9687 2.0721 10.8621 2.10845 10.791V10.5422C2.10845 10.4711 2.03575 10.4 1.96304 10.3289C1.85398 10.2578 1.78128 10.2578 1.63587 10.2578H0.83611L0.654347 11.3241Z" fill="#001489"/>
<path id="Vector_18" d="M4.6535 11.964H3.19939L2.83587 12.4971H2.36328L4.0355 9.90234H4.50809L5.23514 12.5327H4.79891L4.6535 11.964ZM4.21727 10.3289L3.41751 11.573H4.54444L4.21727 10.3289Z" fill="#001489"/>
<path id="Vector_19" d="M7.88831 12.4975H7.37937L6.72503 11.6089H6.14339L5.96162 12.4975H5.52539L5.99797 9.86719H7.23396C7.37937 9.86719 7.48843 9.90273 7.59749 9.93828C7.70655 9.97382 7.77925 10.0449 7.85196 10.116C7.92466 10.1871 7.96102 10.2582 7.99737 10.3648C8.03372 10.4359 8.03372 10.5425 8.03372 10.6492C8.03372 10.7558 8.03372 10.8624 7.99737 10.9691C7.96102 11.0757 7.92466 11.1824 7.85196 11.2534C7.77925 11.3245 7.70655 11.4312 7.56114 11.4667C7.45208 11.5378 7.30667 11.5733 7.16126 11.6089L7.81561 12.462L7.88831 12.4975ZM6.43421 10.2582L6.25244 11.2179H7.0522C7.16126 11.2179 7.23396 11.2179 7.30667 11.1824C7.37937 11.1468 7.45208 11.1113 7.48843 11.0757C7.52478 11.0402 7.56114 10.9691 7.59749 10.898C7.63384 10.8269 7.63384 10.7558 7.63384 10.6847C7.63384 10.6492 7.63384 10.5781 7.59749 10.5425C7.59749 10.507 7.56114 10.4359 7.52478 10.4004C7.48843 10.3648 7.45208 10.3293 7.37937 10.2937C7.37937 10.2937 7.30667 10.2582 7.23396 10.2582H6.43421Z" fill="#001489"/>
<path id="Vector_20" d="M10.3605 11.9643H8.90642L8.5429 12.4975H8.07031L9.74253 9.86719H10.2151L10.9422 12.4975H10.5059L10.3605 11.9643ZM9.9243 10.3293L9.12454 11.5733H10.2515L9.9243 10.3293Z" fill="#001489"/>
<path id="Vector_21" d="M13.1588 9.90273L12.7589 12.1065H14.1767L14.104 12.4975H12.25L12.7226 9.86719H13.1588V9.90273Z" fill="#001489"/>
<path id="Vector_22" d="M16.4687 11.9643H15.0146L14.6511 12.4975H14.2148L15.8871 9.86719H16.3596L17.0867 12.4975H16.6505L16.4687 11.9643ZM16.0688 10.3293L15.2691 11.5733H16.396L16.0688 10.3293Z" fill="#001489"/>
<path id="Vector_23" d="M18.3945 12.4975L18.8671 9.86719H20.7575L20.6847 10.2582H19.2306L19.0852 11.0757H20.4666L20.3939 11.4667H19.0125L18.8308 12.4975H18.3945Z" fill="#001489"/>
<path id="Vector_24" d="M22.5019 9.83203C22.6836 9.83203 22.8654 9.86758 23.0108 9.93867C23.1562 10.0098 23.2653 10.0808 23.3743 10.1875C23.4834 10.2941 23.5561 10.4008 23.5924 10.5429C23.6288 10.6851 23.6651 10.8273 23.6651 10.9695C23.6651 11.1827 23.6288 11.3605 23.5561 11.5382C23.4834 11.7159 23.3743 11.8936 23.2653 12.0358C23.1199 12.178 22.9744 12.3202 22.7563 12.3913C22.5382 12.4979 22.3201 12.5335 22.0656 12.5335C21.8475 12.5335 21.7021 12.4979 21.5567 12.4268C21.4113 12.3557 21.3022 12.2846 21.1932 12.178C21.0841 12.0714 21.0114 11.9647 20.975 11.8226C20.9387 11.6804 20.9023 11.5382 20.9023 11.396C20.9023 11.1827 20.9387 10.9695 21.0114 10.7562C21.0841 10.5785 21.1932 10.4008 21.3749 10.2586C21.5203 10.1164 21.7021 10.0098 21.8839 9.90312C22.0656 9.86758 22.2474 9.83203 22.5019 9.83203ZM21.3022 11.3605C21.3022 11.4671 21.3022 11.5737 21.3386 11.6448C21.3749 11.7515 21.4113 11.8226 21.484 11.8936C21.5567 11.9647 21.6294 12.0358 21.7385 12.0714C21.8475 12.1069 21.9566 12.1425 22.102 12.1425C22.2837 12.1425 22.4655 12.1069 22.6109 12.0358C22.7563 11.9647 22.8654 11.8936 22.9744 11.787C23.0835 11.6804 23.1562 11.5737 23.1926 11.4316C23.2289 11.2894 23.2653 11.1472 23.2653 11.0406C23.2653 10.9339 23.2653 10.8273 23.2289 10.7562C23.1926 10.6851 23.1562 10.5785 23.0835 10.5074C23.0108 10.4363 22.9381 10.3652 22.829 10.3297C22.72 10.2941 22.6109 10.2586 22.4655 10.2586C22.2837 10.2586 22.1383 10.2941 21.9929 10.3652C21.8475 10.4363 21.7385 10.5074 21.6294 10.614C21.5203 10.7207 21.4476 10.8273 21.4113 10.9695C21.3749 11.1117 21.3022 11.2183 21.3022 11.3605Z" fill="#001489"/>
<path id="Vector_25" d="M26.2106 12.4975H25.7016L25.0473 11.6089H24.4657L24.2839 12.4975H23.8477L24.3202 9.86719H25.5562C25.7016 9.86719 25.8107 9.90273 25.9198 9.93828C26.0288 9.97382 26.1015 10.0449 26.1742 10.116C26.2469 10.1871 26.2833 10.2582 26.3196 10.3648C26.356 10.4359 26.356 10.5425 26.356 10.6492C26.356 10.7558 26.356 10.8624 26.3196 10.9691C26.2833 11.0757 26.2469 11.1824 26.1742 11.2534C26.1015 11.3245 26.0288 11.4312 25.8834 11.4667C25.7743 11.5378 25.6289 11.5733 25.4835 11.6089L26.1379 12.462L26.2106 12.4975ZM24.7565 10.2582L24.5747 11.2179H25.3745C25.4835 11.2179 25.5562 11.2179 25.6289 11.1824C25.7016 11.1468 25.7743 11.1113 25.8107 11.0757C25.8471 11.0402 25.8834 10.9691 25.9198 10.898C25.9561 10.8269 25.9561 10.7558 25.9561 10.6847C25.9561 10.6492 25.9561 10.5781 25.9198 10.5425C25.9198 10.507 25.8834 10.4359 25.8471 10.4004C25.8107 10.3648 25.7743 10.3293 25.7016 10.2937C25.6289 10.2582 25.5926 10.2582 25.5199 10.2582H24.7565Z" fill="#001489"/>
<path id="Vector_26" d="M29.3729 10.507L28.246 11.7511H28.1369L27.4462 10.507L27.0827 12.4975H26.6465L27.1191 9.86719H27.628L28.2824 11.0757L29.3729 9.86719H29.8819L29.4093 12.4975H28.973L29.3729 10.507Z" fill="#001489"/>
<path id="Vector_27" d="M32.0988 11.9643H30.6447L30.2812 12.4975H29.8086L31.4808 9.86719H31.9534L32.6804 12.4975H32.2442L32.0988 11.9643ZM31.6626 10.3293L30.8628 11.5733H31.9897L31.6626 10.3293Z" fill="#001489"/>
<path id="Vector_28" d="M35.3711 12.1776C35.2983 12.2487 35.1893 12.3198 35.1166 12.3553C35.0439 12.3909 34.9348 12.4264 34.8621 12.462C34.7894 12.4975 34.6803 12.4975 34.6076 12.5331C34.4986 12.5331 34.4259 12.5686 34.3168 12.5686C34.0987 12.5686 33.9169 12.5331 33.7715 12.462C33.6261 12.3909 33.4807 12.3198 33.408 12.2132C33.3353 12.1065 33.2262 11.9999 33.1899 11.8577C33.1535 11.7155 33.1172 11.5733 33.1172 11.4312C33.1172 11.2534 33.1535 11.0402 33.2262 10.8624C33.299 10.6847 33.408 10.507 33.5534 10.3648C33.6988 10.2226 33.8806 10.0805 34.0987 10.0094C34.3168 9.93828 34.5349 9.86719 34.8258 9.86719C35.0075 9.86719 35.1529 9.90273 35.3347 9.97382C35.4801 10.0449 35.6255 10.116 35.7346 10.2582L35.4074 10.5425C35.3347 10.4359 35.2256 10.3648 35.1166 10.3293C35.0075 10.2937 34.8985 10.2582 34.7531 10.2582C34.5713 10.2582 34.4259 10.2937 34.2805 10.3293C34.1351 10.4004 34.026 10.4715 33.9169 10.5425C33.8079 10.6492 33.7352 10.7203 33.6988 10.8624C33.6625 11.0046 33.5898 11.1113 33.5898 11.2179C33.5898 11.3245 33.5534 11.4667 33.5898 11.5733C33.5898 11.68 33.6625 11.7866 33.6988 11.8933C33.7352 11.9999 33.8442 12.071 33.9533 12.1065C34.0624 12.1421 34.2078 12.1776 34.3895 12.1776C34.4986 12.1776 34.644 12.1421 34.7894 12.1065C34.9348 12.071 35.0439 11.9999 35.1529 11.8933L35.3711 12.1776Z" fill="#001489"/>
<path id="Vector_29" d="M35.7344 12.4975L36.207 9.86719H36.6432L36.1706 12.4975H35.7344Z" fill="#001489"/>
<path id="Vector_30" d="M38.498 9.83277C38.6797 9.83277 38.8615 9.86832 39.0069 9.93941C39.1523 10.0105 39.2614 10.0816 39.3704 10.1882C39.4795 10.2949 39.5522 10.4015 39.5885 10.5437C39.6249 10.6859 39.6612 10.828 39.6612 10.9702C39.6612 11.1835 39.6249 11.3612 39.5522 11.5389C39.4795 11.7167 39.3704 11.8944 39.2614 12.0366C39.116 12.1787 38.9705 12.3209 38.7524 12.392C38.5343 12.4986 38.3162 12.5342 38.0617 12.5342C37.8436 12.5342 37.6982 12.4986 37.5528 12.4276C37.4074 12.3565 37.2983 12.2854 37.1893 12.1787C37.0802 12.0721 37.0075 11.9655 36.9711 11.8233C36.9348 11.6811 36.8984 11.5389 36.8984 11.3968C36.8984 11.1835 36.9348 10.9702 37.0075 10.7569C37.0802 10.5792 37.1893 10.4015 37.371 10.2593C37.5164 10.1171 37.6982 10.0105 37.88 9.90386C38.0617 9.86832 38.2798 9.83277 38.498 9.83277ZM37.2983 11.3612C37.2983 11.4678 37.2983 11.5745 37.3347 11.6456C37.371 11.7522 37.4074 11.8233 37.4801 11.8944C37.5528 11.9655 37.6255 12.0366 37.7345 12.0721C37.8436 12.1077 37.9527 12.1432 38.0981 12.1432C38.2798 12.1432 38.4616 12.1077 38.607 12.0366C38.7524 11.9655 38.8615 11.8944 38.9705 11.7877C39.0796 11.6811 39.1523 11.5745 39.1887 11.4323C39.225 11.2901 39.2614 11.1479 39.2614 11.0058C39.2614 10.8991 39.2614 10.7925 39.225 10.7214C39.1887 10.6148 39.1523 10.5437 39.0796 10.4726C39.0069 10.4015 38.9342 10.3304 38.8251 10.2949C38.7161 10.2593 38.607 10.2238 38.4616 10.2238C38.2798 10.2238 38.1344 10.2593 37.989 10.3304C37.8436 10.4015 37.7345 10.4726 37.6255 10.5792C37.5164 10.6859 37.4437 10.7925 37.4074 10.9347C37.371 11.0768 37.2983 11.219 37.2983 11.3612ZM39.1887 9.08633L38.7161 9.58396H38.3525V9.54841L38.7161 9.05078L39.1887 9.08633Z" fill="#001489"/>
<path id="Vector_31" d="M41.9142 11.8218L42.2414 9.90234H42.6776L42.205 12.5327H41.8779L40.7146 10.6132L40.3874 12.5327H39.9512L40.3874 9.90234H40.7146L41.9142 11.8218Z" fill="#001489"/>
<path id="Vector_32" d="M45.8048 12.4975H43.8418C43.9145 12.071 43.9872 11.6089 44.0599 11.1824C44.1326 10.7558 44.2053 10.3293 44.278 9.86719H46.1684L46.0957 10.2582H44.6416L44.4961 10.9691H45.8775L45.8048 11.3601H44.4234L44.278 12.071H45.8412L45.8048 12.4975Z" fill="#001489"/>
<path id="Vector_33" d="M48.3126 11.8218L48.6398 9.90234H49.0761L48.6035 12.5327H48.2763L47.113 10.6132L46.7858 12.5327H46.3496L46.8222 9.90234H47.1494L48.3126 11.8218Z" fill="#001489"/>
<path id="Vector_34" d="M52.2033 12.4975H50.2402C50.3129 12.071 50.3856 11.6089 50.4584 11.1824C50.5311 10.7558 50.6038 10.3293 50.6765 9.86719H52.5668L52.4941 10.2582H51.04L50.8946 10.9691H52.276L52.2033 11.3601H50.8219L50.6765 12.071H52.2396L52.2033 12.4975Z" fill="#001489"/>
<path id="Vector_35" d="M53.5846 9.90234L53.1847 12.1417H54.6025L54.5298 12.5327H52.6758L53.1484 9.90234H53.5846Z" fill="#001489"/>
<path id="Vector_36" d="M57.8732 12.4975H55.9102C55.9829 12.071 56.0556 11.6089 56.1283 11.1824C56.201 10.7558 56.2737 10.3293 56.3464 9.86719H58.2367L58.164 10.2582H56.7099L56.5645 10.9691H57.9459L57.8732 11.3601H56.4918L56.3464 12.071H57.9095L57.8732 12.4975Z" fill="#001489"/>
<path id="Vector_37" d="M61.0722 10.507L59.9452 11.7511H59.8362L59.1455 10.507L58.7819 12.4975H58.3457L58.8183 9.86719H59.3272L59.9816 11.0757L61.0722 9.86719H61.5811L61.1085 12.4975H60.6723L61.0722 10.507Z" fill="#001489"/>
<path id="Vector_38" d="M62.3805 11.7155L62.2351 12.4975H61.7988L62.2714 9.86719H63.5074C63.7255 9.86719 63.8709 9.90273 64.0163 10.0094C64.1254 10.116 64.2345 10.2226 64.2708 10.3293C64.3072 10.4359 64.3435 10.6136 64.3072 10.7558C64.2708 10.898 64.2345 11.0402 64.1254 11.1824C64.0163 11.3245 63.9073 11.4312 63.7619 11.5023C63.6165 11.6089 63.4347 11.6444 63.2166 11.6444H62.3805V11.7155ZM62.4532 11.3245H63.2529C63.362 11.3245 63.471 11.289 63.5801 11.2534C63.6528 11.2179 63.7255 11.1468 63.7982 11.0402C63.8709 10.9691 63.8709 10.8624 63.9073 10.7914V10.5425C63.8709 10.4715 63.8346 10.4004 63.7619 10.3293C63.6892 10.2937 63.5801 10.2582 63.4711 10.2582H62.6713L62.4532 11.3245Z" fill="#001489"/>
<path id="Vector_39" d="M65.3619 9.90234L64.9621 12.1417H66.3798L66.3071 12.5327H64.4531L64.9257 9.90234H65.3619Z" fill="#001489"/>
<path id="Vector_40" d="M68.6701 12.4975H66.707C66.7797 12.071 66.8524 11.6089 66.9251 11.1824C66.9979 10.7558 67.0706 10.3293 67.1433 9.86719H69.0336L68.9609 10.2582H67.5068L67.3614 10.9691H68.7428L68.6701 11.3601H67.2887L67.1433 12.071H68.7064L68.6701 12.4975Z" fill="#001489"/>
<path id="Vector_41" d="M70.8515 9.83203C71.0332 9.83203 71.215 9.86758 71.3604 9.93867C71.5058 10.0098 71.6149 10.0808 71.7239 10.1875C71.833 10.2941 71.9057 10.4008 71.942 10.5429C71.9784 10.6851 72.0148 10.8273 72.0148 10.9695C72.0148 11.1827 71.9784 11.3605 71.9057 11.5382C71.833 11.7159 71.7239 11.8936 71.6149 12.0358C71.4695 12.178 71.3241 12.3202 71.1059 12.3913C70.8878 12.4979 70.6697 12.5335 70.4152 12.5335C70.1971 12.5335 70.0517 12.4979 69.9063 12.4268C69.7609 12.3557 69.6518 12.2846 69.5428 12.178C69.4337 12.0714 69.361 11.9647 69.3247 11.8226C69.2883 11.6804 69.252 11.5382 69.252 11.396C69.252 11.1827 69.2883 10.9695 69.361 10.7562C69.4337 10.5429 69.5428 10.4008 69.7245 10.2586C69.8699 10.1164 70.0517 10.0098 70.2335 9.90312C70.4152 9.86758 70.6334 9.83203 70.8515 9.83203ZM69.6518 11.3605C69.6518 11.4671 69.6518 11.5737 69.6882 11.6448C69.7245 11.7515 69.7609 11.8226 69.8336 11.8936C69.9063 11.9647 69.979 12.0358 70.0881 12.0714C70.1971 12.1069 70.3062 12.1425 70.4516 12.1425C70.6334 12.1425 70.8151 12.1069 70.9605 12.0358C71.1059 11.9647 71.215 11.8936 71.3241 11.787C71.4331 11.6804 71.5058 11.5737 71.5422 11.4316C71.5785 11.2894 71.6149 11.1472 71.6149 11.0406C71.6149 10.9339 71.6149 10.8273 71.5785 10.7562C71.5422 10.6851 71.5058 10.5785 71.4331 10.5074C71.3604 10.4363 71.2877 10.3652 71.1786 10.3297C71.0696 10.2941 70.9605 10.2586 70.8151 10.2586C70.6334 10.2586 70.4879 10.2941 70.3425 10.3652C70.1971 10.4363 70.0881 10.5074 69.979 10.614C69.8699 10.7207 69.7972 10.8273 69.7609 10.9695C69.7245 11.1117 69.6518 11.2183 69.6518 11.3605Z" fill="#001489"/>
</g>
</svg>
