<svg width="20" height="20" viewBox="0 0 20 20" fill="none" xmlns="http://www.w3.org/2000/svg">
<g id="Modo_de_aislamiento" clip-path="url(#clip0_4799_248259)">
<path id="Vector" d="M0.5 12.877V20.0002H9.60411C9.37694 19.7714 9.23599 19.4546 9.23599 19.1046V13.7642C9.23599 13.0686 9.79269 12.5034 10.477 12.5034H13.8463C14.0357 12.5034 14.2109 12.391 14.292 12.217L14.3377 12.119C14.3707 12.0482 14.4101 11.9822 14.4558 11.9214C14.04 9.99542 12.3947 8.53742 10.3982 8.44022L8.32967 12.9278L8.16117 10.417H8.16274L8.55842 9.19302L7.53832 8.43502L7.53478 8.43262L7.53123 8.43502L6.50641 9.18662L6.89461 10.4134H6.90209L6.7324 12.9398L4.65835 8.44022C2.34334 8.55342 0.5 10.4966 0.5 12.877Z" fill="white"/>
<path id="Vector_2" d="M4.03711 3.5464C4.03711 5.5052 5.60013 7.0928 7.52773 7.0928C9.45532 7.0928 11.0183 5.5048 11.0183 3.5464C11.0183 1.588 9.45611 0 7.52812 0C5.60013 0 4.0375 1.588 4.0375 3.5464H4.03711Z" fill="white"/>
<path id="Vector_3" d="M19.0809 14.4532C19.0809 14.692 18.8904 14.8856 18.6553 14.8856H11.0186C10.7835 14.8856 10.593 14.692 10.593 14.4532C10.593 14.2144 10.7835 14.0208 11.0186 14.0208H18.6553C18.8904 14.0208 19.0809 14.2144 19.0809 14.4532ZM15.0214 12.4488L14.9754 12.5472C14.8793 12.7524 14.7336 12.9232 14.5564 13.0472C14.3513 13.1912 14.1049 13.2724 13.8454 13.2724H10.4761C10.2087 13.2724 9.99219 13.4928 9.99219 13.764V19.1044C9.99219 19.376 10.2091 19.596 10.4761 19.596H19.1061C19.3735 19.596 19.59 19.3756 19.59 19.1044V12.6112C19.59 12.402 19.4231 12.2324 19.2172 12.2324H15.3576C15.2139 12.2324 15.0828 12.3164 15.021 12.4484L15.0214 12.4488Z" fill="white"/>
</g>
<defs>
<clipPath id="clip0_4799_248259">
<rect width="19.0909" height="20" fill="white" transform="translate(0.5)"/>
</clipPath>
</defs>
</svg>
