<svg width="32" height="22" viewBox="0 0 32 22" fill="none" xmlns="http://www.w3.org/2000/svg">
<g id="people-group-solid">
<path id="path2" d="M9.32088 2.75C9.32088 4.26741 8.08829 5.5 6.57088 5.5C5.05199 5.5 3.82087 4.26741 3.82087 2.75C3.82087 1.23112 5.05199 0 6.57088 0C8.08829 0 9.32088 1.23112 9.32088 2.75ZM10.5191 8.06831C9.06061 9.36474 8.14231 11.2554 8.14231 13.3572C8.14231 15.0415 8.6874 16.5884 9.71374 17.8014V18.8572C9.71374 19.7264 9.0115 20.4286 8.14231 20.4286H4.99945C4.13172 20.4286 3.42802 19.7264 3.42802 18.8572V17.5411C1.5698 16.6572 0.285156 14.7665 0.285156 12.5714C0.285156 9.5317 2.74739 7.07143 5.78516 7.07143H7.35659C8.49097 7.07143 9.62534 7.43974 10.5191 8.06831ZM3.42802 10.4942C2.93891 11.0442 2.6423 11.7759 2.6423 12.5714C2.6423 13.367 2.93891 14.0987 3.42802 14.6487V10.4942ZM22.2852 18.8572V17.8014C23.2673 16.5884 23.8566 15.0415 23.8566 13.3572C23.8566 11.2554 22.9383 9.36474 21.4798 8.06831C22.3736 7.43974 23.4637 7.07143 24.6423 7.07143H26.2137C29.2535 7.07143 31.7138 9.5317 31.7138 12.5714C31.7138 14.7665 30.4271 16.6572 28.5709 17.5411V18.8572C28.5709 19.7264 27.8687 20.4286 26.9995 20.4286H23.8566C22.9874 20.4286 22.2852 19.7264 22.2852 18.8572ZM28.5709 14.6487C29.0178 14.0987 29.3566 13.367 29.3566 12.5714C29.3566 11.7759 29.0178 11.0442 28.5709 10.4942V14.6487ZM28.178 2.75C28.178 4.26741 26.9454 5.5 25.428 5.5C23.9106 5.5 22.678 4.26741 22.678 2.75C22.678 1.23112 23.9106 0 25.428 0C26.9454 0 28.178 1.23112 28.178 2.75ZM12.8566 3.14286C12.8566 1.40692 14.266 0 15.9995 0C17.7329 0 19.1423 1.40692 19.1423 3.14286C19.1423 4.87634 17.7329 6.28572 15.9995 6.28572C14.266 6.28572 12.8566 4.87634 12.8566 3.14286ZM22.2852 13.3572C22.2852 15.5522 20.9986 17.4429 19.1423 18.3268V20.4286C19.1423 21.2978 18.4401 22 17.5709 22H14.428C13.5588 22 12.8566 21.2978 12.8566 20.4286V18.3268C11.0003 17.4429 9.71374 15.5522 9.71374 13.3572C9.71374 10.3174 12.174 7.85715 15.2137 7.85715H16.7852C19.8249 7.85715 22.2852 10.3174 22.2852 13.3572ZM12.8566 15.4344V11.2799C12.3655 11.8299 12.0709 12.5616 12.0709 13.3572C12.0709 14.1527 12.3655 14.8844 12.8566 15.4344ZM19.1423 11.2799V15.4344C19.5892 14.8795 19.928 14.1527 19.928 13.3572C19.928 12.5616 19.5892 11.8299 19.1423 11.2799Z" fill="white"/>
</g>
</svg>
