<svg xmlns="http://www.w3.org/2000/svg" width="76" height="36" viewBox="0 0 76 36" fill="none">
  <path d="M0 35.9915H76V0H0V35.9915Z" fill="white"/>
  <path d="M2.13385 35.7375H3.45281V24.8553H2.13385V35.7375ZM2.13385 22.8313H3.45281V20.7142H2.13385V22.8313Z" fill="#41566D"/>
  <path d="M5.14563 25.609V24.9146H7.07367V22.6831C7.06527 22.3486 7.12828 22.0141 7.26269 21.705C7.38451 21.4425 7.56933 21.2181 7.79616 21.0445C8.02299 20.8709 8.27922 20.7438 8.55225 20.6676C8.84629 20.5829 9.15293 20.5406 9.45956 20.5406C9.7788 20.5491 10.0938 20.5829 10.4047 20.6464V21.3409C10.0938 21.2774 9.7788 21.2435 9.45956 21.235C9.06471 21.2223 8.67407 21.3282 8.34223 21.5399C8.03979 21.7431 7.89277 22.1496 7.89277 22.7509V24.9189H10.1316V25.6133H7.87177V35.7375H7.07367V25.609H5.14563Z" fill="#41566D"/>
  <path d="M12.0807 30.326C12.0807 30.9569 12.1689 31.5836 12.3537 32.1891C12.5218 32.7608 12.7906 33.3027 13.1476 33.7812C13.4963 34.2428 13.9373 34.6196 14.4456 34.8864C15.5713 35.4326 16.8819 35.4326 18.0076 34.8864C18.5159 34.6196 18.957 34.2428 19.3056 33.7812C19.6627 33.3027 19.9315 32.7608 20.0995 32.1891C20.465 30.9739 20.465 29.6782 20.0995 28.4629C19.9315 27.8913 19.6627 27.3536 19.3056 26.8751C18.9612 26.4135 18.5159 26.0367 18.0076 25.7699C16.8819 25.2237 15.5713 25.2237 14.4456 25.7699C13.9373 26.0367 13.4921 26.4135 13.1476 26.8751C12.7906 27.3536 12.5218 27.8913 12.3537 28.4629C12.1689 29.0684 12.0765 29.6951 12.0807 30.326ZM11.2826 30.326C11.2784 29.585 11.3876 28.8525 11.6103 28.1454C11.8119 27.4933 12.1353 26.8793 12.5596 26.3458C12.9796 25.8292 13.5047 25.41 14.097 25.1136C15.4453 24.5081 16.9827 24.5081 18.3311 25.1136C18.9276 25.4058 19.4568 25.825 19.8769 26.3458C20.3053 26.8793 20.6288 27.4891 20.8304 28.1454C21.053 28.8525 21.1622 29.585 21.158 30.326C21.1622 31.067 21.053 31.808 20.8304 32.5152C20.633 33.1715 20.3095 33.7855 19.8769 34.3147C19.4568 34.8313 18.9276 35.2463 18.3311 35.5385C16.9827 36.144 15.4453 36.144 14.097 35.5385C13.5005 35.2463 12.9712 34.8313 12.547 34.3147C12.1185 33.7812 11.7951 33.1715 11.5977 32.5152C11.375 31.808 11.2658 31.067 11.27 30.326" fill="#41566D"/>
  <path d="M24.2454 27.3154H24.3084C24.4134 26.9513 24.5982 26.6126 24.846 26.3246C25.1149 26.007 25.4299 25.7361 25.787 25.5243C26.1734 25.2957 26.5893 25.1221 27.0219 25.0078C27.484 24.8892 27.9586 24.8384 28.4333 24.8511V25.6514C27.9502 25.6006 27.4672 25.6429 27.0009 25.7784C26.417 25.9478 25.8878 26.2653 25.4635 26.7057C25.2829 26.9005 25.1065 27.1037 24.9469 27.3154C24.7998 27.5187 24.678 27.7346 24.5814 27.9675C24.4764 28.2258 24.4008 28.4926 24.3504 28.7678C24.2916 29.115 24.258 29.4707 24.2454 29.8222V35.7502H23.4515V24.9146H24.2454V27.3154Z" fill="#41566D"/>
  <path d="M29.7145 24.9146H30.5084V27.1249H30.5504C30.6302 26.7819 30.773 26.4601 30.9704 26.168C31.1805 25.8631 31.4409 25.6006 31.7391 25.3804C32.0458 25.1517 32.3818 24.9739 32.7431 24.8511C33.1169 24.7241 33.5117 24.6606 33.9066 24.6606C34.3603 24.6521 34.8139 24.7198 35.2466 24.8638C35.5952 24.9824 35.9228 25.1602 36.2085 25.3889C36.4605 25.5921 36.6747 25.8419 36.8386 26.1256C36.9856 26.3881 37.0906 26.6761 37.1536 26.9725H37.1998C37.4644 26.2908 37.9097 25.698 38.4894 25.2576C39.1194 24.8469 39.8629 24.6436 40.6148 24.6775C41.0769 24.6733 41.5347 24.7495 41.9674 24.9019C42.3706 25.0416 42.7361 25.2703 43.0343 25.5752C43.3494 25.9012 43.5888 26.2908 43.7358 26.7227C43.9164 27.2519 44.0004 27.8066 43.9878 28.3656V35.7375H43.1897V28.3275C43.2191 27.7685 43.1099 27.2138 42.8789 26.7057C42.7025 26.3543 42.4505 26.0452 42.1354 25.8081C41.8834 25.6217 41.5977 25.4947 41.2953 25.4312C41.0769 25.3889 40.8585 25.3634 40.6358 25.3592C40.1738 25.355 39.7159 25.4397 39.2875 25.609C38.88 25.7742 38.5146 26.0367 38.2205 26.367C37.9013 26.7354 37.6619 27.1673 37.5148 27.6373C37.3384 28.192 37.2544 28.7721 37.2628 29.3522V35.7375H36.4689V28.3275C36.4941 27.7728 36.3891 27.2223 36.1665 26.7142C36.0027 26.3627 35.759 26.0579 35.4524 25.8208C35.2046 25.6344 34.9147 25.5074 34.6123 25.4439C34.3897 25.3931 34.1628 25.3634 33.9318 25.3592C33.0791 25.3677 32.26 25.7064 31.6467 26.3035C31.2939 26.6591 31.0166 27.0826 30.8318 27.5483C30.6092 28.1157 30.5042 28.7255 30.5168 29.3352V35.7375H29.7145V24.9146Z" fill="#41566D"/>
  <path d="M53.9221 29.5893C53.691 29.8518 53.376 30.0212 53.0316 30.072C52.5905 30.1609 52.1452 30.2287 51.7 30.2625L50.3642 30.3896C49.9736 30.4319 49.5787 30.4912 49.1881 30.5674C48.8184 30.6351 48.4614 30.7664 48.1338 30.957C47.8187 31.139 47.5541 31.3973 47.3651 31.7064C47.155 32.0833 47.0542 32.5067 47.0752 32.9386C47.029 33.6203 47.3062 34.2809 47.8271 34.717C48.4362 35.132 49.1671 35.3352 49.9022 35.2929C50.6499 35.331 51.3976 35.1616 52.057 34.8017C52.5401 34.518 52.9559 34.1284 53.2752 33.6627C53.5314 33.2858 53.712 32.8666 53.8087 32.422C53.8675 32.1553 53.9053 31.8843 53.9221 31.609V29.5893ZM53.9221 33.5907H53.8801C53.7498 33.921 53.565 34.2301 53.3382 34.5053C53.0862 34.8059 52.7963 35.0642 52.4687 35.2759C52.1074 35.5088 51.7168 35.6824 51.3051 35.801C50.8431 35.9323 50.3642 35.9958 49.8812 35.9915C48.9361 36.0508 47.9993 35.7883 47.2222 35.2421C46.5586 34.6704 46.2099 33.8151 46.2771 32.9386C46.2561 32.3966 46.3863 31.8589 46.6552 31.3889C46.8946 31.0035 47.2222 30.6775 47.6087 30.4404C47.9993 30.2075 48.4236 30.0423 48.8688 29.945C49.3141 29.8518 49.7678 29.7841 50.2214 29.7375L51.4564 29.6316C51.91 29.6062 52.3637 29.5385 52.8047 29.4326C53.082 29.3691 53.3382 29.2378 53.5524 29.0515C53.7204 28.8821 53.8297 28.6662 53.8633 28.4291C53.9095 28.1157 53.9305 27.8024 53.9263 27.4848C53.9263 27.2011 53.8717 26.9217 53.7582 26.6634C53.6406 26.4008 53.46 26.168 53.2374 25.9901C52.9643 25.7742 52.6493 25.6175 52.3133 25.5243C51.8638 25.4058 51.3976 25.3507 50.9313 25.3592C50.0954 25.3169 49.2679 25.5709 48.5958 26.0748C47.9741 26.621 47.6171 27.4128 47.6213 28.2428H46.861C46.84 27.2223 47.2558 26.2442 48.0035 25.5582C48.705 24.9612 49.7089 24.6606 51.0069 24.6606C52.3049 24.6606 53.25 24.9188 53.8465 25.4312C54.4303 25.9308 54.758 26.6718 54.737 27.4425V34.2089C54.7412 34.3529 54.7706 34.4968 54.8126 34.6323C54.8504 34.7551 54.9218 34.861 55.0184 34.9414C55.1444 35.0261 55.2914 35.0642 55.4385 35.0558C55.6359 35.0515 55.8333 35.0303 56.0265 34.9922V35.6655C55.8123 35.7205 55.5939 35.7502 55.3754 35.7502C55.115 35.7586 54.8546 35.7163 54.611 35.6231C54.4429 35.5512 54.2959 35.4368 54.1909 35.2886C54.0901 35.1404 54.0229 34.9711 53.9893 34.7932C53.9557 34.5857 53.9389 34.3783 53.9389 34.1708L53.9221 33.5907Z" fill="#41566D"/>
  <path d="M57.8622 35.7375H58.6561V20.7057H57.8622V35.7375Z" fill="#41566D"/>
  <path d="M61.798 35.7375H62.5919V24.9146H61.798V35.7375ZM61.798 22.8737H62.5919V20.7057H61.798V22.8737Z" fill="#41566D"/>
  <path d="M72.6858 29.5893C72.4548 29.8518 72.1397 30.0212 71.7953 30.072C71.3584 30.1609 70.9132 30.2244 70.4679 30.2625L69.128 30.3896C68.7373 30.4319 68.3467 30.4912 67.956 30.5674C67.5822 30.6351 67.2251 30.7664 66.8975 30.957C66.5824 31.139 66.322 31.3931 66.133 31.7064C65.923 32.079 65.818 32.5067 65.839 32.9386C65.7928 33.6203 66.07 34.2809 66.5908 34.717C67.1999 35.132 67.9308 35.3352 68.6659 35.2929C69.4136 35.331 70.1613 35.1616 70.8208 34.8017C71.3038 34.518 71.7197 34.1284 72.0389 33.6627C72.2952 33.2858 72.4758 32.8666 72.5724 32.422C72.6312 32.1553 72.669 31.8843 72.6858 31.609V29.5893ZM72.6858 33.5907H72.6438C72.5136 33.9252 72.3288 34.2301 72.1019 34.5053C71.8499 34.8059 71.5601 35.0642 71.2324 35.2759C70.8712 35.5088 70.4805 35.6824 70.0689 35.801C69.6068 35.9323 69.128 35.9958 68.6449 35.9915C67.6998 36.0508 66.7631 35.7883 65.986 35.2421C65.3223 34.6704 64.9736 33.8151 65.0409 32.9386C65.0199 32.3966 65.1501 31.8589 65.4189 31.3889C65.6583 31.0035 65.986 30.6775 66.3724 30.4404C66.7631 30.2075 67.1873 30.0423 67.6326 29.945C68.0778 29.8518 68.5315 29.7841 68.9851 29.7375L70.2201 29.6316C70.678 29.6062 71.1274 29.5385 71.5727 29.4326C71.8457 29.3649 72.1019 29.2378 72.3162 29.0515C72.4842 28.8821 72.5934 28.6662 72.627 28.4291C72.6732 28.1157 72.6942 27.8024 72.69 27.4848C72.69 27.2011 72.6354 26.9217 72.522 26.6634C72.4044 26.4008 72.2237 26.168 72.0011 25.9901C71.7281 25.7742 71.413 25.6175 71.077 25.5243C70.6275 25.4058 70.1613 25.3507 69.695 25.3592C68.8591 25.3169 68.0316 25.5709 67.3595 26.0748C66.7379 26.6168 66.3808 27.4128 66.3892 28.2428H65.5911C65.5701 27.2223 65.986 26.2442 66.7337 25.5582C67.4351 24.9612 68.4391 24.6606 69.737 24.6606C71.035 24.6606 71.9801 24.9188 72.5766 25.4312C73.1605 25.9308 73.4881 26.6718 73.4671 27.4425V34.2089C73.4713 34.3529 73.5007 34.4968 73.5427 34.6323C73.5805 34.7551 73.6519 34.861 73.7527 34.9414C73.8745 35.0261 74.0258 35.0642 74.1728 35.0558C74.3702 35.0515 74.5676 35.0303 74.7609 34.9922V35.6655C74.5466 35.7205 74.3282 35.7502 74.1098 35.7502C73.8493 35.7586 73.5889 35.7163 73.3453 35.6231C73.1773 35.5512 73.0302 35.4368 72.9252 35.2886C72.8244 35.1404 72.7572 34.9711 72.7278 34.7932C72.69 34.59 72.6732 34.3783 72.6732 34.1708L72.6858 33.5907Z" fill="#41566D"/>
  <path d="M0.369629 0.626663C0.369629 0.783332 0.453639 0.817207 0.495644 0.91883C0.709871 0.834144 0.915697 0.736755 1.11732 0.626663C1.05851 0.10161 0.646863 0.550446 0.369629 0.626663Z" fill="#DF1517"/>
  <path d="M1.91545 0.334503C1.4534 0.728293 0.793914 0.931539 0.382263 1.37614C0.445271 1.43542 0.457873 1.54975 0.550284 1.58362C1.06695 1.25335 1.57941 0.923071 2.12128 0.62667C2.07087 0.512344 2.04987 0.368378 1.91545 0.334503Z" fill="#DF1517"/>
  <path d="M0.327637 2.32886C0.386444 2.39661 0.445251 2.46435 0.495657 2.54057C0.949314 2.25264 1.37777 1.9266 1.78102 1.56668C2.23467 1.27028 2.66733 0.935773 3.06638 0.56739C3.04537 0.465766 2.98657 0.372612 2.89835 0.317566C2.05825 1.00776 1.15514 1.6175 0.327637 2.31192" fill="#DF1517"/>
  <path d="M4.18369 0.334503C3.10836 1.13902 1.88181 1.88849 0.785469 2.62526C0.63005 2.72688 0.420024 2.84544 0.365417 3.04869C0.424225 3.04869 0.415824 3.13761 0.449428 3.17572C0.621649 3.20536 0.814873 3.05292 0.945089 2.96824C2.10443 2.18489 3.23017 1.3592 4.38531 0.635138C4.35591 0.516578 4.2845 0.410721 4.17949 0.342972" fill="#DF1517"/>
  <path d="M8.40943 0.334503C7.08207 1.50317 5.66649 2.71418 4.26772 3.91672C3.07897 4.92872 1.84822 5.92801 0.701477 6.9146C0.592264 7.00776 0.281425 7.17289 0.411641 7.41425C0.621667 7.57092 0.798089 7.25758 0.907303 7.16443C2.80594 5.54692 4.68777 3.89555 6.5864 2.32886C7.30469 1.77416 7.98938 1.17713 8.63626 0.541984C8.52704 0.512344 8.54805 0.35144 8.43043 0.334503" fill="#DF1517"/>
  <path d="M5.09101 0.372633C4.34331 1.02895 3.4486 1.61328 2.6085 2.24843C1.99942 2.70996 1.40295 3.15033 0.827479 3.58223C0.67626 3.69656 0.306615 3.83629 0.407427 4.12422C0.646857 4.23008 0.869484 3.95061 1.0291 3.83205C2.28926 2.91321 3.54942 1.94779 4.75917 1.04165C4.96499 0.889217 5.27583 0.783359 5.33884 0.499661C5.23802 0.474256 5.27163 0.317587 5.08681 0.372633" fill="#DF1517"/>
  <path d="M6.08655 0.37262C4.65417 1.64291 3.17139 2.87932 1.73901 4.08186C1.23915 4.47142 0.768691 4.89485 0.327637 5.35215C0.604871 5.67396 0.890506 5.21666 1.07533 5.05999C2.36909 3.98871 3.64185 2.94284 4.8852 1.89697C5.40607 1.47354 5.90173 1.012 6.33858 0.563163C6.21677 0.563163 6.27557 0.34298 6.08655 0.393791" fill="#DF1517"/>
  <path d="M9.36293 0.372617C6.55698 2.83698 3.61662 5.37756 0.827473 7.79111C0.655252 7.93507 0.348614 8.13408 0.369617 8.32886C0.592244 8.55751 0.869479 8.23147 0.991294 8.12138C3.09155 6.24135 5.24222 4.4079 7.32988 2.58292C8.10697 1.90543 8.90507 1.24912 9.61076 0.541989C9.49735 0.516583 9.50575 0.368383 9.36293 0.372617Z" fill="#DF1517"/>
  <path d="M10.3543 0.372605C8.67406 1.84191 7.04426 3.2858 5.22123 4.91601C3.82666 6.15242 2.18426 7.5328 0.827487 8.72688C0.68887 8.8539 0.235214 9.17571 0.407435 9.35355C0.579656 9.53139 0.940901 9.05715 1.02911 8.98093C1.31475 8.73111 1.56678 8.5575 1.69279 8.43894C3.87286 6.51234 5.94372 4.62808 8.07338 2.77345C8.81268 2.12984 9.64858 1.47776 10.3081 0.817207C10.3837 0.740989 10.6147 0.647835 10.5181 0.482697C10.4383 0.482697 10.4845 0.321794 10.3501 0.355668" fill="#DF1517"/>
  <path d="M11.6816 0.37262C9.80401 1.96048 7.97258 3.56528 5.88072 5.37756C4.39794 6.64785 2.81854 8.05364 1.28115 9.41708C1.07113 9.60762 0.189019 10.1496 0.411647 10.374C0.571266 10.5349 0.613272 10.374 0.785493 10.247C4.25512 7.24065 7.77096 4.16655 11.186 1.1729C11.4128 0.969656 11.7699 0.842627 11.8455 0.503883C11.7615 0.503883 11.7657 0.393791 11.6816 0.376854" fill="#DF1517"/>
  <path d="M0.949295 10.6662C0.764472 10.8271 0.172198 11.1701 0.453633 11.3733C0.571248 11.4538 0.638456 11.3733 0.82748 11.204C1.0165 11.0346 1.12152 10.8948 1.20133 10.8313C3.09576 9.15879 4.91459 7.6048 6.75021 5.99577C8.58584 4.38673 10.4257 2.70148 12.2109 1.12209C12.4251 0.935781 13.009 0.698661 12.7065 0.37262H12.6267C8.85047 3.68384 4.78437 7.29993 0.949295 10.6662Z" fill="#DF1517"/>
  <path d="M13.6265 0.37262C12.4881 1.41002 11.312 2.43472 10.1485 3.50177C6.98967 6.38956 3.78887 9.30275 0.655282 12.2456C0.525066 12.3599 0.23523 12.4827 0.403251 12.669C0.571272 12.8553 0.730891 12.6182 0.861108 12.5039C1.30636 12.1143 1.81883 11.5935 2.10026 11.3352C3.84768 9.75159 5.48588 8.26112 7.14088 6.7156C9.24114 4.77205 11.375 2.81157 13.4417 0.927313C13.5551 0.821455 13.8029 0.719832 13.7735 0.503883C13.6853 0.503883 13.6895 0.393791 13.6055 0.376854" fill="#DF1517"/>
  <path d="M12.6772 2.12138C8.82529 5.68243 4.97342 9.23924 1.11734 12.7876C0.94932 12.94 0.201628 13.4481 0.411654 13.6598C0.62168 13.8716 0.743495 13.5244 0.86951 13.41C1.35677 12.9612 1.90704 12.4658 2.23468 12.1397C5.30946 9.27735 8.26242 6.5674 11.3078 3.76853C12.3453 2.83698 13.5005 1.84616 14.517 0.872267C14.6346 0.762175 14.937 0.597037 14.685 0.37262H14.6052L12.6982 2.12138" fill="#DF1517"/>
  <path d="M13.8365 2.20606C13.1812 2.7904 12.5301 3.40014 11.8874 3.99717C8.20359 7.41848 4.40632 10.7382 0.701457 14.1595C0.546038 14.3035 0.260403 14.4982 0.411621 14.6549C0.56284 14.8116 0.831673 14.4644 0.907283 14.4051C5.9017 9.87014 10.7785 5.51305 15.6973 0.995054C15.9661 0.753699 16.2812 0.482704 15.9073 0.368378C15.2185 0.956945 14.5338 1.58362 13.8365 2.20183" fill="#DF1517"/>
  <path d="M18.8477 2.04092C18.5873 2.18488 18.3479 2.36696 18.142 2.58291C12.3369 7.68947 6.5822 12.868 0.82749 18.0339C0.613263 18.2244 0.26882 18.3684 0.407438 18.5758C0.491448 18.6986 0.499849 18.7071 0.697273 18.5758C0.798086 18.4996 0.894698 18.4149 0.987109 18.3218C6.90564 12.9315 12.9628 7.6937 18.8477 2.41353C18.9149 2.29074 19.1502 2.2611 18.9737 2.11713C18.9107 2.11713 18.9023 2.04939 18.8477 2.03668" fill="#DF1517"/>
  <path d="M14.2482 7.24912C9.95944 11.0219 5.50269 14.7523 1.28117 18.5335C1.20976 18.597 0.95353 18.686 1.11735 18.741C1.68862 18.7961 2.04146 18.2625 2.40271 17.9492C3.53265 16.9753 4.65839 16.0438 5.76312 15.0783C10.0813 11.2675 14.5842 7.56246 18.8141 3.74736C18.8813 3.69231 19.0578 3.6288 19.02 3.50177C18.9234 3.4679 18.9108 3.3578 18.8141 3.3324C17.3314 4.65773 15.7772 5.91109 14.2482 7.24912Z" fill="#DF1517"/>
  <path d="M18.5159 4.99646C17.2011 6.02116 15.7603 7.29568 14.4162 8.45588C10.4341 11.8857 6.37636 15.2308 2.44468 18.6605C2.37747 18.6605 2.30606 18.7706 2.44468 18.741C2.97394 18.8299 3.28478 18.3176 3.60402 18.0339C8.52703 13.9266 13.3954 9.66266 18.268 5.58079C18.3983 5.4707 18.7133 5.3225 18.6419 5.08115C18.5831 5.08115 18.5705 5.0134 18.5159 4.99646Z" fill="#DF1517"/>
  <path d="M18.8477 5.99577C18.8477 5.91108 18.7301 5.99577 18.7217 6.03811C13.8281 10.0226 8.85051 14.151 3.97791 18.1186C3.85609 18.2117 3.55786 18.3387 3.64607 18.5759C3.83509 18.8045 3.99051 18.4954 4.09973 18.4107C5.25067 17.4792 6.38061 16.573 7.49374 15.6627C11.186 12.6394 14.8783 9.53141 18.5579 6.5801C18.7133 6.45307 18.9486 6.33875 19.0116 6.1228C18.9276 6.1228 18.9318 6.00847 18.8477 5.99577Z" fill="#DF1517"/>
  <path d="M16.5711 8.79042C13.6769 11.1786 10.6945 13.5752 7.79619 15.9083C6.68725 16.7975 5.50271 17.674 4.48198 18.5759C4.48198 18.5759 4.25515 18.6606 4.39797 18.741C4.86003 18.8511 5.14146 18.4404 5.4355 18.199C5.72953 17.9577 6.06137 17.7248 6.34701 17.4919C10.2115 14.35 14.1264 11.187 17.9866 8.07905C18.2261 7.88851 18.8562 7.65562 18.5663 7.29147H18.4823C17.8816 7.81653 17.2222 8.2696 16.5795 8.79042" fill="#DF1517"/>
  <path d="M18.5159 8.28653C16.3778 9.87016 14.0507 11.8052 11.7951 13.5794C10.6903 14.4517 9.56879 15.3028 8.47666 16.1581C7.44753 16.9711 6.3764 17.7968 5.41448 18.6182C5.41448 18.6182 5.22545 18.669 5.33047 18.741C5.75052 18.8469 6.04456 18.5039 6.32599 18.2837C10.1737 15.2265 14.0549 12.127 17.8816 9.12069C18.1547 8.90897 18.5159 8.7523 18.6671 8.41356C18.5873 8.41356 18.5873 8.29923 18.5033 8.28653" fill="#DF1517"/>
  <path d="M18.8477 9.28583C18.2723 9.65421 17.7178 10.0607 17.1927 10.4968C16.6887 10.8779 16.151 11.2675 15.6595 11.6613C12.7822 13.9478 9.77882 16.2004 6.91407 18.4361C6.81325 18.5208 6.54022 18.6521 6.67044 18.7283C7.09049 18.8469 7.32152 18.5124 7.58195 18.3049C10.4215 16.1157 13.24 13.9393 16.0334 11.7714C16.9155 11.0854 17.9068 10.4249 18.7217 9.72619C18.8099 9.65845 19.0536 9.53142 18.9738 9.35358C18.9108 9.35358 18.9023 9.28583 18.8477 9.26889" fill="#DF1517"/>
  <path d="M18.8477 10.9118C15.2437 13.41 11.5094 16.1369 7.87177 18.741H8.40943C11.0516 16.7974 13.7903 14.9301 16.3904 13.0374L17.7178 12.0762C18.1672 11.784 18.5915 11.4495 18.9779 11.0769C18.8729 11.0769 18.9191 10.916 18.8141 10.9118" fill="#DF1517"/>
  <path d="M18.5159 11.9111C18.5159 11.8857 18.5159 11.8603 18.4739 11.8687C15.4369 14.1468 12.3706 16.3952 9.27897 18.6182C9.27897 18.6775 9.10255 18.7452 9.27897 18.741H9.69902C12.3285 16.8356 14.9959 14.8412 17.5708 12.9485C17.9782 12.7029 18.3521 12.4107 18.6881 12.0762C18.6167 12.0423 18.6251 11.928 18.5243 11.9111" fill="#DF1517"/>
  <path d="M18.5159 13.2025C15.9326 15.0445 13.366 16.8906 10.8121 18.741H11.3498C13.1854 17.4114 15.0589 16.0565 16.8609 14.7438C17.5162 14.35 18.1252 13.8885 18.6797 13.3677C18.5747 13.3677 18.6251 13.2068 18.5159 13.2025Z" fill="#DF1517"/>
  <path d="M18.4739 14.2018C17.5624 14.964 16.5206 15.7092 15.5335 16.4926C14.6934 17.1489 13.8239 17.8179 13.051 18.4488C12.9712 18.5166 12.7066 18.7156 12.841 18.741H13.261C14.6178 17.6401 16.0292 16.5646 17.3607 15.4933C17.8396 15.1673 18.2848 14.7904 18.6839 14.367C18.5663 14.367 18.6335 14.1722 18.4781 14.2018" fill="#DF1517"/>
  <path d="M18.4361 15.5399C17.3103 16.5604 16.0586 17.4538 14.9539 18.5039C15.0463 18.5378 15.0589 18.6479 15.1177 18.7114C15.7268 18.2244 16.3442 17.7544 16.9449 17.2548C17.5498 16.7721 18.1295 16.2555 18.6797 15.7135C18.6209 15.6373 18.5915 15.5272 18.4361 15.5484" fill="#DF1517"/>
  <path d="M18.4361 16.2004C17.7766 16.9414 16.9029 17.7459 16.2392 18.4488C16.1594 18.5335 15.941 18.7029 16.0712 18.741H16.4031C17.1969 17.9703 17.9488 17.1574 18.7217 16.3656C18.6041 16.3359 18.6167 16.1708 18.4361 16.2004Z" fill="#DF1517"/>
  <path d="M18.4361 17.4919C18.0622 17.8349 17.659 18.144 17.2305 18.4107C17.2599 18.5293 17.3355 18.6352 17.4406 18.6987C17.8606 18.3769 18.2807 18.0593 18.6797 17.7417C18.6335 17.6274 18.6167 17.475 18.4361 17.4919Z" fill="#DF1517"/>
  <path d="M7.41392 0H7.49373C7.81717 0.342978 7.38452 0.48271 7.07368 0.749471C5.11204 2.47706 3.226 4.13691 1.27276 5.83063C1.10474 5.97883 0.512467 6.67749 0.361248 6.37262C0.277238 6.19054 0.974524 5.65279 1.10894 5.52576C3.2428 3.67537 5.37667 1.84192 7.40972 0.0211715V0H7.41392Z" fill="#DF1517"/>
  <path d="M1.11736 0.626663C0.915736 0.736755 0.70991 0.834144 0.495684 0.91883C0.453679 0.817207 0.352866 0.783332 0.369668 0.626663C0.646902 0.550446 1.05855 0.10161 1.11736 0.626663Z" fill="#DF1517"/>
  <path d="M2.10864 0.62667C1.56678 0.923071 1.05431 1.25335 0.53765 1.58362C0.445238 1.54975 0.432637 1.43542 0.369629 1.37614C0.789681 0.952711 1.44076 0.728293 1.90282 0.334503C2.03724 0.368378 2.05824 0.512344 2.10864 0.62667Z" fill="#DF1517"/>
  <path d="M2.89835 0.334503C2.98657 0.389549 3.04537 0.482704 3.06638 0.584327C2.66733 0.948476 2.23467 1.27452 1.78102 1.56668C1.37777 1.91813 0.949314 2.23994 0.495657 2.52364C0.445251 2.44742 0.386444 2.37967 0.327637 2.31192C1.16774 1.6175 2.06665 1.00776 2.89835 0.317566" fill="#DF1517"/>
  <path d="M4.38953 0.626685C3.23438 1.35075 2.10864 2.17644 0.949301 2.95978C0.819084 3.04447 0.625861 3.1969 0.453639 3.16726C0.420035 3.12916 0.428436 3.0487 0.369629 3.04023C0.420035 2.84546 0.630061 2.7269 0.789681 2.61681C1.88602 1.88004 3.11257 1.13057 4.1879 0.32605C4.29291 0.393799 4.36432 0.499656 4.39373 0.618216" fill="#DF1517"/>
  <path d="M8.63628 0.541984C7.9936 1.17713 7.31732 1.77416 6.60743 2.32886C4.7172 3.89555 2.82696 5.54692 0.928329 7.16443C0.819115 7.25758 0.642693 7.58786 0.432667 7.41425C0.29405 7.17289 0.61329 6.99082 0.722503 6.9146C1.86925 5.92801 3.1 4.92872 4.28874 3.91672C5.68752 2.71418 7.10309 1.50317 8.43046 0.334503C8.54807 0.334503 8.52707 0.512344 8.63628 0.541984Z" fill="#DF1517"/>
  <path d="M5.34309 0.499661C5.28008 0.783359 4.96924 0.889217 4.76342 1.04165C3.54947 1.94779 2.28511 2.91321 1.03336 3.83205C0.873737 3.95061 0.65111 4.23008 0.41168 4.12422C0.306667 3.83629 0.676313 3.70079 0.831732 3.58223C1.4072 3.1588 2.00368 2.70996 2.61275 2.24843C3.45286 1.61328 4.34757 1.02895 5.09526 0.372633C5.28008 0.317587 5.24648 0.474256 5.34729 0.499661" fill="#DF1517"/>
  <path d="M6.33858 0.541986C5.91853 0.990821 5.40607 1.43119 4.8852 1.87579C3.62505 2.9259 2.36489 3.96753 1.07533 5.03881C0.890506 5.19548 0.604871 5.65278 0.327637 5.33098C0.768691 4.87367 1.23915 4.45024 1.73901 4.06069C3.17139 2.85815 4.65417 1.61326 6.08655 0.351443C6.27557 0.300631 6.21677 0.499643 6.33858 0.520814" fill="#DF1517"/>
  <path d="M9.61076 0.541992C8.90507 1.24912 8.10697 1.90544 7.32988 2.58292C5.22962 4.40791 3.09575 6.24136 0.991294 8.12139C0.869479 8.23571 0.592244 8.54482 0.369617 8.32887C0.348614 8.13409 0.655252 7.93508 0.827473 7.79111C3.61662 5.37756 6.55698 2.83698 9.36293 0.37262C9.50575 0.37262 9.49735 0.516586 9.61076 0.541992Z" fill="#DF1517"/>
  <path d="M10.5223 0.499632C10.6189 0.66477 10.3879 0.757925 10.3123 0.834142C9.65282 1.49469 8.81692 2.14254 8.07763 2.79039C5.94796 4.64501 3.87711 6.52927 1.69704 8.45588C1.57102 8.56597 1.31899 8.74804 1.03336 8.99787C0.945145 9.07832 0.613304 9.5568 0.411679 9.37049C0.210054 9.18418 0.688913 8.87084 0.831731 8.74381C2.1885 7.5328 3.8309 6.15242 5.22547 4.93294C7.0485 3.30274 8.6825 1.85884 10.3585 0.389541C10.4929 0.355666 10.4467 0.499633 10.5265 0.51657" fill="#DF1517"/>
  <path d="M11.8455 0.499649C11.7699 0.838392 11.4254 0.965421 11.186 1.16867C7.77096 4.16232 4.25512 7.23642 0.785493 10.2428C0.613272 10.3698 0.571266 10.5307 0.411647 10.3698C0.189019 10.1454 1.07113 9.60339 1.28115 9.41285C2.81854 8.0494 4.39794 6.65632 5.90173 5.37333C8.00199 3.56528 9.82501 1.96048 11.7026 0.37262C11.7867 0.37262 11.7825 0.486946 11.8665 0.499649" fill="#DF1517"/>
  <path d="M12.6352 0.37262H12.715C13.0174 0.702895 12.4335 0.935781 12.2193 1.12209C10.4257 2.70148 8.57326 4.40791 6.75864 5.99577C4.94401 7.58363 3.10418 9.15879 1.20975 10.8313C1.12994 10.8948 0.999723 11.0685 0.835902 11.204C0.672082 11.3395 0.579671 11.4538 0.462056 11.3733C0.180621 11.1658 0.772895 10.8271 0.957717 10.6662C4.78439 7.29993 8.85049 3.68384 12.6352 0.37262Z" fill="#DF1517"/>
  <path d="M13.7945 0.499641C13.8239 0.711356 13.5761 0.812979 13.4627 0.923071C11.4002 2.80733 9.26214 4.76781 7.16188 6.71136C5.48167 8.25688 3.85187 9.74735 2.12126 11.331C1.83982 11.5893 1.32736 12.1101 0.882103 12.4996C0.751887 12.614 0.550262 12.7876 0.424246 12.6648C0.298231 12.542 0.546061 12.3641 0.676278 12.2413C3.80146 9.27734 7.00226 6.38531 10.1611 3.49752C11.3246 2.43048 12.5007 1.40578 13.6391 0.368378C13.7231 0.368378 13.7189 0.482704 13.8071 0.495407" fill="#DF1517"/>
  <path d="M14.5842 0.37262H14.664C14.9245 0.597037 14.6136 0.762175 14.496 0.872267C13.5005 1.84616 12.3454 2.83698 11.3078 3.7897C8.26245 6.58857 5.30948 9.29429 2.2347 12.1609C1.90706 12.4658 1.3568 12.9612 0.869535 13.4312C0.743519 13.5455 0.5839 13.8546 0.411678 13.681C0.239457 13.5074 0.949345 12.9612 1.11737 12.8045C4.96924 9.23924 8.82532 5.67819 12.6772 2.12138L14.5842 0.37262Z" fill="#DF1517"/>
  <path d="M15.9074 0.37262C16.2812 0.486946 15.9662 0.757941 15.6973 0.999296C10.7785 5.50459 5.90173 9.87438 0.907308 14.4093C0.8443 14.4686 0.579667 14.8327 0.411647 14.6591C0.243626 14.4855 0.546063 14.3077 0.701483 14.1637C4.40634 10.7382 8.20361 7.41849 11.8875 4.00141C12.5301 3.40438 13.1812 2.79464 13.8365 2.2103C14.4918 1.62597 15.2185 0.965421 15.9074 0.376854" fill="#DF1517"/>
  <path d="M0 15.8659V15.7855C5.59089 10.8821 11.1566 5.7163 16.7349 0.749467C16.9323 0.575861 17.1549 0.326037 17.3145 0.457301C17.5162 0.664781 17.0373 0.914605 16.9869 0.956948C15.6637 2.12138 14.4288 3.26887 13.2568 4.34439C11.8413 5.61468 10.3165 6.91884 8.94711 8.15525C6.28398 10.5942 3.65025 13.0247 0.96612 15.4001C0.798099 15.578 0.617476 15.7431 0.428453 15.8998C0.235229 16.0141 0.168021 16.0353 0.00840104 15.8574" fill="#DF1517"/>
  <path d="M0 16.5349V16.4502C5.88073 11.2759 11.8833 5.95765 17.6884 0.749468C17.8228 0.630908 18.0622 0.326038 18.3101 0.457302C18.3899 0.749468 18.0496 0.880731 17.89 0.999292C17.3145 1.51164 16.7475 2.00282 16.2098 2.50247C11.1692 7.01199 6.06135 11.5469 0.961919 16.0522C0.630078 16.3444 0.340242 16.8991 0.0126016 16.5519" fill="#DF1517"/>
  <path d="M0 17.8264V17.784C5.96054 12.3769 12.1101 6.82145 18.0622 1.41425C18.2303 1.26605 18.4571 0.880734 18.6461 1.12209C18.7007 1.39308 18.3815 1.57516 18.2261 1.71066C15.2689 4.31051 12.4167 6.90191 9.52678 9.57798C6.70823 12.1821 3.77627 14.8581 0.869508 17.4495C0.499862 17.7756 0.218427 18.2414 0 17.8264Z" fill="#DF1517"/>
  <path d="M18.9737 2.12138C19.1502 2.26534 18.9149 2.29498 18.8477 2.41778C12.967 7.69371 6.90565 12.9315 0.991318 18.3218C0.898907 18.415 0.802295 18.4996 0.701482 18.5759C0.504058 18.7071 0.495657 18.6987 0.411647 18.5759C0.268829 18.3684 0.613272 18.2244 0.831699 18.0339C6.58641 12.868 12.3411 7.68948 18.1462 2.58291C18.3521 2.36696 18.5915 2.18489 18.8519 2.04092C18.9065 2.04092 18.9149 2.11714 18.9779 2.12138" fill="#DF1517"/>
  <path d="M18.8057 3.3324C18.9023 3.3578 18.9149 3.4679 19.0115 3.50177C19.0493 3.6288 18.8729 3.69231 18.8057 3.74736C14.5632 7.55823 10.0728 11.2675 5.7547 15.0783C4.65837 16.0438 3.53263 16.9753 2.39429 17.9492C2.03304 18.2625 1.6802 18.7961 1.10893 18.741C0.945107 18.686 1.20134 18.597 1.27275 18.5335C5.49427 14.7523 9.95102 11.0219 14.2398 7.24912C15.7771 5.91109 17.3313 4.65773 18.8057 3.3324Z" fill="#DF1517"/>
  <path d="M18.6419 5.08115C18.7133 5.3225 18.3983 5.4707 18.2681 5.58079C13.3955 9.66266 8.52707 13.9266 3.59566 18.0339C3.25962 18.3133 2.96558 18.8299 2.43632 18.741C2.2977 18.7706 2.36911 18.6605 2.43632 18.6605C6.368 15.2265 10.4173 11.8857 14.4078 8.45588C15.752 7.29568 17.1927 6.02116 18.5075 4.99646C18.5621 4.99646 18.5747 5.07268 18.6335 5.08115" fill="#DF1517"/>
  <path d="M19.0116 6.12279C18.9486 6.33874 18.7133 6.45306 18.5579 6.58009C14.8783 9.5441 11.186 12.6394 7.49374 15.6627C6.38061 16.573 5.25067 17.4792 4.09973 18.4107C3.99051 18.4954 3.83509 18.8045 3.64607 18.5759C3.55786 18.3387 3.85609 18.2117 3.97791 18.1186C8.85051 14.151 13.8281 10.0353 18.7175 6.0381C18.7175 6.00423 18.8562 5.91107 18.8435 5.99576C18.9276 5.99576 18.9234 6.11008 19.0074 6.12279" fill="#DF1517"/>
  <path d="M18.4739 7.29147H18.5579C18.8477 7.63445 18.2177 7.88851 17.9782 8.07905C14.1179 11.187 10.2031 14.35 6.33859 17.4919C6.05295 17.7248 5.72531 17.9577 5.42707 18.199C5.12884 18.4404 4.8516 18.8511 4.38955 18.741C4.24673 18.6606 4.47356 18.5716 4.47356 18.5759C5.49428 17.674 6.67883 16.7975 7.78777 15.9083C10.6945 13.5752 13.6685 11.1786 16.5711 8.79042C17.2011 8.2696 17.8732 7.81653 18.4739 7.29147Z" fill="#DF1517"/>
  <path d="M18.6797 8.41356C18.5285 8.7523 18.1673 8.90897 17.8942 9.12069C14.0676 12.127 10.1863 15.2265 6.33861 18.2837C6.05717 18.5039 5.77574 18.8469 5.34308 18.741C5.23807 18.669 5.41869 18.6225 5.42709 18.6182C6.36801 17.7968 7.46014 16.9711 8.48927 16.1581C9.58141 15.3112 10.7029 14.4644 11.8077 13.5794C14.0508 11.8052 16.3778 9.87016 18.5285 8.28653C18.6125 8.28653 18.6125 8.40086 18.6923 8.41356" fill="#DF1517"/>
  <path d="M18.9738 9.37051C19.0536 9.54835 18.8099 9.67538 18.7217 9.74313C17.9068 10.4418 16.9155 11.1023 16.0334 11.7841C13.2316 13.952 10.4173 16.1327 7.58195 18.3218C7.32152 18.5251 7.07789 18.8596 6.67044 18.7453C6.54022 18.669 6.81325 18.5378 6.91407 18.4531C9.75782 16.2047 12.7948 13.952 15.6595 11.6782C16.151 11.2844 16.6887 10.8949 17.1927 10.5138C17.7178 10.0776 18.2723 9.67115 18.8477 9.30276C18.9023 9.30276 18.9108 9.37898 18.9738 9.38745" fill="#DF1517"/>
  <path d="M19.0115 11.0769C18.6251 11.4495 18.2008 11.784 17.7514 12.0762L16.424 13.0374C13.8113 14.9344 11.0726 16.7974 8.44304 18.741H7.87177C11.5094 16.1369 15.2437 13.41 18.8477 10.9118C18.9527 10.9118 18.9065 11.0769 19.0115 11.0769Z" fill="#DF1517"/>
  <path d="M18.6797 12.0762C18.3437 12.4107 17.9698 12.7029 17.5624 12.9485C14.9875 14.8412 12.3201 16.8356 9.6906 18.741H9.27055C9.09413 18.741 9.27055 18.6775 9.27055 18.6182C12.3705 16.3994 15.4369 14.151 18.4655 11.8687C18.4991 11.8687 18.5075 11.8687 18.5075 11.9111C18.6083 11.9111 18.5999 12.0424 18.6713 12.0762" fill="#DF1517"/>
  <path d="M18.6797 13.3677C18.1252 13.8927 17.512 14.3543 16.8567 14.7438C15.0589 16.0565 13.1854 17.4114 11.3498 18.741H10.8121C13.3576 16.8737 15.9242 15.0275 18.5159 13.2025C18.6251 13.2025 18.5747 13.3634 18.6797 13.3677Z" fill="#DF1517"/>
  <path d="M18.6797 14.367C18.2806 14.7904 17.8354 15.1672 17.3565 15.4933C16.025 16.5646 14.6136 17.6401 13.2568 18.741H12.8368C12.7023 18.7156 12.967 18.5166 13.0468 18.4488C13.8197 17.8179 14.7018 17.1531 15.5293 16.4926C16.5164 15.7092 17.5581 14.964 18.4697 14.2018C18.6251 14.1722 18.5579 14.3627 18.6755 14.367" fill="#DF1517"/>
  <path d="M18.6797 15.7008C18.1295 16.2428 17.5498 16.7551 16.9449 17.2336C16.3442 17.7332 15.7268 18.2033 15.1177 18.6902C15.0589 18.6267 15.0463 18.5166 14.9539 18.4827C16.0586 17.4411 17.3103 16.5476 18.4361 15.5187C18.5915 15.5187 18.6209 15.6076 18.6797 15.6838" fill="#DF1517"/>
  <path d="M18.7175 16.3867C17.9446 17.1785 17.1927 17.9915 16.3989 18.7622H16.0712C15.941 18.7241 16.1594 18.5547 16.2392 18.47C16.9029 17.7671 17.7766 16.9626 18.4361 16.2216C18.6167 16.192 18.6041 16.3571 18.7217 16.3867" fill="#DF1517"/>
  <path d="M18.6797 17.7417C18.2597 18.0593 17.8396 18.3768 17.4406 18.6987C17.3355 18.6351 17.2599 18.5293 17.2305 18.4107C17.659 18.144 18.0622 17.8349 18.4361 17.4919C18.6167 17.4919 18.6335 17.6274 18.6797 17.7417Z" fill="#DF1517"/>
  <path d="M19.356 0.626663C19.356 0.783332 19.44 0.817207 19.482 0.91883C19.6963 0.834144 19.9021 0.736755 20.1037 0.626663C20.0491 0.10161 19.6375 0.550446 19.356 0.626663Z" fill="#51AC34"/>
  <path d="M20.8934 0.334503C20.4272 0.728293 19.7719 0.931539 19.356 1.37614C19.419 1.43542 19.4358 1.54975 19.524 1.58362C20.0407 1.25335 20.5532 0.923071 21.0992 0.62667C21.0446 0.512344 21.0236 0.368378 20.8934 0.334503Z" fill="#51AC34"/>
  <path d="M19.3182 2.32886C19.377 2.39661 19.4316 2.46859 19.482 2.54057C19.9357 2.25264 20.3641 1.9266 20.7674 1.56668C21.221 1.27028 21.6537 0.935773 22.0527 0.56739C22.0317 0.465766 21.9729 0.376846 21.8847 0.317566C21.0446 1.00776 20.1415 1.6175 19.3182 2.31192" fill="#51AC34"/>
  <path d="M23.1701 0.334503C22.0989 1.13902 20.8682 1.88849 19.7719 2.62526C19.6206 2.72688 19.4064 2.84544 19.3518 3.04869C19.4148 3.04869 19.4022 3.13761 19.4358 3.17572C19.608 3.20536 19.8013 3.05292 19.9315 2.96824C21.095 2.18489 22.2124 1.3592 23.3717 0.635138C23.3423 0.512344 23.2709 0.410721 23.1659 0.342972" fill="#51AC34"/>
  <path d="M27.3958 0.334503C26.0685 1.50317 24.6529 2.71418 23.2541 3.91672C22.078 4.92872 20.8178 5.92801 19.6879 6.9146C19.5787 7.00776 19.2678 7.17289 19.398 7.41425C19.6081 7.57092 19.7845 7.25758 19.8979 7.16443C21.7965 5.54692 23.6784 3.89555 25.5728 2.32886C26.2827 1.77416 26.959 1.17713 27.6016 0.541984C27.4924 0.512344 27.5134 0.35144 27.3958 0.334503Z" fill="#51AC34"/>
  <path d="M24.0816 0.372633C23.3297 1.02895 22.4308 1.61328 21.5949 2.24843C20.9858 2.70996 20.3977 3.15033 19.8139 3.58223C19.6626 3.69656 19.293 3.83629 19.3938 4.12422C19.6374 4.23008 19.8601 3.95061 20.0155 3.83205C21.2757 2.91321 22.5358 1.94779 23.7456 1.04165C23.9514 0.889217 24.2622 0.783359 24.3252 0.499661C24.2286 0.474256 24.258 0.317587 24.0774 0.372633" fill="#51AC34"/>
  <path d="M25.0771 0.37262C23.6405 1.64291 22.1367 2.87932 20.7253 4.08186C20.2255 4.47142 19.755 4.89485 19.3182 5.35215C19.5912 5.67396 19.8768 5.21666 20.0617 5.05999C21.3554 3.98871 22.6282 2.94284 23.8757 1.89697C24.3924 1.47354 24.8881 1.012 25.3207 0.563163C25.2073 0.563163 25.2619 0.34298 25.0771 0.393791" fill="#51AC34"/>
  <path d="M28.3493 0.372617C25.5476 2.83698 22.603 5.37756 19.8139 7.79111C19.6416 7.93507 19.335 8.13408 19.356 8.32886C19.5786 8.55751 19.8559 8.23147 19.9777 8.12138C22.0779 6.22442 24.2244 4.4079 26.3163 2.58292C27.0934 1.90543 27.8915 1.24912 28.5971 0.541989C28.4837 0.516583 28.4921 0.368383 28.3493 0.372617Z" fill="#51AC34"/>
  <path d="M29.3406 0.372605C27.6604 1.84191 26.0348 3.2858 24.2076 4.91601C22.813 6.15242 21.1706 7.5328 19.8138 8.72688C19.6752 8.8539 19.2258 9.17571 19.3938 9.35355C19.5618 9.53139 19.923 9.05715 20.0155 8.98093C20.3011 8.73111 20.5531 8.5575 20.6791 8.43894C22.8634 6.51234 24.9301 4.62808 27.0597 2.77345C27.8032 2.12984 28.6349 1.47776 29.2944 0.817207C29.37 0.740989 29.601 0.647835 29.5044 0.482697C29.4246 0.482697 29.4708 0.321794 29.3364 0.355668" fill="#51AC34"/>
  <path d="M30.668 0.37262C28.7988 1.96048 26.959 3.56528 24.8671 5.37756C23.3843 6.64785 21.8049 8.05364 20.2717 9.41708C20.0575 9.60762 19.1754 10.1496 19.398 10.374C19.5576 10.5349 19.5997 10.374 19.7719 10.247C23.2415 7.24065 26.7573 4.16655 30.1724 1.1729C30.3992 0.969656 30.7562 0.842627 30.836 0.503883C30.7478 0.503883 30.752 0.393791 30.668 0.376854" fill="#51AC34"/>
  <path d="M19.9357 10.6662C19.7508 10.8271 19.1628 11.1701 19.44 11.3733C19.5618 11.4538 19.6248 11.3733 19.8138 11.204C20.0029 11.0346 20.1079 10.8948 20.1877 10.8313C22.0821 9.15879 23.9009 7.6048 25.7366 5.99577C27.5722 4.38673 29.412 2.70148 31.1972 1.12209C31.4115 0.935781 31.9953 0.698661 31.6929 0.37262H31.6131C27.8368 3.68384 23.7581 7.29993 19.9357 10.6662Z" fill="#51AC34"/>
  <path d="M32.617 0.37262C31.4745 1.41002 30.2983 2.43472 29.1348 3.50177C25.976 6.38956 22.7794 9.30275 19.65 12.2456C19.524 12.3599 19.23 12.4827 19.398 12.669C19.566 12.8553 19.7214 12.6182 19.8558 12.5039C20.3011 12.1143 20.8136 11.5935 21.116 11.3352C22.8634 9.75159 24.4764 8.26112 26.1566 6.7156C28.2569 4.77205 30.3949 2.81157 32.4574 0.927313C32.5708 0.821455 32.8186 0.719832 32.7892 0.503883C32.7052 0.503883 32.7094 0.393791 32.6254 0.376854" fill="#51AC34"/>
  <path d="M31.6593 2.12138C27.8158 5.68242 23.9639 9.23923 20.1037 12.7876C19.9356 12.94 19.188 13.4481 19.398 13.6598C19.608 13.8716 19.7298 13.5243 19.8558 13.41C20.3431 12.9612 20.8976 12.4658 21.221 12.1397C24.2958 9.27734 27.253 6.56739 30.2941 3.76852C31.3317 2.8158 32.4868 1.82498 33.4823 0.851088C33.5999 0.740996 33.9024 0.575858 33.6503 0.35144H33.5663L31.6593 2.10021" fill="#51AC34"/>
  <path d="M32.8229 2.20607C32.1592 2.7904 31.5207 3.40014 30.899 3.99718C27.211 7.41849 23.4137 10.7382 19.7089 14.1595C19.5534 14.3035 19.2888 14.4982 19.419 14.6549C19.5492 14.8116 19.8391 14.4644 19.9189 14.4051C24.8881 9.87438 29.7649 5.50459 34.6795 0.999296C34.9483 0.757941 35.2592 0.486946 34.8895 0.37262C34.2006 0.961187 33.516 1.58786 32.8187 2.20607" fill="#51AC34"/>
  <path d="M37.8341 2.04092C37.5737 2.18488 37.3384 2.36696 37.1326 2.58291C31.3191 7.68947 25.5686 12.868 19.8139 18.0339C19.5997 18.2244 19.2552 18.3684 19.3938 18.5758C19.4778 18.6986 19.4862 18.7071 19.6837 18.5758C19.7845 18.4996 19.8811 18.4149 19.9735 18.3218C25.892 12.9315 31.9492 7.6937 37.8341 2.41353C37.9013 2.29074 38.1365 2.2611 37.9601 2.11713C37.9013 2.11713 37.8887 2.04939 37.8341 2.03668" fill="#51AC34"/>
  <path d="M33.2345 7.24912C28.9458 11.0219 24.489 14.7523 20.2717 18.5335C20.1961 18.597 19.944 18.686 20.1037 18.741C20.6749 18.7961 21.0278 18.2625 21.389 17.9492C22.519 16.9753 23.6447 16.0438 24.7494 15.0783C29.0676 11.2675 33.5705 7.56246 37.8005 3.74736C37.8677 3.69231 38.0441 3.6288 38.0105 3.50177C37.9139 3.4679 37.9013 3.3578 37.8005 3.3324C36.3261 4.65773 34.7635 5.91109 33.2429 7.24912" fill="#51AC34"/>
  <path d="M37.5023 4.99646C36.1917 6.02116 34.7467 7.29568 33.4025 8.45588C29.4163 11.8857 25.3628 15.2308 21.4311 18.6605C21.3681 18.6605 21.2925 18.7706 21.4311 18.741C21.9645 18.8299 22.2712 18.3176 22.5904 18.0339C27.5134 13.9266 32.3818 9.66266 37.2544 5.58079C37.3846 5.4707 37.6997 5.3225 37.6241 5.08115C37.5695 5.08115 37.5569 5.0134 37.5023 4.99646Z" fill="#51AC34"/>
  <path d="M37.8341 5.99577C37.8341 5.91108 37.7165 5.99577 37.7123 6.03811C32.8187 10.0353 27.8369 14.151 22.96 18.1186C22.8466 18.2117 22.54 18.3387 22.6324 18.5759C22.8214 18.8045 22.9769 18.4954 23.0861 18.4107C24.237 17.4792 25.3669 16.573 26.4843 15.6627C30.1723 12.6394 33.8646 9.53141 37.5443 6.5801C37.7039 6.45307 37.9349 6.33875 38.0021 6.1228C37.9139 6.1228 37.9181 6.00847 37.8341 5.99577Z" fill="#51AC34"/>
  <path d="M35.5574 8.79042C32.6506 11.1786 29.6767 13.5752 26.7741 15.9083C25.6652 16.7975 24.4806 17.674 23.4599 18.5759C23.4599 18.5759 23.2331 18.6606 23.3759 18.741C23.8379 18.8511 24.1194 18.4404 24.4134 18.199C24.7074 17.9577 25.0393 17.7248 25.3207 17.4919C29.1894 14.35 33.1043 11.187 36.9646 8.07905C37.204 7.88851 37.8341 7.65562 37.5442 7.29147H37.4602C36.8637 7.81653 36.2001 8.2696 35.5574 8.79042Z" fill="#51AC34"/>
  <path d="M37.5023 8.28653C35.3642 9.87016 33.0371 11.8052 30.7814 13.5794C29.6767 14.4517 28.5552 15.3028 27.4672 16.1581C26.3793 17.0134 25.3376 17.7968 24.4008 18.6182C24.4008 18.6182 24.2076 18.669 24.3168 18.741C24.7369 18.8469 25.0309 18.5039 25.3082 18.2837C29.16 15.2265 33.0413 12.127 36.868 9.12069C37.1368 8.90897 37.5023 8.7523 37.6577 8.41356C37.5737 8.41356 37.5779 8.29923 37.4897 8.28653" fill="#51AC34"/>
  <path d="M37.8341 9.28583C37.2586 9.65421 36.7041 10.0607 36.1791 10.4968C35.6708 10.8779 35.1416 11.2675 34.6459 11.6613C31.7685 13.9478 28.7652 16.2004 25.9046 18.4361C25.7996 18.5208 25.5308 18.6521 25.6568 18.7283C26.0768 18.8469 26.3121 18.5124 26.5683 18.3049L35.0155 11.7714C35.9018 11.0854 36.8932 10.4249 37.7123 9.72619C37.7963 9.65845 38.0399 9.53142 37.9601 9.35358C37.9013 9.35358 37.8887 9.28583 37.8341 9.26889" fill="#51AC34"/>
  <path d="M37.8341 10.9118C34.2301 13.4227 30.479 16.1369 26.8582 18.741H27.3958C30.0379 16.7974 32.7767 14.9301 35.3768 13.0374L36.7042 12.0762C37.162 11.784 37.5947 11.4495 37.9895 11.0769C37.8845 11.0769 37.9265 10.916 37.8215 10.9118" fill="#51AC34"/>
  <path d="M37.5022 11.9111C37.5022 11.8857 37.5022 11.8603 37.4602 11.8687C34.4233 14.1468 31.3611 16.3952 28.2653 18.6182C28.2653 18.6775 28.0889 18.7452 28.2653 18.741H28.6854C31.3107 16.8356 33.9738 14.8412 36.5529 12.9485C36.9604 12.7029 37.3342 12.4107 37.6745 12.0762C37.6031 12.0423 37.6073 11.928 37.5064 11.9111" fill="#51AC34"/>
  <path d="M37.5022 13.2025C34.9189 15.0318 32.3398 16.8737 29.7985 18.741H30.3361C32.1718 17.4114 34.0452 16.0565 35.8472 14.7438C36.5025 14.35 37.1116 13.8885 37.6702 13.3677C37.561 13.3677 37.6114 13.2068 37.5022 13.2025Z" fill="#51AC34"/>
  <path d="M37.4602 14.2018C36.5529 14.964 35.5028 15.7092 34.5199 16.4926C33.6797 17.1489 32.8102 17.8179 32.0373 18.4488C31.9575 18.5166 31.6887 18.7156 31.8273 18.741H32.2474C33.6083 17.6401 35.0197 16.5646 36.3513 15.4933C36.8343 15.1673 37.2796 14.7904 37.6786 14.367C37.561 14.367 37.624 14.1722 37.4686 14.2018" fill="#51AC34"/>
  <path d="M37.4182 15.5399C36.2967 16.5604 35.0449 17.4538 33.9402 18.5039C34.0326 18.5378 34.041 18.6479 34.104 18.7114C34.7131 18.2244 35.3306 17.7544 35.927 17.2548C36.5361 16.7721 37.1158 16.2597 37.6702 15.7135C37.6072 15.6373 37.5736 15.5272 37.4182 15.5484" fill="#51AC34"/>
  <path d="M37.4182 16.2004C36.7629 16.9414 35.8892 17.7459 35.2255 18.4488C35.1457 18.5335 34.9273 18.7029 35.0617 18.741H35.3894C36.1833 17.9703 36.9352 17.1574 37.7123 16.3656C37.5904 16.3359 37.603 16.1708 37.4182 16.2004Z" fill="#51AC34"/>
  <path d="M37.4182 17.4919C37.0486 17.8349 36.6495 18.144 36.2211 18.4107C36.2463 18.5293 36.3219 18.6352 36.4269 18.6987C36.8469 18.3769 37.267 18.0593 37.687 17.7417C37.6366 17.6274 37.6198 17.475 37.435 17.4919" fill="#51AC34"/>
  <path d="M26.4003 0H26.4843C26.8035 0.342978 26.3709 0.48271 26.0642 0.749471C24.1026 2.47706 22.2165 4.13691 20.2675 5.83063C20.0953 5.97883 19.503 6.67749 19.3518 6.37262C19.2678 6.19054 19.9651 5.65279 20.0995 5.52576C22.2333 3.67537 24.3672 1.84192 26.4003 0.0211715V0Z" fill="#51AC34"/>
  <path d="M20.1037 0.626663C19.9021 0.736755 19.6962 0.834144 19.482 0.91883C19.44 0.817207 19.3392 0.783332 19.356 0.626663C19.6374 0.550446 20.0491 0.10161 20.1037 0.626663Z" fill="#51AC34"/>
  <path d="M21.0992 0.62667C20.5532 0.923071 20.0407 1.25335 19.524 1.58362C19.4358 1.54975 19.419 1.43542 19.356 1.37614C19.7761 0.952711 20.4272 0.728293 20.8934 0.334503C21.0236 0.368378 21.0446 0.512344 21.0992 0.62667Z" fill="#51AC34"/>
  <path d="M21.8847 0.334503C21.9729 0.393783 22.0317 0.482704 22.0527 0.584327C21.6537 0.948476 21.221 1.27452 20.7674 1.56668C20.3641 1.91813 19.9357 2.23994 19.482 2.52364C19.4316 2.45165 19.377 2.37967 19.3182 2.31192C20.1583 1.6175 21.053 1.00776 21.8847 0.317566" fill="#51AC34"/>
  <path d="M23.3759 0.626685C22.2166 1.35075 21.0992 2.17644 19.9357 2.95978C19.8055 3.04447 19.6122 3.1969 19.44 3.16726C19.4064 3.12916 19.44 3.0487 19.356 3.04023C19.4064 2.84546 19.6207 2.7269 19.7761 2.61681C20.8724 1.88004 22.1032 1.13057 23.1743 0.32605C23.2793 0.393799 23.3507 0.495422 23.3801 0.618216" fill="#51AC34"/>
  <path d="M27.6016 0.541984C26.9589 1.17713 26.2827 1.77416 25.5728 2.32886C23.6825 3.89555 21.7923 5.54692 19.8979 7.16443C19.7844 7.25758 19.608 7.58786 19.398 7.41425C19.2594 7.17289 19.5786 6.99082 19.6878 6.9146C20.8178 5.92801 22.0779 4.92872 23.2541 3.91672C24.6529 2.71418 26.0684 1.50317 27.3958 0.334503C27.5134 0.334503 27.4924 0.512344 27.6016 0.541984Z" fill="#51AC34"/>
  <path d="M24.3294 0.499661C24.2664 0.783359 23.9556 0.889217 23.7497 1.04165C22.5358 1.94779 21.2714 2.91321 20.0197 3.83205C19.8643 3.95061 19.6416 4.23008 19.398 4.12422C19.293 3.83629 19.6626 3.70079 19.8181 3.58223C20.3935 3.1588 20.99 2.70996 21.5991 2.24843C22.4392 1.61328 23.3339 1.02895 24.0858 0.372633C24.2664 0.317587 24.237 0.474256 24.3336 0.499661" fill="#51AC34"/>
  <path d="M25.3207 0.541986C24.9007 0.990821 24.3924 1.43119 23.8757 1.87579C22.6156 2.9259 21.3554 3.96753 20.0617 5.03881C19.8768 5.19548 19.5912 5.65278 19.3182 5.33098C19.755 4.87367 20.2255 4.45024 20.7253 4.06069C22.1577 2.85815 23.6405 1.61326 25.0771 0.351443C25.2619 0.300631 25.2073 0.499643 25.3207 0.520814" fill="#51AC34"/>
  <path d="M28.5972 0.541992C27.8915 1.24912 27.0934 1.90544 26.3163 2.58292C24.2244 4.40791 22.078 6.22442 19.9777 8.12139C19.8559 8.23571 19.5576 8.54482 19.356 8.32887C19.356 8.13409 19.6417 7.93508 19.8139 7.79111C22.603 5.37756 25.5476 2.83698 28.3493 0.37262C28.4921 0.37262 28.4837 0.516586 28.5972 0.541992Z" fill="#51AC34"/>
  <path d="M29.5087 0.499632C29.6053 0.66477 29.3742 0.757925 29.2986 0.834142C28.6392 1.49469 27.8074 2.14254 27.064 2.79039C24.9343 4.64501 22.8634 6.52927 20.6834 8.45588C20.5574 8.56597 20.3053 8.74804 20.0197 8.99787C19.9273 9.07832 19.5996 9.5568 19.398 9.37049C19.1964 9.18418 19.6752 8.87084 19.8181 8.74381C21.1748 7.5328 22.8172 6.15242 24.2118 4.93294C26.039 3.30274 27.6688 1.85884 29.3448 0.389541C29.4793 0.355666 29.4331 0.499633 29.5129 0.51657" fill="#51AC34"/>
  <path d="M30.836 0.499656C30.7562 0.8384 30.416 0.965429 30.1724 1.16868C26.7573 4.16232 23.2415 7.23642 19.7719 10.2428C19.5997 10.3698 19.5576 10.5307 19.398 10.3698C19.1754 10.1454 20.0575 9.6034 20.2717 9.41285C21.8049 8.04941 23.3843 6.64786 24.8671 5.37757C26.9674 3.56952 28.7946 1.96472 30.668 0.376862C30.752 0.376862 30.7478 0.491188 30.836 0.503891" fill="#51AC34"/>
  <path d="M31.6215 0.37262H31.7013C32.0038 0.702895 31.4199 0.935781 31.2057 1.12209C29.412 2.70148 27.5596 4.40791 25.745 5.99577C23.9304 7.58363 22.0779 9.15879 20.1877 10.8313C20.1079 10.8948 19.9777 11.0685 19.8138 11.204C19.65 11.3395 19.5618 11.4538 19.44 11.3733C19.1628 11.1658 19.7508 10.8271 19.9357 10.6662C23.7581 7.29993 27.8368 3.68384 31.6215 0.37262Z" fill="#51AC34"/>
  <path d="M32.7808 0.499641C32.8102 0.711356 32.5624 0.812979 32.449 0.923071C30.3907 2.80733 28.2485 4.76781 26.1482 6.71136C24.468 8.25688 22.8424 9.74735 21.1076 11.331C20.8219 11.5893 20.3095 12.1101 19.8474 12.4996C19.713 12.614 19.5156 12.7876 19.3896 12.6648C19.2636 12.542 19.5156 12.3641 19.6416 12.2413C22.771 9.27734 25.9676 6.38531 29.1264 3.49752C30.2899 2.43048 31.4661 1.40578 32.6086 0.368378C32.6926 0.368378 32.6884 0.482704 32.7724 0.495407" fill="#51AC34"/>
  <path d="M33.5663 0.37262H33.6503C33.9108 0.597037 33.5999 0.762175 33.4823 0.872267C32.4868 1.84616 31.319 2.83698 30.2941 3.7897C27.2529 6.58857 24.2958 9.29852 21.2378 12.1524C20.9144 12.4573 20.3599 12.9527 19.8726 13.4227C19.7466 13.5371 19.5912 13.8462 19.4148 13.6726C19.2384 13.4989 19.9524 12.9527 20.1205 12.7961C23.9639 9.23501 27.8074 5.67819 31.6593 2.12138L33.5663 0.37262Z" fill="#51AC34"/>
  <path d="M34.8937 0.37262C35.2633 0.486946 34.9525 0.757941 34.6837 0.999296C29.7649 5.50459 24.8881 9.89132 19.8978 14.4093C19.8348 14.4686 19.566 14.8327 19.398 14.6591C19.23 14.4855 19.5324 14.3077 19.6878 14.1637C23.3927 10.7382 27.1899 7.41849 30.878 4.00141C31.5207 3.40438 32.1676 2.79464 32.8228 2.2103C33.4781 1.62597 34.2048 0.965421 34.8937 0.376854" fill="#51AC34"/>
  <path d="M18.9863 15.8659V15.7855C24.5982 10.8821 30.1471 5.7163 35.7212 0.749467C35.9186 0.575861 36.1412 0.326037 36.3009 0.457301C36.5025 0.664781 36.0236 0.914605 35.9732 0.956948C34.6501 2.12138 33.4151 3.26887 32.239 4.34439C30.8276 5.61468 29.2986 6.91884 27.9334 8.15525C25.2703 10.5942 22.6366 13.0247 19.9524 15.4001C19.7844 15.578 19.6038 15.7473 19.4106 15.8998C19.2174 16.0141 19.1501 16.0353 18.9905 15.8574" fill="#51AC34"/>
  <path d="M18.9863 16.5349V16.4502C24.8671 11.2759 30.8696 5.95765 36.6747 0.749468C36.8091 0.630908 37.0528 0.326038 37.2964 0.457302C37.3762 0.749468 37.036 0.880731 36.8763 0.999292C36.3009 1.51164 35.7338 2.00282 35.1961 2.50247C30.1555 7.01199 25.0477 11.5469 19.9524 16.0522C19.6206 16.3444 19.3308 16.8991 18.9989 16.5519" fill="#51AC34"/>
  <path d="M18.9864 17.8264V17.784C24.9469 12.3769 31.0965 6.82145 37.0486 1.41425C37.2166 1.26605 37.4435 0.880734 37.6283 1.12209C37.6871 1.39308 37.3679 1.57516 37.2082 1.71066C34.2679 4.31051 31.4031 6.90191 28.509 9.57798C25.6946 12.1821 22.7584 14.8581 19.8517 17.4495C19.4862 17.7756 19.2006 18.2414 18.9822 17.8264" fill="#51AC34"/>
  <path d="M37.9601 2.12138C38.1365 2.26534 37.9013 2.29498 37.8341 2.41778C31.9491 7.69371 25.892 12.9315 19.9776 18.3218C19.8852 18.415 19.7886 18.4996 19.6878 18.5759C19.4904 18.7071 19.482 18.6987 19.398 18.5759C19.2552 18.3684 19.5996 18.2244 19.818 18.0339C25.5727 12.868 31.3275 7.68948 37.1368 2.58291C37.3426 2.36696 37.5778 2.18489 37.8383 2.04092C37.8929 2.04092 37.9055 2.11714 37.9643 2.12138" fill="#51AC34"/>
  <path d="M37.7921 3.3324C37.8929 3.3578 37.9055 3.4679 38.0021 3.50177C38.0357 3.6288 37.8593 3.69231 37.7921 3.74736C33.5496 7.55823 29.0592 11.2675 24.7411 15.0783C23.6447 16.0438 22.519 16.9753 21.3807 17.9492C21.0194 18.2625 20.6666 18.7961 20.0953 18.741C19.9357 18.686 20.1877 18.597 20.2633 18.5335C24.4638 14.7523 28.9374 11.0219 33.2261 7.24912C34.7467 5.91109 36.3135 4.65773 37.7837 3.3324" fill="#51AC34"/>
  <path d="M37.6199 5.08115C37.6955 5.3225 37.3804 5.4707 37.2502 5.58079C32.3776 9.66266 27.5092 13.9266 22.5862 18.0339C22.2502 18.3133 21.9603 18.8299 21.4269 18.741C21.2882 18.7706 21.3639 18.6605 21.4269 18.6605C25.3585 15.2265 29.4078 11.8857 33.3983 8.45588C34.7425 7.29568 36.1875 6.02116 37.498 4.99646C37.5527 4.99646 37.5653 5.07268 37.6199 5.08115Z" fill="#51AC34"/>
  <path d="M38.0021 6.12279C37.9349 6.33874 37.7038 6.45306 37.5442 6.58009C33.8646 9.5441 30.1723 12.6394 26.4843 15.6627C25.3669 16.573 24.2328 17.4792 23.086 18.4107C22.9768 18.4954 22.8214 18.8045 22.6324 18.5759C22.5484 18.3387 22.8466 18.2117 22.96 18.1186C27.8368 14.151 32.8186 10.0226 37.7123 6.0381C37.7123 6.00423 37.8467 5.91107 37.8341 5.99576C37.9181 5.99576 37.9139 6.11008 38.0021 6.12279Z" fill="#51AC34"/>
  <path d="M37.4602 7.29147H37.5442C37.8341 7.63445 37.204 7.88851 36.9646 8.07905C33.1043 11.187 29.1894 14.35 25.3207 17.4919C25.0393 17.7248 24.7116 17.9577 24.4134 18.199C24.1152 18.4404 23.8379 18.8511 23.3759 18.741C23.2331 18.6606 23.4641 18.5716 23.4599 18.5759C24.4806 17.674 25.6652 16.7975 26.7741 15.9083C29.6809 13.5752 32.6548 11.1786 35.5574 8.79042C36.1917 8.2696 36.8637 7.81653 37.4602 7.29147Z" fill="#51AC34"/>
  <path d="M37.6703 8.41356C37.5148 8.7523 37.1494 8.90897 36.8806 9.12069C33.0539 12.127 29.1726 15.2265 25.3207 18.2837C25.0435 18.5039 24.7621 18.8469 24.3294 18.741C24.2202 18.669 24.405 18.6225 24.4134 18.6182C25.3501 17.7968 26.4465 16.9711 27.4798 16.1581C28.5131 15.3451 29.6893 14.4644 30.794 13.5794C33.0371 11.8052 35.3642 9.87016 37.5148 8.28653C37.603 8.28653 37.5988 8.40086 37.6829 8.41356" fill="#51AC34"/>
  <path d="M37.9601 9.37051C38.0399 9.54835 37.7963 9.67538 37.7123 9.74313C36.8722 10.4418 35.9018 11.1023 35.0155 11.7841C32.2138 13.952 29.3994 16.1327 26.5683 18.3218C26.3121 18.5251 26.0642 18.8596 25.6568 18.7453C25.5308 18.669 25.7996 18.5378 25.9046 18.4531C28.7442 16.2047 31.7853 13.952 34.6459 11.6782C35.1416 11.2844 35.6708 10.8949 36.1791 10.5138C36.7041 10.0776 37.2586 9.67115 37.8341 9.30276C37.8887 9.30276 37.9013 9.37898 37.9601 9.38745" fill="#51AC34"/>
  <path d="M38.0021 11.0769C37.6031 11.4495 37.1746 11.784 36.7168 12.0762L35.3894 13.0374C32.7767 14.9344 30.0379 16.7974 27.4084 18.741H26.8582C30.479 16.1369 34.2301 13.4227 37.8341 10.9118C37.9391 10.9118 37.8971 11.0769 38.0021 11.0769Z" fill="#51AC34"/>
  <path d="M37.6703 12.0762C37.33 12.4107 36.9562 12.7029 36.5487 12.9485C33.9696 14.8412 31.3065 16.8356 28.6811 18.741H28.2611C28.0847 18.741 28.2611 18.6775 28.2611 18.6182C31.3611 16.3994 34.4275 14.151 37.456 11.8687C37.4896 11.8687 37.498 11.8687 37.498 11.9111C37.5988 11.9111 37.5946 12.0424 37.6661 12.0762" fill="#51AC34"/>
  <path d="M37.6702 13.3677C37.1116 13.8885 36.5025 14.35 35.8472 14.7438C34.0452 16.0565 32.1718 17.4114 30.3361 18.741H29.7985C32.3398 16.8737 34.9189 15.0318 37.5022 13.2025C37.6114 13.2025 37.561 13.3634 37.6702 13.3677Z" fill="#51AC34"/>
  <path d="M37.6703 14.367C37.2712 14.7904 36.826 15.1672 36.3429 15.4933C35.0113 16.5646 33.6 17.6401 32.239 18.741H31.819C31.6803 18.7156 31.9492 18.5166 32.029 18.4488C32.8019 17.8179 33.684 17.1531 34.5115 16.4926C35.4944 15.7092 36.5403 14.964 37.4519 14.2018C37.6073 14.1722 37.5443 14.3627 37.6619 14.367" fill="#51AC34"/>
  <path d="M37.6703 15.7008C37.12 16.2428 36.5445 16.7551 35.9397 17.2336C35.3432 17.7332 34.7257 18.2033 34.1166 18.6902C34.0536 18.6267 34.0452 18.5166 33.9528 18.4827C35.0576 17.4411 36.3093 16.5476 37.4308 15.5187C37.5863 15.5187 37.6199 15.6076 37.6829 15.6838" fill="#51AC34"/>
  <path d="M37.7123 16.3867C36.9352 17.1785 36.1833 17.9915 35.3894 18.7622H35.0617C34.9273 18.7241 35.1457 18.5547 35.2255 18.47C35.8892 17.7671 36.7629 16.9626 37.4182 16.2216C37.603 16.192 37.5904 16.3571 37.7123 16.3867Z" fill="#51AC34"/>
  <path d="M37.6703 17.7417C37.2502 18.0593 36.8302 18.3768 36.4101 18.6987C36.3051 18.6351 36.2337 18.5293 36.2043 18.4107C36.6327 18.144 37.0318 17.8349 37.4014 17.4919C37.5863 17.4919 37.6031 17.6274 37.6535 17.7417" fill="#51AC34"/>
  <path d="M38.3423 0.626663C38.3423 0.783332 38.4264 0.817207 38.4684 0.91883C38.6826 0.834144 38.8884 0.736755 39.09 0.626663C39.0312 0.10161 38.6238 0.550446 38.3423 0.626663Z" fill="#3374B0"/>
  <path d="M39.8797 0.334503C39.4135 0.728293 38.7582 0.931539 38.3423 1.37614C38.4054 1.43542 38.4222 1.54975 38.5104 1.58362C39.027 1.25335 39.5395 0.923071 40.0856 0.62667C40.031 0.512344 40.01 0.368378 39.8797 0.334503Z" fill="#3374B0"/>
  <path d="M38.3046 2.32886C38.3634 2.39661 38.418 2.46859 38.4684 2.54057C38.922 2.25264 39.3505 1.9266 39.7537 1.56668C40.2074 1.27028 40.6401 0.935773 41.0391 0.56739C41.0181 0.465766 40.9593 0.372612 40.8711 0.317566C40.031 1.00776 39.1279 1.6175 38.3046 2.31192" fill="#3374B0"/>
  <path d="M42.1564 0.334503C41.0811 1.13902 39.8545 1.88849 38.7582 2.62526C38.607 2.72688 38.3927 2.84544 38.3381 3.04869C38.4011 3.04869 38.3885 3.13761 38.4221 3.17572C38.5944 3.20536 38.7876 3.05292 38.922 2.96824C40.0814 2.18489 41.2029 1.3592 42.358 0.635138C42.3328 0.512344 42.2572 0.406486 42.1522 0.342972" fill="#3374B0"/>
  <path d="M46.3821 0.334503C45.059 1.50317 43.6392 2.71418 42.2404 3.91672C41.0517 4.92872 39.8209 5.92801 38.6784 6.9146C38.565 7.00776 38.2583 7.17289 38.3843 7.41425C38.5986 7.57092 38.775 7.25758 38.8842 7.16443C40.7828 5.54692 42.6647 3.89555 44.5591 2.32886C45.269 1.77416 45.9453 1.17713 46.588 0.541984C46.4787 0.512344 46.4997 0.35144 46.3821 0.334503Z" fill="#3374B0"/>
  <path d="M43.0806 0.372633C42.3287 1.02895 41.434 1.61328 40.5938 2.24843C39.989 2.70996 39.3883 3.15033 38.8128 3.58223C38.6616 3.69656 38.292 3.83629 38.3928 4.12422C38.6364 4.23008 38.859 3.95061 39.0145 3.83205C40.2746 2.91321 41.5348 1.94779 42.7445 1.04165C42.9503 0.889217 43.2654 0.783359 43.3242 0.499661C43.2276 0.474256 43.257 0.317587 43.0764 0.372633" fill="#3374B0"/>
  <path d="M44.0593 0.37262C42.6269 1.64291 41.1483 2.87932 39.7117 4.08186C39.2119 4.47142 38.7414 4.89485 38.3046 5.35215C38.5776 5.67396 38.8632 5.21666 39.0523 5.05999C40.3418 3.98871 41.6146 2.94284 42.8621 1.89697C43.3788 1.47354 43.8787 1.012 44.3113 0.563163C44.1937 0.563163 44.2525 0.34298 44.0593 0.393791" fill="#3374B0"/>
  <path d="M47.3356 0.372617C44.5297 2.83698 41.5893 5.37756 38.8002 7.79111C38.628 7.93507 38.3213 8.13408 38.3423 8.32886C38.5692 8.55751 38.8422 8.23147 38.964 8.12138C41.0643 6.24135 43.2149 4.4079 45.3026 2.58292C46.0839 1.90543 46.8778 1.24912 47.5835 0.541989C47.4701 0.516583 47.4827 0.368383 47.3356 0.372617Z" fill="#3374B0"/>
  <path d="M48.327 0.372605C46.6468 1.84191 45.0212 3.2858 43.194 4.91601C41.7994 6.15242 40.157 7.5328 38.8002 8.72688C38.6616 8.8539 38.2121 9.17571 38.3802 9.35355C38.5482 9.53139 38.9136 9.05715 39.0018 8.98093C39.2875 8.73111 39.5395 8.5575 39.6697 8.43894C41.8456 6.51234 43.9164 4.62808 46.0461 2.77345C46.7896 2.12984 47.6213 1.47776 48.2808 0.817207C48.3606 0.740989 48.5874 0.647835 48.4908 0.482697C48.411 0.482697 48.4572 0.321794 48.3228 0.355668" fill="#3374B0"/>
  <path d="M49.6544 0.37262C47.7809 1.96048 45.9453 3.56528 43.8576 5.37333C42.3749 6.64361 40.7913 8.0494 39.2581 9.41285C39.0438 9.60339 38.1617 10.1454 38.3844 10.3698C38.544 10.5307 38.586 10.3698 38.7582 10.2428C42.2278 7.23642 45.7437 4.16232 49.1587 1.16867C49.3855 0.965421 49.7426 0.838392 49.8224 0.499649C49.7342 0.499649 49.7384 0.389557 49.6544 0.37262Z" fill="#3374B0"/>
  <path d="M38.9262 10.6662C38.7372 10.8271 38.1491 11.1701 38.4264 11.3733C38.544 11.4538 38.6112 11.3733 38.8002 11.204C38.9892 11.0346 39.0984 10.8948 39.174 10.8313C41.0685 9.15879 42.8873 7.6048 44.7229 5.99577C46.5586 4.38673 48.3984 2.70148 50.1836 1.12209C50.3978 0.935781 50.9817 0.698661 50.6793 0.37262H50.5995C46.819 3.6669 42.7487 7.29993 38.9178 10.6662" fill="#3374B0"/>
  <path d="M51.6034 0.37262C50.4651 1.41002 49.2847 2.43472 48.1212 3.50177C44.9624 6.38956 41.7658 9.30275 38.6364 12.2456C38.5104 12.3599 38.2163 12.4827 38.3844 12.669C38.5524 12.8553 38.712 12.6182 38.8422 12.5039C39.2875 12.1143 39.8041 11.5935 40.1024 11.3352C41.8498 9.75159 43.4628 8.26112 45.143 6.7156C47.2433 4.77205 49.3813 2.81157 51.4438 0.927313C51.5572 0.821455 51.8092 0.719832 51.7756 0.503883C51.6916 0.503883 51.6958 0.393791 51.6118 0.376854" fill="#3374B0"/>
  <path d="M50.6415 2.12138C46.8022 5.68242 42.9503 9.23923 39.0901 12.7876C38.922 12.94 38.1743 13.4481 38.3844 13.6598C38.5944 13.8716 38.7162 13.5243 38.8422 13.41C39.3295 12.9612 39.8798 12.4658 40.2074 12.1397C43.2864 9.27734 46.2393 6.56739 49.2847 3.76852C50.3223 2.8158 51.4732 1.82498 52.4729 0.851088C52.5905 0.740996 52.893 0.575858 52.6367 0.35144H52.5569L50.6415 2.12138Z" fill="#3374B0"/>
  <path d="M51.8092 2.20606C51.1539 2.7904 50.507 3.40014 49.8644 3.99717C46.1763 7.41848 42.379 10.7382 38.6784 14.1595C38.5146 14.3035 38.2331 14.4982 38.3843 14.6549C38.5356 14.8116 38.8044 14.4644 38.8842 14.4051C43.8786 9.87014 48.7512 5.51305 53.67 0.995054C53.9389 0.753699 54.2497 0.482704 53.8801 0.368378C53.1912 0.956945 52.5065 1.58362 51.8092 2.20183" fill="#3374B0"/>
  <path d="M56.8204 2.04092C56.5558 2.18489 56.3164 2.36696 56.1022 2.58291C50.297 7.68948 44.5423 12.868 38.7876 18.0339C38.5776 18.2244 38.2331 18.3684 38.3676 18.5759C38.4516 18.6987 38.46 18.7071 38.6616 18.5759C38.7624 18.4954 38.859 18.4107 38.9472 18.3218C44.8616 12.9315 50.9187 7.69371 56.8036 2.41778C56.8708 2.29498 57.1103 2.26534 56.9297 2.12138C56.8708 2.12138 56.8624 2.05363 56.8036 2.04092" fill="#3374B0"/>
  <path d="M52.2251 7.24912C47.9321 11.0219 43.4754 14.7523 39.2581 18.5335C39.1825 18.597 38.9304 18.686 39.0901 18.741C39.6613 18.7961 40.0142 18.2625 40.3754 17.9492C41.5096 16.9753 42.6353 16.0438 43.7358 15.0783C48.054 11.2675 52.5569 7.56246 56.791 3.74736C56.8541 3.69231 57.0305 3.6288 56.9969 3.50177C56.9003 3.4679 56.8877 3.3578 56.791 3.3324C55.3167 4.65773 53.7499 5.91109 52.2335 7.24912" fill="#3374B0"/>
  <path d="M56.4928 4.99646C55.1738 6.02116 53.733 7.29568 52.3889 8.45588C48.4068 11.8857 44.3491 15.2308 40.4174 18.6605C40.3544 18.6605 40.2788 18.7706 40.4174 18.741C40.9467 18.8299 41.2575 18.3176 41.5767 18.0339C46.4998 13.9266 51.3682 9.66266 56.2408 5.58079C56.371 5.4707 56.686 5.3225 56.6146 5.08115C56.5558 5.08115 56.5432 5.0134 56.4928 4.99646Z" fill="#3374B0"/>
  <path d="M56.8204 5.99577C56.8204 5.91108 56.7028 5.99577 56.6986 6.03811C51.805 10.0226 46.8232 14.151 41.9506 18.1186C41.833 18.2117 41.5305 18.3387 41.6187 18.5759C41.812 18.8045 41.9632 18.4954 42.0766 18.4107C43.2233 17.4792 44.3575 16.573 45.4706 15.6627C49.1629 12.6394 52.8551 9.53141 56.5306 6.5801C56.6902 6.45307 56.9212 6.33875 56.9884 6.1228C56.9044 6.1228 56.9086 6.00847 56.8204 5.99577Z" fill="#3374B0"/>
  <path d="M54.5438 8.79042C51.637 11.1786 48.663 13.5752 45.7605 15.9083C44.6515 16.7975 43.467 17.674 42.4463 18.5759C42.4463 18.5759 42.2194 18.6606 42.3623 18.741C42.8243 18.8511 43.1058 18.4404 43.3998 18.199C43.6938 17.9577 44.0257 17.7248 44.3113 17.4919C48.1758 14.35 52.0949 11.187 55.9509 8.07905C56.1904 7.88851 56.8205 7.65562 56.5306 7.29147H56.4508C55.8459 7.81653 55.1907 8.2696 54.5438 8.79042Z" fill="#3374B0"/>
  <path d="M56.4928 8.28653C54.3505 9.87016 52.0234 11.8052 49.7719 13.5794C48.6672 14.4517 47.5457 15.3028 46.4577 16.1581C45.3698 17.0134 44.3281 17.7968 43.3913 18.6182C43.3913 18.6182 43.2023 18.669 43.3073 18.741C43.7274 18.8469 44.0214 18.5039 44.3029 18.2837C48.1505 15.2265 52.0318 12.127 55.8627 9.12069C56.1315 8.90897 56.497 8.7523 56.6482 8.41356C56.5642 8.41356 56.5642 8.29923 56.4844 8.28653" fill="#3374B0"/>
  <path d="M56.8204 9.28583C56.2449 9.65845 55.6947 10.0607 55.1654 10.4968C54.6571 10.8779 54.1237 11.2675 53.6322 11.6613C50.7549 13.9478 47.7515 16.2004 44.8909 18.4361C44.7859 18.5208 44.5171 18.6521 44.6431 18.7283C45.0632 18.8469 45.2984 18.5124 45.5546 18.3049L54.0019 11.7883C54.884 11.1023 55.8753 10.4418 56.6944 9.74313C56.7784 9.67538 57.022 9.54835 56.9422 9.37051C56.8834 9.37051 56.875 9.30276 56.8162 9.28583" fill="#3374B0"/>
  <path d="M56.8204 10.9118C53.2164 13.41 49.4821 16.1369 45.8403 18.741H46.3821C49.0243 16.7974 51.763 14.9301 54.3631 13.0374L55.6863 12.0762C56.1442 11.784 56.5768 11.4495 56.9717 11.0769C56.8666 11.0769 56.9128 10.916 56.8036 10.9118" fill="#3374B0"/>
  <path d="M56.4928 11.9111C56.4928 11.8857 56.4928 11.8603 56.4508 11.8687C53.4096 14.1468 50.3432 16.3952 47.2517 18.6182C47.2517 18.6775 47.0794 18.7452 47.2517 18.741H47.6717C50.3012 16.8356 52.9686 14.8412 55.5477 12.9485C55.9509 12.7029 56.329 12.4107 56.665 12.0762C56.5936 12.0423 56.5978 11.928 56.5012 11.9111" fill="#3374B0"/>
  <path d="M56.4928 13.2025C53.9053 15.0318 51.3346 16.8779 48.7849 18.741H49.3225C51.1581 17.4114 53.0316 16.0565 54.8336 14.7438C55.4889 14.35 56.098 13.8885 56.6566 13.3677C56.5474 13.3677 56.5978 13.2068 56.4928 13.2025Z" fill="#3374B0"/>
  <path d="M56.4508 14.2018C55.5393 14.964 54.4933 15.7092 53.5104 16.4926C52.6703 17.1489 51.805 17.8179 51.0279 18.4488C50.9481 18.5166 50.6835 18.7156 50.8221 18.741H51.2421C52.5989 17.6401 54.0103 16.5646 55.3418 15.4933C55.8249 15.1673 56.2702 14.7904 56.6692 14.367C56.5516 14.367 56.6188 14.1722 56.4634 14.2018" fill="#3374B0"/>
  <path d="M56.4046 15.5399C55.2831 16.5604 54.0313 17.4538 52.9266 18.5039C53.019 18.5378 53.0316 18.6479 53.0904 18.7114C53.6995 18.2244 54.3169 17.7544 54.9176 17.2548C55.5225 16.7721 56.1022 16.2555 56.6566 15.7135C56.5978 15.6373 56.5642 15.5272 56.4046 15.5484" fill="#3374B0"/>
  <path d="M56.4046 16.2004C55.7493 16.9414 54.8756 17.7459 54.2119 18.4488C54.1321 18.5335 53.9137 18.7029 54.0481 18.741H54.38C55.1697 17.9703 55.9215 17.1574 56.6986 16.3656C56.5768 16.3359 56.5894 16.1708 56.4046 16.2004Z" fill="#3374B0"/>
  <path d="M56.4045 17.4919C56.0349 17.8349 55.6359 18.144 55.2074 18.4107C55.2326 18.5293 55.3082 18.6352 55.4132 18.6987C55.8333 18.3769 56.2533 18.0593 56.6734 17.7417C56.623 17.6274 56.6062 17.475 56.4214 17.4919" fill="#3374B0"/>
  <path d="M45.3866 0H45.4706C45.7899 0.342978 45.3614 0.48271 45.0506 0.749471C43.0848 2.47706 41.1987 4.13691 39.2497 5.83063C39.0817 5.97883 38.4852 6.67749 38.334 6.37262C38.25 6.19054 38.9472 5.65279 39.0817 5.52576C41.2155 3.67537 43.3494 1.84192 45.3824 0.0211715V0L45.3866 0Z" fill="#3374B0"/>
  <path d="M39.09 0.626663C38.8884 0.736755 38.6826 0.834144 38.4683 0.91883C38.4263 0.817207 38.3255 0.783332 38.3423 0.626663C38.6238 0.550446 39.0312 0.10161 39.09 0.626663Z" fill="#3374B0"/>
  <path d="M40.0856 0.62667C39.5395 0.923071 39.027 1.25335 38.5104 1.58362C38.4222 1.54975 38.4054 1.43542 38.3423 1.37614C38.7624 0.952711 39.4135 0.728293 39.8797 0.334503C40.01 0.368378 40.031 0.512344 40.0856 0.62667Z" fill="#3374B0"/>
  <path d="M40.8711 0.334503C40.9593 0.389549 41.0181 0.482704 41.0391 0.584327C40.64 0.948476 40.2074 1.27452 39.7537 1.56668C39.3505 1.9266 38.9178 2.25264 38.46 2.54057C38.4096 2.46859 38.3549 2.39661 38.2961 2.32886C39.1362 1.63443 40.031 1.02469 40.8627 0.334503" fill="#3374B0"/>
  <path d="M42.3622 0.626685C41.2071 1.35075 40.0856 2.17644 38.9262 2.95978C38.7918 3.04447 38.5986 3.1969 38.4264 3.16726C38.3928 3.12916 38.4264 3.0487 38.3423 3.04023C38.3928 2.84546 38.607 2.7269 38.7624 2.61681C39.8587 1.88004 41.0895 1.13057 42.1606 0.32605C42.2656 0.393799 42.337 0.495422 42.3664 0.618216" fill="#3374B0"/>
  <path d="M46.588 0.541984C45.9453 1.17713 45.269 1.77416 44.5591 2.32886C42.6731 3.89555 40.7787 5.54692 38.8842 7.16443C38.775 7.25758 38.5986 7.58786 38.3844 7.41425C38.25 7.17289 38.565 6.99082 38.6742 6.9146C39.8209 5.92801 41.0517 4.92872 42.2404 3.91672C43.6392 2.71418 45.059 1.50317 46.3822 0.334503C46.4998 0.334503 46.4788 0.512344 46.588 0.541984Z" fill="#3374B0"/>
  <path d="M43.3157 0.499661C43.2569 0.783359 42.9419 0.889217 42.7361 1.04165C41.5221 1.94779 40.2578 2.91321 39.006 3.83205C38.8506 3.95061 38.628 4.23008 38.3843 4.12422C38.2793 3.83629 38.649 3.70079 38.8044 3.58223C39.3799 3.1588 39.9805 2.70996 40.5854 2.24843C41.4255 1.61328 42.3202 1.02895 43.0721 0.372633C43.2527 0.317587 43.2233 0.474256 43.3199 0.499661" fill="#3374B0"/>
  <path d="M44.3113 0.541986C43.8913 0.990821 43.3788 1.43119 42.8621 1.87579C41.602 2.9259 40.3418 3.96753 39.0523 5.03881C38.8632 5.19548 38.5776 5.65278 38.3046 5.33098C38.7414 4.87367 39.2119 4.45024 39.7117 4.06069C41.1483 2.85815 42.6269 1.61326 44.0593 0.351443C44.2525 0.300631 44.1937 0.499643 44.3113 0.520814" fill="#3374B0"/>
  <path d="M47.5835 0.541992C46.8778 1.24912 46.0839 1.90544 45.3026 2.58292C43.2023 4.40791 41.0727 6.24136 38.964 8.12139C38.8422 8.23571 38.5692 8.54482 38.3423 8.32887C38.3423 8.13409 38.628 7.93508 38.8002 7.79111C41.5893 5.37756 44.5297 2.83698 47.3357 0.37262C47.4827 0.37262 47.4701 0.516586 47.5835 0.541992Z" fill="#3374B0"/>
  <path d="M48.495 0.499632C48.5916 0.66477 48.3648 0.757925 48.285 0.834142C47.6255 1.49469 46.7938 2.14254 46.0503 2.79039C43.9206 4.64501 41.8498 6.52927 39.6739 8.45588C39.5437 8.56597 39.2916 8.74804 39.006 8.99787C38.9178 9.07832 38.586 9.5568 38.3843 9.37049C38.1827 9.18418 38.6616 8.87084 38.8044 8.74381C40.1612 7.5328 41.8036 6.15242 43.1981 4.93294C45.0254 3.30274 46.6552 1.85884 48.3312 0.389541C48.4656 0.355666 48.4194 0.499633 48.4992 0.51657" fill="#3374B0"/>
  <path d="M49.8224 0.499649C49.7426 0.838392 49.4023 0.965421 49.1587 1.16867C45.7437 4.16232 42.2278 7.23642 38.7582 10.2428C38.586 10.3698 38.544 10.5307 38.3844 10.3698C38.1617 10.1454 39.0438 9.60339 39.2581 9.41285C40.7913 8.0494 42.3749 6.65632 43.8576 5.37333C45.9579 3.56528 47.7809 1.96048 49.6544 0.37262C49.7384 0.37262 49.7342 0.486946 49.8224 0.499649Z" fill="#3374B0"/>
  <path d="M50.6079 0.37262H50.6877C50.9901 0.702895 50.4063 0.935781 50.192 1.12209C48.3984 2.70148 46.546 4.40791 44.7314 5.99577C42.9167 7.58363 41.0769 9.15879 39.1825 10.8313C39.1069 10.8948 38.9724 11.0685 38.8086 11.204C38.6448 11.3395 38.5524 11.4538 38.4348 11.3733C38.1575 11.1658 38.7456 10.8271 38.9346 10.6662C42.7655 7.29993 46.8316 3.6669 50.6163 0.37262" fill="#3374B0"/>
  <path d="M51.7672 0.499641C51.8008 0.711356 51.5488 0.812979 51.4354 0.923071C49.3771 2.80733 47.2349 4.76781 45.1346 6.71136C43.4544 8.25688 41.8288 9.74735 40.094 11.331C39.8125 11.5893 39.2959 12.1101 38.8338 12.4996C38.7036 12.614 38.502 12.7876 38.376 12.6648C38.2499 12.542 38.502 12.3641 38.628 12.2413C41.7574 9.27734 44.954 6.38531 48.1128 3.49752C49.2763 2.43048 50.4567 1.40578 51.595 0.368378C51.679 0.368378 51.6748 0.482704 51.7588 0.495407" fill="#3374B0"/>
  <path d="M52.5569 0.37262H52.6367C52.8972 0.597037 52.5905 0.762175 52.4729 0.872267C51.4732 1.84616 50.3223 2.83698 49.2847 3.7897C46.2394 6.58857 43.2864 9.29429 40.2074 12.1609C39.884 12.4658 39.3295 12.9612 38.8422 13.4312C38.7162 13.5455 38.5608 13.8546 38.3844 13.681C38.208 13.5074 38.922 12.9612 39.0901 12.8045C42.9419 9.23924 46.7938 5.67819 50.6415 2.12138L52.5527 0.37262" fill="#3374B0"/>
  <path d="M53.8801 0.37262C54.2497 0.486946 53.9389 0.757941 53.6701 0.999296C48.7512 5.50459 43.8786 9.89132 38.8842 14.4093C38.817 14.4686 38.5524 14.8327 38.3844 14.6591C38.2163 14.4855 38.5146 14.3077 38.6742 14.1637C42.3791 10.7382 46.1763 7.41849 49.8644 4.00141C50.5071 3.40438 51.1539 2.79464 51.8092 2.2103C52.4645 1.62597 53.1912 0.965421 53.8801 0.376854" fill="#3374B0"/>
  <path d="M37.9727 15.8659V15.7855C43.5636 10.8821 49.1335 5.7163 54.7076 0.749467C54.905 0.575861 55.1276 0.326037 55.2873 0.457301C55.4931 0.664781 55.01 0.914605 54.9554 0.956948C53.6365 2.12138 52.4015 3.26887 51.2296 4.34439C49.814 5.61468 48.2892 6.91884 46.9198 8.15525C44.2567 10.5942 41.623 13.0247 38.9388 15.4001C38.7708 15.578 38.586 15.7431 38.397 15.8998C38.2037 16.0141 38.1365 16.0353 37.9769 15.8574" fill="#3374B0"/>
  <path d="M37.9727 16.5349V16.4502C43.8534 11.2759 49.8602 5.95765 55.6611 0.749468C55.7955 0.630908 56.0392 0.326038 56.2828 0.457302C56.3626 0.749468 56.0224 0.880731 55.8627 0.999292C55.2915 1.51164 54.7202 2.00282 54.1825 2.50247C49.1419 7.01199 44.0341 11.5469 38.9388 16.0522C38.607 16.3444 38.3172 16.8991 37.9853 16.5519" fill="#3374B0"/>
  <path d="M37.9727 17.8264V17.784C43.9332 12.3769 50.0828 6.82145 56.0349 1.41425C56.1987 1.26605 56.4256 0.880734 56.6146 1.12209C56.6692 1.39308 56.35 1.57516 56.1945 1.71066C53.2332 4.31051 50.3894 6.90191 47.4911 9.57798C44.6767 12.1821 41.7448 14.8581 38.8338 17.4495C38.4684 17.7756 38.1869 18.2414 37.9643 17.8264" fill="#3374B0"/>
  <path d="M56.9422 2.12138C57.1229 2.26534 56.8834 2.29498 56.8162 2.41778C50.9355 7.69371 44.8742 12.9315 38.9598 18.3218C38.8716 18.4107 38.775 18.4954 38.6742 18.5759C38.4726 18.7071 38.4642 18.6987 38.3802 18.5759C38.2415 18.3684 38.586 18.2244 38.8002 18.0339C44.5549 12.868 50.3096 7.68948 56.1147 2.58291C56.3248 2.3712 56.56 2.18912 56.8204 2.04092C56.8792 2.04092 56.8876 2.11714 56.9465 2.12138" fill="#3374B0"/>
  <path d="M56.7826 3.3324C56.8792 3.3578 56.8918 3.4679 56.9884 3.50177C57.022 3.6288 56.8456 3.69231 56.7826 3.74736C52.5359 7.55823 48.0455 11.2675 43.7274 15.0783C42.6353 16.0438 41.5095 16.9753 40.367 17.9492C40.0057 18.2625 39.6529 18.7961 39.0816 18.741C38.922 18.686 39.174 18.597 39.2497 18.5335C43.4502 14.7523 47.9237 11.0219 52.2167 7.24912C53.733 5.91109 55.2998 4.65773 56.7742 3.3324" fill="#3374B0"/>
  <path d="M56.6146 5.08115C56.686 5.3225 56.371 5.4707 56.2408 5.58079C51.3682 9.66266 46.4998 13.9266 41.5767 18.0339C41.2407 18.3133 40.9467 18.8299 40.4174 18.741C40.2788 18.7706 40.3544 18.6605 40.4174 18.6605C44.3491 15.2265 48.3984 11.8857 52.3889 8.45588C53.733 7.29568 55.1738 6.02116 56.4928 4.99646C56.5432 4.99646 56.5558 5.07268 56.6146 5.08115Z" fill="#3374B0"/>
  <path d="M56.9885 6.12279C56.9213 6.33874 56.6902 6.45306 56.5306 6.58009C52.8552 9.5441 49.1629 12.6394 45.4706 15.6627C44.3575 16.573 43.2234 17.4792 42.0766 18.4107C41.9632 18.4954 41.812 18.8045 41.6188 18.5759C41.5348 18.3387 41.833 18.2117 41.9506 18.1186C46.8232 14.151 51.805 10.0226 56.6986 6.0381C56.6986 6.00423 56.8331 5.91107 56.8204 5.99576C56.9087 5.99576 56.9045 6.11008 56.9885 6.12279Z" fill="#3374B0"/>
  <path d="M56.4508 7.29147H56.5222C56.812 7.63445 56.1819 7.88851 55.9425 8.07905C52.0864 11.187 48.1674 14.35 44.3029 17.4919C44.0172 17.7248 43.6896 17.9577 43.3914 18.199C43.0931 18.4404 42.8159 18.8511 42.3538 18.741C42.211 18.6606 42.4378 18.5716 42.4378 18.5759C43.4586 17.674 44.6431 16.7975 45.7521 15.9083C48.663 13.5752 51.6328 11.1786 54.5353 8.79042C55.1654 8.2696 55.8375 7.81653 56.4424 7.29147" fill="#3374B0"/>
  <path d="M56.6566 8.41356C56.5054 8.7523 56.1399 8.90897 55.8669 9.12069C52.0402 12.127 48.1631 15.2265 44.3113 18.2837C44.0298 18.5039 43.7484 18.8469 43.3157 18.741C43.2107 18.669 43.3913 18.6225 43.3997 18.6182C44.3365 17.7968 45.4328 16.9711 46.4661 16.1581C47.4995 15.3451 48.6756 14.4644 49.7803 13.5794C52.0234 11.8052 54.3505 9.87016 56.5012 8.28653C56.581 8.28653 56.581 8.40086 56.665 8.41356" fill="#3374B0"/>
  <path d="M56.9422 9.37051C57.022 9.54835 56.7784 9.67538 56.6944 9.74313C55.8753 10.4418 54.884 11.1023 54.0019 11.7841L45.5504 18.3218C45.2942 18.5251 45.0463 18.8596 44.6389 18.7453C44.5129 18.669 44.7817 18.5378 44.8867 18.4531C47.7305 16.2047 50.7675 13.952 53.628 11.6782C54.1195 11.2844 54.6529 10.8949 55.1612 10.5138C55.6905 10.0776 56.2407 9.67538 56.8162 9.30276C56.875 9.30276 56.8834 9.37898 56.9422 9.38745" fill="#3374B0"/>
  <path d="M56.9884 11.0769C56.5936 11.4495 56.1609 11.784 55.7031 12.0762L54.3799 13.0374C51.763 14.9344 49.0242 16.7974 46.3989 18.741H45.8571C49.4989 16.1369 53.2332 13.41 56.8372 10.9118C56.9464 10.9118 56.9002 11.0769 57.0052 11.0769" fill="#3374B0"/>
  <path d="M56.6566 12.0762C56.3206 12.4107 55.9425 12.7029 55.5393 12.9485C52.9601 14.8412 50.2928 16.8356 47.6633 18.741H47.2432C47.071 18.741 47.2432 18.6775 47.2432 18.6182C50.339 16.3994 53.4054 14.151 56.4424 11.8687C56.476 11.8687 56.4802 11.8687 56.4844 11.9111C56.581 11.9111 56.5768 12.0424 56.6482 12.0762" fill="#3374B0"/>
  <path d="M56.6566 13.3677C56.098 13.8885 55.4889 14.35 54.8336 14.7438C53.0316 16.0565 51.1581 17.4114 49.3225 18.741H48.7849C51.3304 16.8737 53.9011 15.0275 56.4928 13.2025C56.5978 13.2025 56.5474 13.3634 56.6566 13.3677Z" fill="#3374B0"/>
  <path d="M56.6566 14.367C56.2576 14.7904 55.8123 15.1672 55.3293 15.4933C53.9977 16.5646 52.5863 17.6401 51.2296 18.741H50.8095C50.6709 18.7156 50.9355 18.5166 51.0153 18.4488C51.7924 17.8179 52.6703 17.1531 53.4978 16.4926C54.485 15.7092 55.5309 14.964 56.4382 14.2018C56.5936 14.1722 56.5264 14.3627 56.644 14.367" fill="#3374B0"/>
  <path d="M56.6566 15.7008C56.1022 16.2428 55.5225 16.7593 54.9176 17.2421C54.3211 17.7417 53.6995 18.2117 53.0904 18.6987C53.0316 18.6351 53.019 18.525 52.9266 18.4912C54.0313 17.4495 55.2831 16.5561 56.4046 15.5272C56.5642 15.5272 56.5978 15.6161 56.6566 15.6923" fill="#3374B0"/>
  <path d="M56.6986 16.3867C55.9215 17.1785 55.1697 17.9915 54.38 18.7622H54.0481C53.9137 18.7241 54.1321 18.5547 54.2119 18.47C54.8756 17.7671 55.7493 16.9626 56.4046 16.2216C56.5894 16.192 56.5768 16.3571 56.6986 16.3867Z" fill="#3374B0"/>
  <path d="M56.6566 17.7417C56.2365 18.0593 55.8165 18.3768 55.3964 18.6987C55.2914 18.6351 55.22 18.5293 55.1906 18.4107C55.6191 18.144 56.0181 17.8349 56.3878 17.4919C56.5726 17.4919 56.5894 17.6274 56.6398 17.7417" fill="#3374B0"/>
  <path d="M57.3329 0.626663C57.3119 0.783332 57.4127 0.817207 57.4589 0.91883C57.69 0.846847 57.879 0.715584 58.0806 0.626663C58.0218 0.10161 57.6102 0.550446 57.3329 0.626663Z" fill="#FEFEFE"/>
  <path d="M58.8661 0.334503C58.3998 0.728293 57.7445 0.931539 57.3329 1.37614C57.3959 1.43542 57.4085 1.54975 57.5009 1.58362C58.0134 1.25335 58.5258 0.923071 59.0719 0.62667C59.0173 0.512344 58.9963 0.368378 58.8661 0.334503Z" fill="#FEFEFE"/>
  <path d="M57.2909 2.32886C57.3455 2.40084 57.4085 2.46435 57.4589 2.54057C57.9084 2.24841 58.3368 1.92236 58.7401 1.56668C59.1937 1.27028 59.6264 0.935773 60.0254 0.56739C60.0044 0.465766 59.9456 0.372612 59.8574 0.317566C59.0173 1.00776 58.1142 1.6175 57.2909 2.31192" fill="#FEFEFE"/>
  <path d="M61.1427 0.334503C60.0716 1.13902 58.8409 1.88849 57.7445 2.62526C57.5933 2.72688 57.3791 2.84544 57.3245 3.04869C57.3833 3.04869 57.3707 3.13761 57.4085 3.17572C57.5765 3.20536 57.7739 3.05292 57.9041 2.96824C59.0635 2.18489 60.185 1.3592 61.3402 0.635138C61.315 0.512344 61.2393 0.406486 61.1343 0.342972" fill="#FEFEFE"/>
  <path d="M65.3685 0.334503C64.0453 1.50317 62.6255 2.71418 61.2268 3.91672C60.0422 4.92872 58.8073 5.92801 57.6647 6.9146C57.5513 7.00776 57.2447 7.17289 57.3749 7.41425C57.5849 7.57092 57.7571 7.25758 57.8706 7.16443C59.765 5.54692 61.651 3.89555 63.5455 2.32886C64.2553 1.77416 64.9316 1.17713 65.5743 0.541984C65.4693 0.512344 65.4861 0.35144 65.3685 0.334503Z" fill="#FEFEFE"/>
  <path d="M62.0542 0.372633C61.3024 1.02895 60.4076 1.61328 59.5675 2.24843C58.9627 2.70996 58.362 3.15033 57.7865 3.58223C57.6353 3.69656 57.2657 3.83629 57.3665 4.12422C57.6059 4.23008 57.8285 3.95061 57.9881 3.83205C59.2483 2.91321 60.5085 1.94779 61.714 1.04165C61.9198 0.889217 62.2349 0.783359 62.2937 0.499661C62.1971 0.474256 62.2265 0.317587 62.0459 0.372633" fill="#FEFEFE"/>
  <path d="M63.0498 0.37262C61.6132 1.64291 60.1304 2.87932 58.7023 4.08186C58.2024 4.47142 57.7277 4.89485 57.2909 5.35215C57.5639 5.67396 57.8496 5.21666 58.0344 5.05999C59.3323 3.98871 60.6009 2.94284 61.8485 1.89697C62.3651 1.47354 62.8608 1.012 63.2934 0.563163C63.18 0.563163 63.2388 0.34298 63.0498 0.393791" fill="#FEFEFE"/>
  <path d="M66.322 0.372617C63.5202 2.83698 60.5799 5.37756 57.7823 7.79111C57.6101 7.93507 57.3035 8.13408 57.3287 8.32886C57.5471 8.55751 57.8243 8.23147 57.9461 8.12138C60.0464 6.24135 62.1929 4.4079 64.2847 2.58292C65.0618 1.90543 65.8599 1.24912 66.5656 0.541989C66.4522 0.516583 66.4606 0.368383 66.3178 0.372617" fill="#FEFEFE"/>
  <path d="M67.3175 0.372605C65.6373 1.84191 64.0075 3.2858 62.1803 4.91601C60.7857 6.15242 59.1433 7.5328 57.7865 8.72688C57.6521 8.8539 57.1985 9.17571 57.3665 9.35355C57.5345 9.53139 57.8915 9.05715 57.9882 8.98093C58.2696 8.73111 58.5216 8.5575 58.6476 8.43894C60.8319 6.51234 62.8986 4.62808 65.0282 2.77345C65.7717 2.12984 66.6034 1.47776 67.2671 0.817207C67.3427 0.740989 67.5695 0.647835 67.4729 0.482697C67.3931 0.482697 67.4393 0.321794 67.3091 0.355668" fill="#FEFEFE"/>
  <path d="M68.6407 0.37262C66.7672 1.96048 64.9316 3.56528 62.844 5.37333C61.3612 6.64361 59.7818 8.0494 58.2234 9.41285C58.0092 9.60339 57.127 10.1454 57.3539 10.3698C57.5093 10.5307 57.5513 10.3698 57.7235 10.2428C61.1932 7.23642 64.709 4.16232 68.124 1.16867C68.3508 0.965421 68.7079 0.838392 68.7877 0.499649C68.7037 0.499649 68.7037 0.389557 68.6197 0.37262" fill="#FEFEFE"/>
  <path d="M57.9125 10.6662C57.7235 10.8271 57.1354 11.1701 57.4169 11.3733C57.5345 11.4538 57.5975 11.3733 57.7865 11.204C57.9756 11.0346 58.0848 10.8948 58.1604 10.8313C60.0548 9.15879 61.8778 7.6048 63.7135 5.99577C65.5491 4.38673 67.3847 2.70148 69.1741 1.12209C69.3842 0.935781 69.9722 0.698661 69.6698 0.37262H69.5858C65.8053 3.6669 61.735 7.29993 57.9041 10.6662" fill="#FEFEFE"/>
  <path d="M70.5897 0.37262C69.4472 1.41002 68.271 2.43472 67.1075 3.50177C63.9487 6.38956 60.7521 9.30275 57.6227 12.2456C57.4967 12.3599 57.2027 12.4827 57.3749 12.669C57.5471 12.8553 57.6983 12.6182 57.8285 12.5039C58.2738 12.1143 58.7905 11.5935 59.0887 11.3352C60.8361 9.75159 62.4701 8.26112 64.1293 6.7156C66.2296 4.77205 68.3676 2.81157 70.4301 0.927313C70.5393 0.821455 70.7913 0.719832 70.7577 0.503883C70.6737 0.503883 70.6779 0.393791 70.5939 0.376854" fill="#FEFEFE"/>
  <path d="M69.6362 2.12138C65.7886 5.68242 61.9367 9.235 58.0806 12.7876C57.9084 12.94 57.1607 13.4481 57.3749 13.6598C57.5891 13.8716 57.7068 13.5243 57.8286 13.41C58.3158 12.9612 58.8703 12.4658 59.1937 12.1397C62.2727 9.27734 65.2257 6.56739 68.2711 3.76852C69.3086 2.8158 70.4595 1.82498 71.4551 0.851088C71.5727 0.740996 71.8751 0.575858 71.6273 0.35144H71.5433L69.6362 2.10021" fill="#FEFEFE"/>
  <path d="M70.804 2.20606C70.1487 2.7904 69.5018 3.40014 68.8549 3.99717C65.1711 7.41848 61.3738 10.7382 57.6731 14.1595C57.5135 14.3035 57.2279 14.4982 57.3833 14.6549C57.5387 14.8116 57.8034 14.4644 57.879 14.4051C62.8692 9.87014 67.746 5.51305 72.669 0.995054C72.9336 0.753699 73.2487 0.482704 72.8748 0.368378C72.1859 0.956945 71.5013 1.58362 70.804 2.20183" fill="#FEFEFE"/>
  <path d="M75.8109 2.04092C75.5505 2.18489 75.3111 2.36696 75.1053 2.58291C69.2959 7.68948 63.5454 12.868 57.7865 18.0339C57.5723 18.2244 57.2321 18.3684 57.3665 18.5759C57.4505 18.6987 57.4547 18.7071 57.6563 18.5759C57.7571 18.4996 57.8537 18.415 57.9419 18.3218C63.8563 12.9315 69.9134 7.69371 75.8026 2.41778C75.8656 2.29498 76.105 2.26534 75.9244 2.12138C75.8656 2.12138 75.853 2.05363 75.8026 2.04092" fill="#FEFEFE"/>
  <path d="M71.224 7.24912C66.9353 11.0219 62.4743 14.7523 58.257 18.5335C58.1814 18.597 57.9293 18.686 58.0932 18.741C58.6602 18.7961 59.0131 18.2625 59.3533 17.9492C60.4875 16.9753 61.6132 16.0438 62.7137 15.0783C67.0277 11.2675 71.5348 7.56246 75.7647 3.74736C75.8278 3.69231 76.0042 3.6288 75.9706 3.50177C75.874 3.4679 75.8572 3.3578 75.7647 3.3324C74.2904 4.65773 72.7236 5.91109 71.2072 7.24912" fill="#FEFEFE"/>
  <path d="M75.4749 4.99646C74.1644 6.02116 72.7194 7.29568 71.3752 8.45588C67.3931 11.8857 63.3354 15.2308 59.4037 18.6605C59.3407 18.6605 59.2651 18.7706 59.4037 18.741C59.9372 18.8299 60.2438 18.3176 60.5631 18.0339C65.4861 13.9266 70.3545 9.66266 75.2313 5.58079C75.3573 5.4707 75.6723 5.3225 75.6009 5.08115C75.5421 5.08115 75.5337 5.0134 75.4749 4.99646Z" fill="#FEFEFE"/>
  <path d="M75.811 5.99577C75.811 5.91108 75.6892 5.99577 75.685 6.03811C70.804 10.0353 65.8138 14.151 60.937 18.1186C60.8194 18.2117 60.5169 18.3387 60.6051 18.5759C60.7983 18.8045 60.9496 18.4954 61.063 18.4107C62.2097 17.4792 63.3439 16.573 64.457 15.6627C68.1493 12.6394 71.8373 9.53141 75.517 6.5801C75.6766 6.45307 75.9076 6.33875 75.9748 6.1228C75.8866 6.1228 75.895 6.00847 75.811 5.99577Z" fill="#FEFEFE"/>
  <path d="M73.5301 8.79042C70.6233 11.1786 67.6494 13.5752 64.7468 15.9083C63.6379 16.7975 62.4533 17.674 61.4326 18.5759C61.4326 18.5759 61.2058 18.6606 61.3486 18.741C61.8106 18.8511 62.0921 18.4404 62.3861 18.199C62.6802 17.9577 63.012 17.7248 63.2934 17.4919C67.1621 14.35 71.077 11.187 74.9373 8.07905C75.1767 7.88851 75.811 7.65562 75.5169 7.29147H75.4245C74.8281 7.81653 74.1644 8.2696 73.5217 8.79042" fill="#FEFEFE"/>
  <path d="M75.4749 8.28653C73.3369 9.87016 71.0098 11.8052 68.7541 13.5794C67.6494 14.4517 66.5278 15.3028 65.4399 16.1581C64.352 17.0134 63.3144 17.7968 62.3735 18.6182C62.3735 18.6182 62.1845 18.669 62.2895 18.741C62.7096 18.8469 63.0078 18.5039 63.2808 18.2837C67.1369 15.2265 71.0182 12.127 74.8407 9.12069C75.1137 8.90897 75.4791 8.7523 75.6304 8.41356C75.5464 8.41356 75.5464 8.29923 75.4623 8.28653" fill="#FEFEFE"/>
  <path d="M75.811 9.28583C75.2397 9.65421 74.6894 10.0607 74.1644 10.4968C73.6603 10.8779 73.1268 11.2675 72.6312 11.6613C69.7538 13.9478 66.7505 16.2004 63.8899 18.4361C63.7849 18.5208 63.5161 18.6521 63.6421 18.7283C64.0621 18.8469 64.2973 18.5124 64.5536 18.3049C67.3931 16.1157 70.2117 13.9393 73.005 11.7714C73.8871 11.0854 74.8785 10.4249 75.6976 9.72619C75.7816 9.65845 76.0252 9.53142 75.9454 9.35358C75.8866 9.35358 75.874 9.28583 75.8236 9.26889" fill="#FEFEFE"/>
  <path d="M75.811 10.9118C72.2027 13.41 68.4685 16.1369 64.8308 18.741H65.3685C68.0106 16.7974 70.7493 14.9301 73.3495 13.0374L74.6726 12.0762C75.1305 11.784 75.5631 11.4495 75.958 11.0769C75.853 11.0769 75.895 10.916 75.7942 10.9118" fill="#FEFEFE"/>
  <path d="M75.475 11.9111C75.475 11.8857 75.475 11.8603 75.433 11.8687C72.3918 14.1468 69.338 16.3994 66.238 18.6182C66.238 18.6775 66.0616 18.7452 66.238 18.741H66.6581C69.2834 16.8356 71.9507 14.8412 74.5298 12.9485C74.9331 12.7029 75.3111 12.4107 75.6472 12.0762C75.5758 12.0423 75.58 11.928 75.4792 11.9111" fill="#FEFEFE"/>
  <path d="M75.4749 13.2025C72.8916 15.0318 70.3209 16.8779 67.7712 18.741H68.3088C70.1445 17.4114 72.0179 16.0565 73.8199 14.7438C74.4752 14.3543 75.0885 13.8927 75.643 13.3677C75.5379 13.3677 75.5841 13.2068 75.4749 13.2025Z" fill="#FEFEFE"/>
  <path d="M75.4246 14.2018C74.5173 14.964 73.4713 15.7092 72.4842 16.4926C71.6441 17.1489 70.7788 17.8179 70.0017 18.4488C69.9219 18.5166 69.6531 18.7156 69.7959 18.741H70.2159C71.5727 17.6401 72.9841 16.5646 74.3156 15.4933C74.7987 15.1673 75.2439 14.7904 75.643 14.367C75.5254 14.367 75.5884 14.1722 75.433 14.2018" fill="#FEFEFE"/>
  <path d="M75.3909 15.5399C74.2694 16.5604 73.0218 17.4538 71.9129 18.5039C72.0053 18.5378 72.0179 18.6479 72.0809 18.7114C72.6858 18.2244 73.3033 17.7544 73.904 17.2548C74.5088 16.7721 75.0885 16.2555 75.643 15.7135C75.5842 15.6373 75.5506 15.5272 75.3909 15.5484" fill="#FEFEFE"/>
  <path d="M75.3909 16.2004C74.7356 16.9414 73.8619 17.7459 73.1983 18.4488C73.1226 18.5335 72.9 18.7029 73.0344 18.741H73.3663C74.156 17.9703 74.9121 17.1574 75.685 16.3656C75.5631 16.3359 75.5758 16.1708 75.3909 16.2004Z" fill="#FEFEFE"/>
  <path d="M75.3909 17.4919C75.0213 17.8349 74.6222 18.144 74.1938 18.4107C74.219 18.5293 74.2946 18.6352 74.3996 18.6987C74.8197 18.3769 75.2397 18.0593 75.6598 17.7417C75.6094 17.6274 75.5926 17.475 75.4077 17.4919" fill="#FEFEFE"/>
  <path d="M64.373 0H64.457C64.7762 0.342978 64.3436 0.48271 64.0369 0.749471C62.0711 2.47706 60.1851 4.13691 58.236 5.83063C58.0638 5.97883 57.4715 6.67749 57.3245 6.37262C57.2363 6.19054 57.9336 5.65279 58.0722 5.52576C60.2019 3.67537 62.3399 1.84192 64.373 0.0211715V0Z" fill="#1D1D1B"/>
  <path d="M58.0806 0.626663C57.8664 0.715584 57.69 0.846847 57.4589 0.91883C57.4127 0.817207 57.3119 0.783332 57.3329 0.626663C57.6102 0.550446 58.0218 0.10161 58.0806 0.626663Z" fill="#1D1D1B"/>
  <path d="M59.0719 0.62667C58.5258 0.923071 58.0134 1.25335 57.5009 1.58362C57.4085 1.54975 57.3959 1.43542 57.3329 1.37614C57.7529 0.952711 58.3998 0.728293 58.8661 0.334503C58.9963 0.368378 59.0173 0.512344 59.0719 0.62667Z" fill="#1D1D1B"/>
  <path d="M59.8574 0.334503C59.9456 0.389549 60.0044 0.482704 60.0254 0.584327C59.6264 0.948476 59.1937 1.27452 58.7401 1.56668C58.3368 1.91813 57.9084 2.23994 57.4589 2.52364C57.4085 2.44742 57.3455 2.3839 57.2909 2.31192C58.131 1.6175 59.0257 1.00776 59.8574 0.317566" fill="#1D1D1B"/>
  <path d="M61.3486 0.626685C60.1934 1.35075 59.0719 2.17644 57.9126 2.95978C57.7823 3.04447 57.5849 3.1969 57.4169 3.16726C57.3791 3.12916 57.3917 3.0487 57.3329 3.04023C57.3791 2.84546 57.5933 2.7269 57.7529 2.61681C58.8493 1.88004 60.08 1.13057 61.1512 0.32605C61.2562 0.389564 61.3318 0.495422 61.357 0.618216" fill="#1D1D1B"/>
  <path d="M65.5743 0.541984C64.9316 1.17713 64.2553 1.77416 63.5454 2.32886C61.6552 3.89555 59.765 5.54692 57.8705 7.16443C57.7571 7.25758 57.5849 7.58786 57.3749 7.41425C57.2363 7.17289 57.5513 6.99082 57.6647 6.9146C58.8073 5.92801 60.0422 4.92872 61.2268 3.91672C62.6255 2.71418 64.0453 1.50317 65.3685 0.334503C65.4861 0.334503 65.4693 0.512344 65.5743 0.541984Z" fill="#1D1D1B"/>
  <path d="M62.3021 0.499661C62.2433 0.783359 61.9283 0.889217 61.7224 1.04165C60.5127 1.94779 59.2483 2.91321 57.9966 3.83205C57.837 3.95061 57.6143 4.23008 57.3749 4.12422C57.2657 3.83629 57.6353 3.70079 57.7949 3.58223C58.3704 3.1588 58.9711 2.70996 59.576 2.24843C60.4161 1.61328 61.3108 1.02895 62.0627 0.372633C62.2433 0.317587 62.2139 0.474256 62.3105 0.499661" fill="#1D1D1B"/>
  <path d="M63.2934 0.541986C62.8734 0.990821 62.3651 1.43119 61.8485 1.87579C60.5883 2.9259 59.3281 3.96753 58.0344 5.03881C57.8496 5.19548 57.5639 5.65278 57.2909 5.33098C57.7277 4.87367 58.2024 4.45024 58.7023 4.06069C60.1304 2.85815 61.6132 1.61326 63.0498 0.351443C63.2388 0.300631 63.18 0.499643 63.2934 0.520814" fill="#1D1D1B"/>
  <path d="M66.5698 0.541992C65.8641 1.24912 65.066 1.90544 64.2889 2.58292C62.1887 4.40791 60.0548 6.24136 57.9504 8.12139C57.8285 8.23571 57.5303 8.54482 57.3329 8.32887C57.3077 8.13409 57.6143 7.93508 57.7865 7.79111C60.5799 5.37756 63.5202 2.83698 66.322 0.37262C66.4648 0.37262 66.4564 0.516586 66.5698 0.541992Z" fill="#1D1D1B"/>
  <path d="M67.4813 0.499632C67.5779 0.66477 67.3511 0.757925 67.2755 0.834142C66.6118 1.49469 65.7801 2.14254 65.0366 2.79039C62.907 4.64501 60.8361 6.52927 58.656 8.45588C58.53 8.56597 58.278 8.74804 57.9966 8.99787C57.8999 9.07832 57.5765 9.5568 57.3749 9.37049C57.1732 9.18418 57.6521 8.87084 57.7949 8.74381C59.1517 7.5328 60.7941 6.15242 62.1887 4.93294C64.0159 3.30274 65.6457 1.85884 67.3259 0.389541C67.4561 0.355666 67.4099 0.499633 67.4897 0.51657" fill="#1D1D1B"/>
  <path d="M68.8087 0.499649C68.7289 0.838392 68.3887 0.965421 68.1451 1.16867C64.73 4.16232 61.2142 7.23642 57.7446 10.2428C57.5724 10.3698 57.5304 10.5307 57.3749 10.3698C57.1481 10.1454 58.0302 9.60339 58.2444 9.41285C59.7818 8.0494 61.3612 6.65632 62.865 5.37333C64.9653 3.56528 66.7883 1.96048 68.6617 0.37262C68.7457 0.37262 68.7457 0.486946 68.8298 0.499649" fill="#1D1D1B"/>
  <path d="M69.5942 0.37262H69.6782C69.9807 0.702895 69.3926 0.935781 69.1826 1.12209C67.3847 2.70148 65.5323 4.40791 63.7219 5.99577C61.9115 7.58363 60.0632 9.15879 58.1688 10.8313C58.0932 10.8948 57.9588 11.0685 57.7949 11.204C57.6311 11.3395 57.5429 11.4538 57.4253 11.3733C57.1439 11.1658 57.7319 10.8271 57.921 10.6662C61.7518 7.29993 65.8221 3.6669 69.6026 0.37262" fill="#1D1D1B"/>
  <path d="M70.7535 0.499641C70.7871 0.711356 70.5351 0.812979 70.4259 0.923071C68.3635 2.80733 66.2254 4.76781 64.1251 6.71136C62.4449 8.25688 60.8193 9.74735 59.0845 11.331C58.7989 11.5893 58.2864 12.1101 57.8243 12.4996C57.6941 12.614 57.4967 12.7876 57.3707 12.6648C57.2447 12.542 57.4925 12.3641 57.6185 12.2413C60.7479 9.27734 63.9445 6.38531 67.1033 3.49752C68.2668 2.43048 69.443 1.40578 70.5855 0.368378C70.6695 0.368378 70.6653 0.482704 70.7493 0.495407" fill="#1D1D1B"/>
  <path d="M71.5432 0.37262H71.6272C71.8835 0.597037 71.5726 0.762175 71.455 0.872267C70.4595 1.84616 69.3086 2.83698 68.2668 3.7897C65.2257 6.58857 62.2727 9.29429 59.1937 12.1609C58.8703 12.4658 58.3158 12.9612 57.8285 13.4312C57.7067 13.5455 57.5471 13.8546 57.3749 13.681C57.2027 13.5074 57.9084 12.9612 58.0806 12.8045C61.9282 9.25194 65.7801 5.69937 69.6362 2.14256L71.5432 0.393791" fill="#1D1D1B"/>
  <path d="M72.8664 0.37262C73.2403 0.486946 72.9252 0.757941 72.6606 0.999296C67.7376 5.50459 62.865 9.89132 57.8706 14.4093C57.8076 14.4686 57.5387 14.8327 57.3749 14.6591C57.2111 14.4855 57.5051 14.3077 57.6647 14.1637C61.3654 10.7382 65.1627 7.41849 68.8465 4.00141C69.4934 3.40438 70.1403 2.79464 70.7956 2.2103C71.4509 1.62597 72.1775 0.965421 72.8664 0.376854" fill="#1D1D1B"/>
  <path d="M56.9423 15.8659V15.7855C62.55 10.8821 68.124 5.7163 73.6939 0.749467C73.8914 0.575861 74.135 0.326037 74.2736 0.457301C74.4752 0.664781 73.9964 0.914605 73.946 0.956948C72.6228 2.12138 71.3879 3.26887 70.2159 4.34439C68.8003 5.61468 67.2755 6.91884 65.9062 8.15525C63.243 10.5942 60.6093 13.0247 57.9252 15.4001C57.7572 15.578 57.5765 15.7431 57.3875 15.8998C57.1901 16.0141 57.1229 16.0353 56.9675 15.8574" fill="#1D1D1B"/>
  <path d="M56.9423 16.5349V16.4502C62.823 11.2759 68.8255 5.95765 74.6306 0.749468C74.7651 0.630908 75.0087 0.326038 75.2523 0.457302C75.3321 0.749468 74.9961 0.880731 74.8323 0.999292C74.2568 1.51164 73.6897 2.00282 73.1521 2.50247C68.1114 7.01199 63.0036 11.5469 57.9084 16.0522C57.5765 16.3444 57.2867 16.8991 56.9549 16.5519" fill="#1D1D1B"/>
  <path d="M56.9422 17.8264V17.784C62.907 12.3769 69.0523 6.82145 75.0045 1.41425C75.1683 1.26605 75.3951 0.880734 75.5841 1.12209C75.643 1.39308 75.3195 1.57516 75.1641 1.71066C72.2027 4.31051 69.359 6.90191 66.4606 9.57798C63.6463 12.1821 60.7143 14.8581 57.8033 17.4495C57.4379 17.7756 57.1523 18.2414 56.9338 17.8264" fill="#1D1D1B"/>
  <path d="M75.9328 2.12138C76.1134 2.26534 75.874 2.29498 75.811 2.41778C69.9302 7.69371 63.8647 12.9315 57.9504 18.3218C57.8621 18.415 57.7655 18.4996 57.6647 18.5759C57.4631 18.7071 57.4589 18.6987 57.3749 18.5759C57.2321 18.3684 57.5723 18.2244 57.7949 18.0339C63.5538 12.868 69.3044 7.68948 75.1137 2.58291C75.3195 2.36696 75.5589 2.18489 75.8194 2.04092C75.8698 2.04092 75.8824 2.11714 75.9412 2.12138" fill="#1D1D1B"/>
  <path d="M75.769 3.3324C75.8614 3.3578 75.8782 3.4679 75.9748 3.50177C76.0084 3.6288 75.832 3.69231 75.769 3.74736C71.5222 7.55823 67.0319 11.2675 62.7179 15.0783C61.6216 16.0438 60.4959 16.9753 59.3575 17.9492C58.9963 18.2625 58.6434 18.7961 58.0974 18.741C57.9336 18.686 58.1856 18.597 58.2612 18.5335C62.4617 14.7523 66.9395 11.0219 71.2282 7.24912C72.7446 5.91109 74.3114 4.65773 75.7858 3.3324" fill="#1D1D1B"/>
  <path d="M75.6009 5.08115C75.6723 5.3225 75.3573 5.4707 75.2313 5.58079C70.3545 9.66266 65.4861 13.9266 60.5631 18.0339C60.227 18.3133 59.9372 18.8299 59.4037 18.741C59.2651 18.7706 59.3407 18.6605 59.4037 18.6605C63.3354 15.2265 67.3847 11.8857 71.3752 8.45588C72.7194 7.29568 74.1644 6.02116 75.4749 4.99646C75.5337 4.99646 75.5421 5.07268 75.6009 5.08115Z" fill="#1D1D1B"/>
  <path d="M75.9748 6.12279C75.9076 6.33874 75.6766 6.45306 75.5169 6.58009C71.8373 9.5441 68.1492 12.6394 64.457 15.6627C63.3438 16.573 62.2097 17.4792 61.063 18.4107C60.9495 18.4954 60.7983 18.8045 60.6051 18.5759C60.5211 18.3387 60.8193 18.2117 60.9369 18.1186C65.8137 14.151 70.804 10.0353 75.685 6.0381C75.685 6.00423 75.8194 5.91107 75.8068 5.99576C75.895 5.99576 75.8866 6.11008 75.9748 6.12279Z" fill="#1D1D1B"/>
  <path d="M75.4245 7.29147H75.5085C75.8026 7.63445 75.1683 7.88851 74.9289 8.07905C71.0686 11.187 67.1537 14.35 63.285 17.4919C63.0036 17.7248 62.6759 17.9577 62.3777 18.199C62.0795 18.4404 61.8022 18.8511 61.3402 18.741C61.1974 18.6606 61.4242 18.5716 61.4242 18.5759C62.4449 17.674 63.6295 16.7975 64.7384 15.9083C67.6493 13.5752 70.6191 11.1786 73.5217 8.79042C74.156 8.2696 74.828 7.81653 75.4245 7.29147Z" fill="#1D1D1B"/>
  <path d="M75.643 8.41356C75.4918 8.7523 75.1263 8.90897 74.8533 9.12069C71.0308 12.127 67.1495 15.2265 63.2934 18.2837C63.0204 18.5039 62.7348 18.8469 62.3021 18.741C62.1971 18.669 62.3819 18.6225 62.3861 18.6182C63.3271 17.7968 64.4192 16.9711 65.4525 16.1581C66.4858 15.3451 67.662 14.4644 68.7667 13.5794C71.0098 11.8052 73.3369 9.87016 75.4876 8.28653C75.5716 8.28653 75.5716 8.40086 75.6556 8.41356" fill="#1D1D1B"/>
  <path d="M75.9328 9.37051C76.0126 9.54835 75.769 9.67538 75.685 9.74313C74.8449 10.4418 73.8746 11.1023 72.9925 11.7841C70.1907 13.952 67.3764 16.1327 64.541 18.3218C64.2848 18.5251 64.0369 18.8596 63.6295 18.7453C63.5035 18.669 63.7723 18.5378 63.8773 18.4531C66.7211 16.2047 69.7581 13.952 72.6186 11.6782C73.1143 11.2844 73.6477 10.8949 74.1518 10.5138C74.6811 10.0776 75.2355 9.67115 75.811 9.30276C75.8614 9.30276 75.874 9.37898 75.9328 9.38745" fill="#1D1D1B"/>
  <path d="M75.9748 11.0769C75.58 11.4495 75.1473 11.784 74.6895 12.0762L73.3663 13.0374C70.7494 14.9344 68.0106 16.7974 65.3853 18.741H64.8477C68.4853 16.1369 72.2196 13.41 75.8236 10.9118C75.9328 10.9118 75.8866 11.0769 75.9916 11.0769" fill="#1D1D1B"/>
  <path d="M75.643 12.0762C75.3069 12.4107 74.9289 12.7029 74.5256 12.9485C71.9465 14.8412 69.2792 16.8356 66.6539 18.741H66.2338C66.0574 18.741 66.2338 18.6775 66.2338 18.6182C69.3338 16.3994 72.3876 14.1468 75.4287 11.8687C75.4666 11.8687 75.4707 11.8687 75.4707 11.9111C75.5716 11.9111 75.5674 12.0424 75.6388 12.0762" fill="#1D1D1B"/>
  <path d="M75.643 13.3677C75.0885 13.8927 74.4752 14.3543 73.8199 14.7438C72.0179 16.0565 70.1445 17.4114 68.3088 18.741H67.7712C70.3167 16.8737 72.8832 15.0275 75.4749 13.2025C75.5841 13.2025 75.5379 13.3634 75.643 13.3677Z" fill="#1D1D1B"/>
  <path d="M75.643 14.367C75.2439 14.7904 74.7987 15.1672 74.3156 15.4933C72.9841 16.5646 71.5727 17.6401 70.2159 18.741H69.7959C69.6531 18.7156 69.9219 18.5166 70.0017 18.4488C70.7788 17.8179 71.6567 17.1531 72.4842 16.4926C73.4713 15.7092 74.5173 14.964 75.4246 14.2018C75.5842 14.1722 75.517 14.3627 75.6346 14.367" fill="#1D1D1B"/>
  <path d="M75.643 15.7008C75.0885 16.2428 74.5088 16.7593 73.904 17.2421C73.3033 17.7417 72.6858 18.2117 72.0809 18.6987C72.0179 18.6351 72.0053 18.525 71.9129 18.4912C73.0218 17.4495 74.2694 16.5561 75.3909 15.5272C75.5506 15.5272 75.5842 15.6161 75.643 15.6923" fill="#1D1D1B"/>
  <path d="M75.685 16.3867C74.9121 17.1785 74.156 17.9915 73.3663 18.7622H73.0344C72.9 18.7241 73.1226 18.5547 73.1983 18.47C73.8619 17.7671 74.7356 16.9626 75.3909 16.2216C75.5758 16.192 75.5631 16.3571 75.685 16.3867Z" fill="#1D1D1B"/>
  <path d="M75.643 17.7417C75.2229 18.0593 74.8029 18.3768 74.3828 18.6987C74.2778 18.6351 74.2064 18.5293 74.177 18.4107C74.6055 18.144 75.0045 17.8349 75.3742 17.4919C75.559 17.4919 75.5758 17.6274 75.6262 17.7417" fill="#1D1D1B"/>
</svg>