<svg xmlns="http://www.w3.org/2000/svg" width="20" height="20" viewBox="0 0 20 20" fill="none">
  <g clip-path="url(#clip0_5321_25305)">
    <path d="M0.5 12.878V20.0012H9.60411C9.37694 19.7724 9.23599 19.4556 9.23599 19.1056V13.7652C9.23599 13.0696 9.79269 12.5044 10.477 12.5044H13.8463C14.0357 12.5044 14.2109 12.392 14.292 12.218L14.3377 12.12C14.3707 12.0492 14.4101 11.9832 14.4558 11.9224C14.04 9.99639 12.3947 8.53839 10.3982 8.44119L8.32967 12.9288L8.16117 10.418H8.16274L8.55842 9.19399L7.53832 8.43599L7.53478 8.43359L7.53123 8.43599L6.50641 9.18759L6.89461 10.4144H6.90209L6.7324 12.9408L4.65835 8.44119C2.34334 8.55439 0.5 10.4976 0.5 12.878Z" fill="white"/>
    <path d="M4.03711 3.5464C4.03711 5.5052 5.60013 7.0928 7.52773 7.0928C9.45532 7.0928 11.0183 5.5048 11.0183 3.5464C11.0183 1.588 9.45611 0 7.52812 0C5.60013 0 4.0375 1.588 4.0375 3.5464H4.03711Z" fill="white"/>
    <path d="M19.0809 14.4513C19.0809 14.6901 18.8904 14.8837 18.6553 14.8837H11.0186C10.7835 14.8837 10.593 14.6901 10.593 14.4513C10.593 14.2125 10.7835 14.0189 11.0186 14.0189H18.6553C18.8904 14.0189 19.0809 14.2125 19.0809 14.4513ZM15.0214 12.4469L14.9754 12.5453C14.8793 12.7505 14.7336 12.9213 14.5564 13.0453C14.3513 13.1893 14.1049 13.2705 13.8454 13.2705H10.4761C10.2087 13.2705 9.99219 13.4909 9.99219 13.7621V19.1025C9.99219 19.3741 10.2091 19.5941 10.4761 19.5941H19.1061C19.3735 19.5941 19.59 19.3737 19.59 19.1025V12.6093C19.59 12.4001 19.4231 12.2305 19.2172 12.2305H15.3576C15.2139 12.2305 15.0828 12.3145 15.021 12.4465L15.0214 12.4469Z" fill="white"/>
  </g>
  <defs>
    <clipPath id="clip0_5321_25305">
      <rect width="19.0909" height="20" fill="white" transform="translate(0.5)"/>
    </clipPath>
  </defs>
</svg>