<svg width="25" height="21" viewBox="0 0 25 21" fill="none" xmlns="http://www.w3.org/2000/svg">
<g id="Capa_2">
<path id="Vector" d="M1.82671 18.8177L1.48828 20.3763L6.86012 18.1811L7.93449 7.75391L3.63702 10.4979L2.0953 17.5829" stroke="#74B160" stroke-linecap="round" stroke-linejoin="round"/>
<path id="Vector_2" d="M17.0676 7.75391L15.7461 8.59906" stroke="#74B160" stroke-linecap="round" stroke-linejoin="round"/>
<path id="Vector_3" d="M12.7695 20.3788L18.1414 18.1836" stroke="#74B160" stroke-linecap="round" stroke-linejoin="round"/>
<path id="Vector_4" d="M12.7683 12.1445V20.3765L7.39648 18.1813" stroke="#74B160" stroke-linecap="round" stroke-linejoin="round"/>
<path id="Vector_5" d="M7.93359 7.75391L9.88894 8.65942" stroke="#74B160" stroke-linecap="round" stroke-linejoin="round"/>
<path id="Vector_6" d="M21.9655 13.2638L23.5126 20.3763L18.1408 18.1811L17.0664 7.75391L21.3639 10.4979L21.5573 11.387" stroke="#74B160" stroke-linecap="round" stroke-linejoin="round"/>
<path id="Vector_7" d="M7.39708 11.0469L3.09961 13.2421" stroke="#74B160" stroke-linecap="round" stroke-linejoin="round"/>
<path id="Vector_8" d="M7.39716 12.6953L2.5625 15.4393" stroke="#74B160" stroke-linecap="round" stroke-linejoin="round"/>
<path id="Vector_9" d="M7.39648 11.0469L11.694 11.5957" stroke="#74B160" stroke-linecap="round" stroke-linejoin="round"/>
<path id="Vector_10" d="M7.39648 12.6953L12.7683 20.3785" stroke="#74B160" stroke-linecap="round" stroke-linejoin="round"/>
<path id="Vector_11" d="M18.9406 8.95312L17.2485 9.52936L14.0469 10.9288" stroke="#74B160" stroke-linecap="round" stroke-linejoin="round"/>
<path id="Vector_12" d="M14.6433 19.6136L12.7685 17.9782L9.57227 12.8634L12.7685 13.072L15.7445 11.7109L17.6623 13.5275L23.5122 20.3765" stroke="#74B160" stroke-linecap="round" stroke-linejoin="round"/>
<path id="Vector_13" d="M22.7879 17.0419L17.3945 10.9283L20.9131 10.2148" stroke="#74B160" stroke-linecap="round" stroke-linejoin="round"/>
<path id="Vector_14" d="M17.0656 5.01148C17.0656 7.43717 13.3054 12.1459 12.7682 12.1459C12.231 12.1459 8.4707 7.43717 8.4707 5.01148C8.4707 2.58579 10.3938 0.621094 12.7682 0.621094C15.1425 0.621094 17.0656 2.58579 17.0656 5.01148Z" stroke="#E95F61" stroke-linecap="round" stroke-linejoin="round"/>
<path id="Vector_15" d="M12.7698 3.36328C13.6615 3.36328 14.3813 4.09867 14.3813 5.00968C14.3813 5.92068 13.6615 6.65607 12.7698 6.65607C11.878 6.65607 11.1582 5.92068 11.1582 5.00968C11.1582 4.62552 11.2871 4.27429 11.502 3.9944" stroke="#E95F61" stroke-linecap="round" stroke-linejoin="round"/>
</g>
</svg>
