<svg xmlns="http://www.w3.org/2000/svg" width="18" height="14" viewBox="0 0 18 14" fill="none">
  <path d="M14.7511 10.8566H5.84415L1.98022 12.912C1.79016 13.0135 1.56055 12.875 1.56055 12.66V2.74003C1.56055 1.80866 2.31562 1.05273 3.24784 1.05273H14.7519C15.6833 1.05273 16.4392 1.8078 16.4392 2.74003V9.17017C16.4392 10.1015 15.6841 10.8575 14.7519 10.8575L14.7511 10.8566Z" stroke="#74B160" stroke-width="1.6" stroke-miterlimit="10"/>
  <path d="M5.36181 7.67479C6.03625 7.67479 6.58299 7.12805 6.58299 6.45361C6.58299 5.77916 6.03625 5.23242 5.36181 5.23242C4.68737 5.23242 4.14062 5.77916 4.14062 6.45361C4.14062 7.12805 4.68737 7.67479 5.36181 7.67479Z" fill="#74B160"/>
  <path d="M9.12939 7.67479C9.80383 7.67479 10.3506 7.12805 10.3506 6.45361C10.3506 5.77916 9.80383 5.23242 9.12939 5.23242C8.45495 5.23242 7.9082 5.77916 7.9082 6.45361C7.9082 7.12805 8.45495 7.67479 9.12939 7.67479Z" fill="#74B160"/>
  <path d="M12.895 7.67479C13.5695 7.67479 14.1162 7.12805 14.1162 6.45361C14.1162 5.77916 13.5695 5.23242 12.895 5.23242C12.2206 5.23242 11.6738 5.77916 11.6738 6.45361C11.6738 7.12805 12.2206 7.67479 12.895 7.67479Z" fill="#74B160"/>
</svg>