<svg width="24" height="23" viewBox="0 0 24 23" fill="none" xmlns="http://www.w3.org/2000/svg">
<g id="Capa_2">
<path id="Vector" d="M23.0996 9.7093C23.0996 14.7949 18.1726 18.9186 12.0996 18.9186C10.9229 18.9186 9.79217 18.7651 8.7331 18.4786L4.16938 22.5L5.18752 16.8721C2.69589 15.1837 1.09961 12.6051 1.09961 9.7093C1.09961 4.62372 6.02659 0.5 12.0996 0.5C18.1726 0.5 23.0996 4.62372 23.0996 9.7093Z" stroke="#85BECE" stroke-linecap="round" stroke-linejoin="round"/>
<path id="Vector_2" d="M6.72727 10.7338C7.57496 10.7338 8.26215 10.0466 8.26215 9.19895C8.26215 8.35125 7.57496 7.66406 6.72727 7.66406C5.87957 7.66406 5.19238 8.35125 5.19238 9.19895C5.19238 10.0466 5.87957 10.7338 6.72727 10.7338Z" stroke="#85BECE" stroke-linecap="round" stroke-linejoin="round"/>
<path id="Vector_3" d="M12.6111 10.7338C13.4587 10.7338 14.1459 10.0466 14.1459 9.19895C14.1459 8.35125 13.4587 7.66406 12.6111 7.66406C11.7634 7.66406 11.0762 8.35125 11.0762 9.19895C11.0762 10.0466 11.7634 10.7338 12.6111 10.7338Z" stroke="#85BECE" stroke-linecap="round" stroke-linejoin="round"/>
<path id="Vector_4" d="M18.4948 10.7338C19.3425 10.7338 20.0297 10.0466 20.0297 9.19895C20.0297 8.35125 19.3425 7.66406 18.4948 7.66406C17.6472 7.66406 16.96 8.35125 16.96 9.19895C16.96 10.0466 17.6472 10.7338 18.4948 10.7338Z" stroke="#85BECE" stroke-linecap="round" stroke-linejoin="round"/>
</g>
</svg>
