<svg width="19" height="19" viewBox="0 0 19 19" fill="none" xmlns="http://www.w3.org/2000/svg">
<g id="Capa_2">
<path id="Vector" d="M4.98884 14.091C5.73128 14.091 6.33315 13.4891 6.33315 12.7467C6.33315 12.0042 5.73128 11.4023 4.98884 11.4023C4.2464 11.4023 3.64453 12.0042 3.64453 12.7467C3.64453 13.4891 4.2464 14.091 4.98884 14.091Z" stroke="#428BA9" stroke-width="0.8" stroke-linecap="round" stroke-linejoin="round"/>
<path id="Vector_2" d="M14.5396 14.091C15.2821 14.091 15.8839 13.4891 15.8839 12.7467C15.8839 12.0042 15.2821 11.4023 14.5396 11.4023C13.7972 11.4023 13.1953 12.0042 13.1953 12.7467C13.1953 13.4891 13.7972 14.091 14.5396 14.091Z" stroke="#428BA9" stroke-width="0.8" stroke-linecap="round" stroke-linejoin="round"/>
<path id="Vector_3" d="M10.6956 14.0547H8.83837C7.84498 14.0547 7.03516 14.8645 7.03516 15.8579V17.7637C7.03516 18.0444 7.26191 18.2658 7.53725 18.2658H11.9967C12.2774 18.2658 12.4988 18.039 12.4988 17.7637V15.8579C12.4988 14.8645 11.6889 14.0547 10.6956 14.0547Z" stroke="#428BA9" stroke-width="0.8" stroke-linecap="round" stroke-linejoin="round"/>
<path id="Vector_4" d="M9.76269 14.0527C10.6542 14.0527 11.3769 13.33 11.3769 12.4385C11.3769 11.5469 10.6542 10.8242 9.76269 10.8242C8.87116 10.8242 8.14844 11.5469 8.14844 12.4385C8.14844 13.33 8.87116 14.0527 9.76269 14.0527Z" stroke="#428BA9" stroke-width="0.8" stroke-linecap="round" stroke-linejoin="round"/>
<path id="Vector_5" d="M15.3126 14.0874H13.7632C13.0991 14.0874 12.5322 14.5193 12.3379 15.1186C12.4405 15.3454 12.4945 15.5937 12.4945 15.8528V17.5481C12.5484 17.5751 12.6132 17.5913 12.6834 17.5913H16.3924C16.6246 17.5913 16.8135 17.4023 16.8135 17.1702V15.5829C16.8135 14.7515 16.1441 14.082 15.3126 14.082V14.0874Z" stroke="#428BA9" stroke-width="0.8" stroke-linecap="round" stroke-linejoin="round"/>
<path id="Vector_6" d="M7.03 15.8553C7.03 15.5907 7.08399 15.3424 7.18657 15.121C6.98681 14.5217 6.42533 14.0898 5.76128 14.0898H4.21181C3.38039 14.0898 2.71094 14.7593 2.71094 15.5907V17.178C2.71094 17.4101 2.8999 17.5991 3.13205 17.5991H6.84104C6.90583 17.5991 6.97061 17.5829 7.03 17.5559V15.8607V15.8553Z" stroke="#428BA9" stroke-width="0.8" stroke-linecap="round" stroke-linejoin="round"/>
<path id="Vector_7" d="M5.07612 6.37584V2.28353C5.07612 2.01899 5.1409 1.77604 5.25968 1.55469H2.30652C1.58307 1.55469 1 2.13776 1 2.8612V6.32185C1 7.0453 1.58307 7.62837 2.30652 7.62837H2.64664C2.95438 7.62837 3.22432 7.81733 3.33229 8.10887L3.65622 8.99967C3.73181 9.19943 4.01255 9.19943 4.08813 8.99967L4.41206 8.10887C4.51464 7.82273 4.78998 7.62837 5.09771 7.62837H5.71318C5.32986 7.34763 5.07612 6.89413 5.07612 6.38124V6.37584Z" stroke="#428BA9" stroke-width="0.8" stroke-linecap="round" stroke-linejoin="round"/>
<path id="Vector_8" d="M7.3704 5.233C7.71628 5.233 7.99667 4.95261 7.99667 4.60673C7.99667 4.26086 7.71628 3.98047 7.3704 3.98047C7.02453 3.98047 6.74414 4.26086 6.74414 4.60673C6.74414 4.95261 7.02453 5.233 7.3704 5.233Z" stroke="#428BA9" stroke-width="0.8" stroke-linecap="round" stroke-linejoin="round"/>
<path id="Vector_9" d="M9.76298 5.233C10.1089 5.233 10.3892 4.95261 10.3892 4.60673C10.3892 4.26086 10.1089 3.98047 9.76298 3.98047C9.41711 3.98047 9.13672 4.26086 9.13672 4.60673C9.13672 4.95261 9.41711 5.233 9.76298 5.233Z" stroke="#428BA9" stroke-width="0.8" stroke-linecap="round" stroke-linejoin="round"/>
<path id="Vector_10" d="M12.1595 5.233C12.5053 5.233 12.7857 4.95261 12.7857 4.60673C12.7857 4.26086 12.5053 3.98047 12.1595 3.98047C11.8136 3.98047 11.5332 4.26086 11.5332 4.60673C11.5332 4.95261 11.8136 5.233 12.1595 5.233Z" stroke="#428BA9" stroke-width="0.8" stroke-linecap="round" stroke-linejoin="round"/>
<path id="Vector_11" d="M9.14689 0.734375H6.62564C5.77262 0.734375 5.07617 1.42543 5.07617 2.28384V6.38155C5.07617 7.23457 5.76722 7.93101 6.62564 7.93101H8.31547C8.67719 7.93101 9.00112 8.15776 9.12529 8.49789L9.51401 9.55606C9.60039 9.79361 9.93512 9.79361 10.0215 9.55606L10.4102 8.49789C10.5344 8.15776 10.8583 7.93101 11.22 7.93101H12.9099C13.7629 7.93101 14.4593 7.23996 14.4593 6.38155V2.28384C14.4593 1.43082 13.7683 0.734375 12.9099 0.734375H10.3886" stroke="#428BA9" stroke-width="0.8" stroke-linecap="round" stroke-linejoin="round"/>
<path id="Vector_12" d="M18.5296 4.14073V2.8612C18.5296 2.13776 17.9465 1.55469 17.2231 1.55469H14.2699C14.3833 1.77064 14.4535 2.01899 14.4535 2.28353V6.38124C14.4535 6.89413 14.2051 7.34763 13.8164 7.62837H14.4319C14.7396 7.62837 15.0095 7.81733 15.1175 8.10887L15.4415 8.99967C15.517 9.19943 15.7978 9.19943 15.8734 8.99967L16.1973 8.10887C16.2999 7.82273 16.5752 7.62837 16.8829 7.62837H17.2231C17.9465 7.62837 18.5296 7.0453 18.5296 6.32185V5.37706" stroke="#428BA9" stroke-width="0.8" stroke-linecap="round" stroke-linejoin="round"/>
</g>
</svg>
