<svg width="18" height="20" viewBox="0 0 18 20" fill="none" xmlns="http://www.w3.org/2000/svg">
<g id="Group 48">
<path id="Vector" d="M9.80315 1H2.45551C1.65229 1 1 1.66667 1 2.4876V17.5124C1 18.3333 1.65229 19 2.45551 19H12.4554C13.2586 19 13.9109 18.3333 13.9109 17.5124V15.5785" stroke="#2F647E" stroke-linecap="round" stroke-linejoin="round"/>
<path id="Vector_2" d="M13.9165 5.19824V7.5178" stroke="#2F647E" stroke-linecap="round" stroke-linejoin="round"/>
<path id="Vector_3" d="M9.80322 1V4.29477C9.80322 4.79614 10.1967 5.19835 10.6873 5.19835H13.884L9.80322 1Z" stroke="#2F647E" stroke-linecap="round" stroke-linejoin="round"/>
<path id="Vector_4" d="M3.93799 15.2588H7.53364" stroke="#2F647E" stroke-linecap="round" stroke-linejoin="round"/>
<path id="Vector_5" d="M3.93799 12.752H7.53364" stroke="#2F647E" stroke-linecap="round" stroke-linejoin="round"/>
<path id="Vector_6" d="M3.93799 9.99707H10.0997" stroke="#2F647E" stroke-linecap="round" stroke-linejoin="round"/>
<path id="Vector_7" d="M3.93799 7.24268H10.0997" stroke="#2F647E" stroke-linecap="round" stroke-linejoin="round"/>
<path id="Vector_8" d="M11.6899 15.2202L9.30713 15.9034L9.97559 13.4681L15.0861 8.24495C15.4203 7.90335 15.9378 7.87581 16.2397 8.18435L16.8596 8.81795C17.1615 9.12649 17.1346 9.65542 16.8003 9.99702L11.6899 15.2202Z" stroke="#2F647E" stroke-width="0.95" stroke-linecap="round" stroke-linejoin="round"/>
<path id="Vector_9" d="M14.5522 8.7959L16.2665 10.548" stroke="#2F647E" stroke-width="0.95" stroke-linecap="round" stroke-linejoin="round"/>
<path id="Vector_10" d="M9.97559 13.4683L11.6899 15.2203" stroke="#2F647E" stroke-width="0.95" stroke-linecap="round" stroke-linejoin="round"/>
</g>
</svg>
