<svg width="26" height="15" viewBox="0 0 26 15" fill="none" xmlns="http://www.w3.org/2000/svg">
<g id="ojo 1">
<g id="Group">
<g id="Group_2">
<path id="Vector" d="M25.4089 6.99975C25.1804 6.74485 19.6841 0.75 12.8 0.75C5.91592 0.75 0.419725 6.74485 0.191175 6.99975C-0.063725 7.28465 -0.063725 7.71535 0.191175 8.00025C0.419725 8.25515 5.91602 14.25 12.8 14.25C19.684 14.25 25.1803 8.25515 25.4089 8.00025C25.6637 7.71535 25.6637 7.28465 25.4089 6.99975ZM12.8 12.75C9.90547 12.75 7.55003 10.3946 7.55003 7.5C7.55003 4.60545 9.90547 2.25 12.8 2.25C15.6946 2.25 18.05 4.60545 18.05 7.5C18.05 10.3946 15.6946 12.75 12.8 12.75Z" fill="#00AD1F"/>
</g>
</g>
<g id="Group_3">
<g id="Group_4">
<path id="Vector_2" d="M13.5498 6C13.5498 5.2455 13.9244 4.58175 14.4942 4.1735C13.9829 3.91175 13.4126 3.75 12.7998 3.75C10.7322 3.75 9.0498 5.43235 9.0498 7.5C9.0498 9.56765 10.7322 11.25 12.7998 11.25C14.651 11.25 16.1832 9.8983 16.4859 8.1321C14.9756 8.61835 13.5498 7.4761 13.5498 6Z" fill="#00AD1F"/>
</g>
</g>
</g>
</svg>
