<svg xmlns="http://www.w3.org/2000/svg" width="19" height="18" viewBox="0 0 19 18" fill="none">
  <mask id="mask0_5704_125663" style="mask-type:luminance" maskUnits="userSpaceOnUse" x="0" y="0" width="19" height="18">
    <path d="M0.195557 0H18.1956V18H0.195557V0Z" fill="white"/>
  </mask>
  <g mask="url(#mask0_5704_125663)">
    <path d="M17.9319 12.5177V15.9927C17.9319 16.4029 17.5994 16.7354 17.1893 16.7354H1.20183C0.791701 16.7354 0.459229 16.4029 0.459229 15.9927V2.00661C0.459229 1.59647 0.791701 1.264 1.20183 1.264H17.1893C17.5994 1.264 17.9319 1.59647 17.9319 2.00661V11.285" stroke="#85BECE" stroke-width="0.8" stroke-miterlimit="10" stroke-linecap="round" stroke-linejoin="round"/>
    <path d="M2.64868 4.41797H17.9321" stroke="#85BECE" stroke-width="0.8" stroke-miterlimit="10" stroke-linecap="round" stroke-linejoin="round"/>
    <path d="M0.459229 4.41797H1.41583" stroke="#85BECE" stroke-width="0.8" stroke-miterlimit="10" stroke-linecap="round" stroke-linejoin="round"/>
    <path d="M16.2313 2.84212C16.2313 3.19576 15.9446 3.48242 15.591 3.48242C15.2374 3.48242 14.9507 3.19576 14.9507 2.84212C14.9507 2.48848 15.2374 2.20182 15.591 2.20182C15.9446 2.20182 16.2313 2.48848 16.2313 2.84212Z" stroke="#85BECE" stroke-width="0.8" stroke-miterlimit="10" stroke-linecap="round" stroke-linejoin="round"/>
    <path d="M13.6637 2.84212C13.6637 3.19576 13.377 3.48242 13.0234 3.48242C12.6698 3.48242 12.3831 3.19576 12.3831 2.84212C12.3831 2.48848 12.6698 2.20182 13.0234 2.20182C13.377 2.20182 13.6637 2.48848 13.6637 2.84212Z" stroke="#85BECE" stroke-width="0.8" stroke-miterlimit="10" stroke-linecap="round" stroke-linejoin="round"/>
    <path d="M12.5513 7.82129H16.3591H12.5513Z" fill="white"/>
    <path d="M12.5513 7.82129H16.3591" stroke="#85BECE" stroke-width="0.8" stroke-miterlimit="10" stroke-linecap="round" stroke-linejoin="round"/>
    <path d="M10.781 7.82129H11.5205H10.781Z" fill="white"/>
    <path d="M10.781 7.82129H11.5205" stroke="#85BECE" stroke-width="0.8" stroke-miterlimit="10" stroke-linecap="round" stroke-linejoin="round"/>
    <path d="M15.6196 10.5186H16.3591H15.6196Z" fill="white"/>
    <path d="M15.6196 10.5186H16.3591" stroke="#85BECE" stroke-width="0.8" stroke-miterlimit="10" stroke-linecap="round" stroke-linejoin="round"/>
    <path d="M10.781 10.5186H14.5889H10.781Z" fill="white"/>
    <path d="M10.781 10.5186H14.5889" stroke="#85BECE" stroke-width="0.8" stroke-miterlimit="10" stroke-linecap="round" stroke-linejoin="round"/>
    <path d="M12.5513 13.2168H16.3591H12.5513Z" fill="white"/>
    <path d="M12.5513 13.2168H16.3591" stroke="#85BECE" stroke-width="0.8" stroke-miterlimit="10" stroke-linecap="round" stroke-linejoin="round"/>
    <path d="M10.781 13.2168H11.5205H10.781Z" fill="white"/>
    <path d="M10.781 13.2168H11.5205" stroke="#85BECE" stroke-width="0.8" stroke-miterlimit="10" stroke-linecap="round" stroke-linejoin="round"/>
    <path d="M12.0359 8.57227C11.7512 8.57227 11.5205 8.34154 11.5205 8.05688V7.55513C11.5205 7.2705 11.7512 7.03973 12.0359 7.03973C12.3205 7.03973 12.5513 7.2705 12.5513 7.55513V8.05688C12.5513 8.34154 12.3205 8.57227 12.0359 8.57227Z" stroke="#85BECE" stroke-width="0.8" stroke-miterlimit="10" stroke-linecap="round" stroke-linejoin="round"/>
    <path d="M15.1042 11.2852C14.8196 11.2852 14.5889 11.0544 14.5889 10.7698V10.268C14.5889 9.98339 14.8196 9.75263 15.1042 9.75263C15.3889 9.75263 15.6196 9.98339 15.6196 10.268V10.7698C15.6196 11.0544 15.3889 11.2852 15.1042 11.2852Z" stroke="#85BECE" stroke-width="0.8" stroke-miterlimit="10" stroke-linecap="round" stroke-linejoin="round"/>
    <path d="M12.0359 13.9824C11.7512 13.9824 11.5205 13.7517 11.5205 13.4671V12.9653C11.5205 12.6807 11.7512 12.4499 12.0359 12.4499C12.3205 12.4499 12.5513 12.6807 12.5513 12.9653V13.4671C12.5513 13.7517 12.3205 13.9824 12.0359 13.9824Z" stroke="#85BECE" stroke-width="0.8" stroke-miterlimit="10" stroke-linecap="round" stroke-linejoin="round"/>
    <path d="M5.50384 12.1757C4.58432 12.1757 3.83891 11.4303 3.83891 10.5108C3.83891 9.5913 4.58432 8.84592 5.50384 8.84592C6.42331 8.84592 7.16873 9.5913 7.16873 10.5108C7.16873 11.4303 6.42331 12.1757 5.50384 12.1757ZM8.75713 9.97085H8.5645C8.46368 9.97085 8.37666 9.90166 8.35244 9.80382C8.28118 9.51571 8.16738 9.24441 8.01807 8.99695C7.9659 8.9105 7.97834 8.79993 8.04971 8.72853L8.18608 8.59216C8.27134 8.50694 8.27134 8.36874 8.18608 8.28349L7.73113 7.82857C7.64591 7.74331 7.50771 7.74331 7.42245 7.82857L7.28608 7.96494C7.21472 8.0363 7.10415 8.04875 7.01773 7.99658C6.7702 7.84727 6.49893 7.73347 6.21079 7.66217C6.11295 7.63798 6.04377 7.55094 6.04377 7.45014V7.25752C6.04377 7.13694 5.94603 7.03924 5.82548 7.03924H5.18216C5.06161 7.03924 4.96387 7.13694 4.96387 7.25752V7.45014C4.96387 7.55094 4.89468 7.63798 4.79684 7.66217C4.5087 7.73347 4.23744 7.84727 3.98994 7.99658C3.90349 8.04875 3.79292 8.0363 3.72155 7.96494L3.58518 7.82857C3.49993 7.74331 3.36173 7.74331 3.27651 7.82857L2.82155 8.28349C2.73634 8.36874 2.73634 8.50694 2.82155 8.59216L2.95793 8.72853C3.02929 8.79993 3.04177 8.9105 2.9896 8.99695C2.84026 9.24441 2.72646 9.51571 2.6552 9.80382C2.63097 9.90166 2.54396 9.97085 2.44313 9.97085H2.25051C2.12993 9.97085 2.03223 10.0686 2.03223 10.1891V10.8325C2.03223 10.953 2.12993 11.0508 2.25051 11.0508H2.44313C2.54396 11.0508 2.63097 11.12 2.6552 11.2178C2.72646 11.5059 2.84026 11.7772 2.9896 12.0247C3.04177 12.1111 3.02929 12.2217 2.95793 12.2931L2.82155 12.4295C2.73634 12.5147 2.73634 12.6529 2.82155 12.7381L3.27651 13.1931C3.36173 13.2783 3.49993 13.2783 3.58518 13.1931L3.72155 13.0567C3.79292 12.9853 3.90349 12.9729 3.98994 13.025C4.23744 13.1744 4.5087 13.2882 4.79684 13.3595C4.89468 13.3836 4.96387 13.4707 4.96387 13.5715V13.7641C4.96387 13.8847 5.06161 13.9824 5.18216 13.9824H5.82548C5.94603 13.9824 6.04377 13.8847 6.04377 13.7641V13.5715C6.04377 13.4707 6.11295 13.3836 6.21079 13.3595C6.49893 13.2882 6.7702 13.1744 7.01773 13.025C7.10415 12.9729 7.21472 12.9853 7.28608 13.0567L7.42245 13.1931C7.50771 13.2783 7.64591 13.2783 7.73113 13.1931L8.18608 12.7381C8.27134 12.6529 8.27134 12.5147 8.18608 12.4295L8.04971 12.2931C7.97834 12.2217 7.9659 12.1111 8.01807 12.0247C8.16738 11.7772 8.28118 11.5059 8.35244 11.2178C8.37666 11.12 8.46368 11.0508 8.5645 11.0508H8.75713C8.87771 11.0508 8.97541 10.953 8.97541 10.8325V10.1891C8.97541 10.0686 8.87771 9.97085 8.75713 9.97085Z" stroke="#85BECE" stroke-width="0.8" stroke-miterlimit="10" stroke-linecap="round" stroke-linejoin="round"/>
  </g>
</svg>