<svg width="32" height="22" viewBox="0 0 32 22" fill="none" xmlns="http://www.w3.org/2000/svg">
<g id="people-group-solid">
<path id="path2" d="M9.32143 2.75C9.32143 4.26741 8.08884 5.5 6.57142 5.5C5.05254 5.5 3.82142 4.26741 3.82142 2.75C3.82142 1.23112 5.05254 0 6.57142 0C8.08884 0 9.32143 1.23112 9.32143 2.75ZM10.5196 8.06831C9.06116 9.36474 8.14285 11.2554 8.14285 13.3572C8.14285 15.0415 8.68794 16.5884 9.71428 17.8014V18.8572C9.71428 19.7264 9.01205 20.4286 8.14285 20.4286H5C4.13227 20.4286 3.42857 19.7264 3.42857 18.8572V17.5411C1.57035 16.6572 0.285706 14.7665 0.285706 12.5714C0.285706 9.5317 2.74794 7.07143 5.78571 7.07143H7.35714C8.49152 7.07143 9.62589 7.43974 10.5196 8.06831ZM3.42857 10.4942C2.93946 11.0442 2.64285 11.7759 2.64285 12.5714C2.64285 13.367 2.93946 14.0987 3.42857 14.6487V10.4942ZM22.2857 18.8572V17.8014C23.2679 16.5884 23.8572 15.0415 23.8572 13.3572C23.8572 11.2554 22.9388 9.36474 21.4804 8.06831C22.3741 7.43974 23.4643 7.07143 24.6429 7.07143H26.2143C29.254 7.07143 31.7143 9.5317 31.7143 12.5714C31.7143 14.7665 30.4277 16.6572 28.5714 17.5411V18.8572C28.5714 19.7264 27.8692 20.4286 27 20.4286H23.8572C22.988 20.4286 22.2857 19.7264 22.2857 18.8572ZM28.5714 14.6487C29.0183 14.0987 29.3572 13.367 29.3572 12.5714C29.3572 11.7759 29.0183 11.0442 28.5714 10.4942V14.6487ZM28.1786 2.75C28.1786 4.26741 26.946 5.5 25.4286 5.5C23.9112 5.5 22.6786 4.26741 22.6786 2.75C22.6786 1.23112 23.9112 0 25.4286 0C26.946 0 28.1786 1.23112 28.1786 2.75ZM12.8571 3.14286C12.8571 1.40692 14.2665 0 16 0C17.7335 0 19.1429 1.40692 19.1429 3.14286C19.1429 4.87634 17.7335 6.28572 16 6.28572C14.2665 6.28572 12.8571 4.87634 12.8571 3.14286ZM22.2857 13.3572C22.2857 15.5522 20.9991 17.4429 19.1429 18.3268V20.4286C19.1429 21.2978 18.4406 22 17.5714 22H14.4286C13.5594 22 12.8571 21.2978 12.8571 20.4286V18.3268C11.0009 17.4429 9.71428 15.5522 9.71428 13.3572C9.71428 10.3174 12.1746 7.85715 15.2143 7.85715H16.7857C19.8255 7.85715 22.2857 10.3174 22.2857 13.3572ZM12.8571 15.4344V11.2799C12.3661 11.8299 12.0714 12.5616 12.0714 13.3572C12.0714 14.1527 12.3661 14.8844 12.8571 15.4344ZM19.1429 11.2799V15.4344C19.5897 14.8795 19.9286 14.1527 19.9286 13.3572C19.9286 12.5616 19.5897 11.8299 19.1429 11.2799Z" fill="white"/>
</g>
</svg>
