<svg xmlns="http://www.w3.org/2000/svg" width="37" height="63" viewBox="0 0 37 63" fill="none">
  <path d="M6.87401 0H29.2219C32.9873 0 36.0508 3.06353 36.0508 6.82884V55.7459C36.0508 59.5113 32.9873 62.5748 29.2219 62.5748H6.87401C3.10869 62.5748 0.045166 59.5113 0.045166 55.7459V6.82884C0.045166 3.06353 3.10869 0 6.87401 0ZM29.2219 3.72474H6.87401C5.1625 3.72474 3.7699 5.11733 3.7699 6.82884V11.009H32.326V6.82884C32.326 5.11733 30.9334 3.72474 29.2219 3.72474ZM3.7699 47.841H32.326V14.7338H3.7699V47.841ZM6.87401 58.85H29.2219C30.9334 58.85 32.326 57.4575 32.326 55.7459V51.5658H3.7699V55.7459C3.7699 57.4575 5.1625 58.85 6.87401 58.85Z" fill="#636363"/>
  <path d="M15.4395 53.2637H20.6542C21.6826 53.2637 22.5166 54.0972 22.5166 55.1256C22.5166 56.1544 21.6826 56.9879 20.6542 56.9879H15.4395C14.4112 56.9879 13.5771 56.1544 13.5771 55.1256C13.5771 54.0972 14.4112 53.2637 15.4395 53.2637Z" fill="#636363"/>
</svg>