<svg xmlns="http://www.w3.org/2000/svg" width="30" height="30" viewBox="0 0 30 30" fill="none">
  <path d="M15 5C9.48578 5 5 9.48578 5 15C5 20.5142 9.48578 25 15 25C20.5142 25 25 20.5142 25 15C25 9.48578 20.5142 5 15 5Z" fill="#51AC34"/>
  <path d="M15.8253 19.8325C15.8252 20.2889 15.4564 20.6577 15 20.6578C14.7724 20.6578 14.5658 20.5656 14.4163 20.4161C14.267 20.2667 14.1747 20.0601 14.1747 19.8325L14.1748 16.3252L10.6675 16.3253C10.4399 16.3253 10.2333 16.233 10.0839 16.0837C9.93443 15.9342 9.84221 15.7276 9.84221 15.5C9.84232 15.0436 10.2111 14.6748 10.6675 14.6747L14.1748 14.6748L14.1747 11.1675C14.1748 10.7111 14.5436 10.3423 15 10.3422C15.4564 10.3423 15.8252 10.7111 15.8253 11.1675L15.8252 14.6748L19.3325 14.6747C19.7889 14.6748 20.1577 15.0436 20.1578 15.5C20.1577 15.9564 19.7889 16.3252 19.3325 16.3253L15.8252 16.3252L15.8253 19.8325Z" fill="#FAFAFA"/>
</svg>