<svg xmlns="http://www.w3.org/2000/svg" width="18" height="18" viewBox="0 0 18 18" fill="none">
  <path d="M10.7168 2.84113H1.9101" stroke="#1791C9" stroke-width="0.8" stroke-miterlimit="10" stroke-linecap="round" stroke-linejoin="round"/>
  <mask id="mask0_411_38280" style="mask-type:luminance" maskUnits="userSpaceOnUse" x="0" y="0" width="18" height="18">
    <path d="M0 0H18V18H0V0Z" fill="white"/>
  </mask>
  <g mask="url(#mask0_411_38280)">
    <path d="M17.7363 12.518V15.9931C17.7363 16.4032 17.4038 16.7357 16.9937 16.7357H1.00622C0.596083 16.7357 0.263611 16.4032 0.263611 15.9931V2.00691C0.263611 1.59678 0.596083 1.2643 1.00622 1.2643H16.9937C17.4038 1.2643 17.7363 1.59678 17.7363 2.00691V11.2853" stroke="#1791C9" stroke-width="0.8" stroke-miterlimit="10" stroke-linecap="round" stroke-linejoin="round"/>
    <path d="M2.45294 4.41791H17.7363" stroke="#1791C9" stroke-width="0.8" stroke-miterlimit="10" stroke-linecap="round" stroke-linejoin="round"/>
    <path d="M0.263672 4.41791H1.22027" stroke="#1791C9" stroke-width="0.8" stroke-miterlimit="10" stroke-linecap="round" stroke-linejoin="round"/>
    <path d="M16.0355 2.84224C16.0355 3.19588 15.7489 3.48254 15.3952 3.48254C15.0416 3.48254 14.7549 3.19588 14.7549 2.84224C14.7549 2.48861 15.0416 2.20194 15.3952 2.20194C15.7489 2.20194 16.0355 2.48861 16.0355 2.84224Z" stroke="#1791C9" stroke-width="0.8" stroke-miterlimit="10" stroke-linecap="round" stroke-linejoin="round"/>
    <path d="M13.468 2.84224C13.468 3.19588 13.1814 3.48254 12.8277 3.48254C12.4741 3.48254 12.1874 3.19588 12.1874 2.84224C12.1874 2.48861 12.4741 2.20194 12.8277 2.20194C13.1814 2.20194 13.468 2.48861 13.468 2.84224Z" stroke="#1791C9" stroke-width="0.8" stroke-miterlimit="10" stroke-linecap="round" stroke-linejoin="round"/>
    <path d="M12.3555 7.82123H16.1634H12.3555Z" fill="white"/>
    <path d="M12.3555 7.82123H16.1634" stroke="#1791C9" stroke-width="0.8" stroke-miterlimit="10" stroke-linecap="round" stroke-linejoin="round"/>
    <path d="M10.5853 7.82123H11.3248H10.5853Z" fill="white"/>
    <path d="M10.5853 7.82123H11.3248" stroke="#1791C9" stroke-width="0.8" stroke-miterlimit="10" stroke-linecap="round" stroke-linejoin="round"/>
    <path d="M15.424 10.519H16.1634H15.424Z" fill="white"/>
    <path d="M15.424 10.519H16.1634" stroke="#1791C9" stroke-width="0.8" stroke-miterlimit="10" stroke-linecap="round" stroke-linejoin="round"/>
    <path d="M10.5853 10.519H14.3932H10.5853Z" fill="white"/>
    <path d="M10.5853 10.519H14.3932" stroke="#1791C9" stroke-width="0.8" stroke-miterlimit="10" stroke-linecap="round" stroke-linejoin="round"/>
    <path d="M12.3555 13.2169H16.1634H12.3555Z" fill="white"/>
    <path d="M12.3555 13.2169H16.1634" stroke="#1791C9" stroke-width="0.8" stroke-miterlimit="10" stroke-linecap="round" stroke-linejoin="round"/>
    <path d="M10.5853 13.2169H11.3248H10.5853Z" fill="white"/>
    <path d="M10.5853 13.2169H11.3248" stroke="#1791C9" stroke-width="0.8" stroke-miterlimit="10" stroke-linecap="round" stroke-linejoin="round"/>
    <path d="M11.8402 8.57251C11.5555 8.57251 11.3248 8.34178 11.3248 8.05712V7.55537C11.3248 7.27074 11.5555 7.03998 11.8402 7.03998C12.1248 7.03998 12.3555 7.27074 12.3555 7.55537V8.05712C12.3555 8.34178 12.1248 8.57251 11.8402 8.57251Z" stroke="#1791C9" stroke-width="0.8" stroke-miterlimit="10" stroke-linecap="round" stroke-linejoin="round"/>
    <path d="M14.9086 11.2853C14.624 11.2853 14.3932 11.0546 14.3932 10.7699V10.2682C14.3932 9.98357 14.624 9.75281 14.9086 9.75281C15.1933 9.75281 15.424 9.98357 15.424 10.2682V10.7699C15.424 11.0546 15.1933 11.2853 14.9086 11.2853Z" stroke="#1791C9" stroke-width="0.8" stroke-miterlimit="10" stroke-linecap="round" stroke-linejoin="round"/>
    <path d="M11.8402 13.9832C11.5555 13.9832 11.3248 13.7524 11.3248 13.4678V12.966C11.3248 12.6814 11.5555 12.4507 11.8402 12.4507C12.1248 12.4507 12.3555 12.6814 12.3555 12.966V13.4678C12.3555 13.7524 12.1248 13.9832 11.8402 13.9832Z" stroke="#1791C9" stroke-width="0.8" stroke-miterlimit="10" stroke-linecap="round" stroke-linejoin="round"/>
    <path d="M5.30822 12.1765C4.38871 12.1765 3.64329 11.4311 3.64329 10.5115C3.64329 9.59203 4.38871 8.84665 5.30822 8.84665C6.2277 8.84665 6.97311 9.59203 6.97311 10.5115C6.97311 11.4311 6.2277 12.1765 5.30822 12.1765ZM8.56151 9.97158H8.36889C8.26806 9.97158 8.18105 9.90239 8.15682 9.80455C8.08556 9.51645 7.97176 9.24515 7.82245 8.99768C7.77028 8.91123 7.78273 8.80067 7.85409 8.72926L7.99046 8.59289C8.07572 8.50767 8.07572 8.36947 7.99046 8.28422L7.53551 7.8293C7.45029 7.74404 7.31209 7.74404 7.22684 7.8293L7.09046 7.96567C7.0191 8.03704 6.90853 8.04948 6.82212 7.99731C6.57458 7.848 6.30332 7.7342 6.01518 7.6629C5.91734 7.63872 5.84815 7.55167 5.84815 7.45088V7.25826C5.84815 7.13767 5.75041 7.03997 5.62986 7.03997H4.98654C4.86599 7.03997 4.76825 7.13767 4.76825 7.25826V7.45088C4.76825 7.55167 4.69907 7.63872 4.60123 7.6629C4.31309 7.7342 4.04182 7.848 3.79432 7.99731C3.70787 8.04948 3.5973 8.03704 3.52594 7.96567L3.38957 7.8293C3.30431 7.74404 3.16611 7.74404 3.08089 7.8293L2.62594 8.28422C2.54072 8.36947 2.54072 8.50767 2.62594 8.59289L2.76231 8.72926C2.83368 8.80067 2.84616 8.91123 2.79398 8.99768C2.64464 9.24515 2.53084 9.51645 2.45958 9.80455C2.43536 9.90239 2.34834 9.97158 2.24752 9.97158H2.05489C1.93431 9.97158 1.83661 10.0693 1.83661 10.1899V10.8332C1.83661 10.9538 1.93431 11.0515 2.05489 11.0515H2.24752C2.34834 11.0515 2.43536 11.1207 2.45958 11.2185C2.53084 11.5066 2.64464 11.7779 2.79398 12.0254C2.84616 12.1119 2.83368 12.2225 2.76231 12.2938L2.62594 12.4302C2.54072 12.5155 2.54072 12.6537 2.62594 12.7389L3.08089 13.1938C3.16611 13.279 3.30431 13.279 3.38957 13.1938L3.52594 13.0575C3.5973 12.9861 3.70787 12.9736 3.79432 13.0258C4.04182 13.1751 4.31309 13.2889 4.60123 13.3602C4.69907 13.3844 4.76825 13.4714 4.76825 13.5722V13.7649C4.76825 13.8854 4.86599 13.9832 4.98654 13.9832H5.62986C5.75041 13.9832 5.84815 13.8854 5.84815 13.7649V13.5722C5.84815 13.4714 5.91734 13.3844 6.01518 13.3602C6.30332 13.2889 6.57458 13.1751 6.82212 13.0258C6.90853 12.9736 7.0191 12.9861 7.09046 13.0575L7.22684 13.1938C7.31209 13.279 7.45029 13.279 7.53551 13.1938L7.99046 12.7389C8.07572 12.6537 8.07572 12.5155 7.99046 12.4302L7.85409 12.2938C7.78273 12.2225 7.77028 12.1119 7.82245 12.0254C7.97176 11.7779 8.08556 11.5066 8.15682 11.2185C8.18105 11.1207 8.26806 11.0515 8.36889 11.0515H8.56151C8.68209 11.0515 8.77979 10.9538 8.77979 10.8332V10.1899C8.77979 10.0693 8.68209 9.97158 8.56151 9.97158Z" stroke="#1791C9" stroke-width="0.8" stroke-miterlimit="10" stroke-linecap="round" stroke-linejoin="round"/>
  </g>
</svg>