<svg xmlns="http://www.w3.org/2000/svg" width="17" height="17" viewBox="0 0 17 17" fill="none">
  <path d="M1.57063 14.4107H0.973191C0.748346 14.4106 0.532736 14.3212 0.373706 14.1623C0.214676 14.0033 0.125227 13.7878 0.125 13.5629V8.50842C0.125084 8.25607 0.213168 8.01164 0.374078 7.81724C0.534989 7.62284 0.758653 7.49064 1.00655 7.44341L2.75026 7.11283C2.81466 7.102 2.88073 7.11685 2.93432 7.15418C2.9879 7.19151 3.02472 7.24834 3.03688 7.3125C3.04904 7.37666 3.03557 7.44304 2.99937 7.49738C2.96316 7.55173 2.9071 7.58972 2.8432 7.60321L1.09949 7.93436C0.965792 7.95972 0.84513 8.03094 0.758315 8.13574C0.671501 8.24053 0.623976 8.37234 0.623936 8.50842V13.5629C0.624012 13.6554 0.660748 13.744 0.726088 13.8094C0.791428 13.8748 0.880036 13.9116 0.972479 13.9118H1.5712C1.63737 13.9118 1.70082 13.938 1.7476 13.9848C1.79439 14.0316 1.82067 14.0951 1.82067 14.1612C1.82067 14.2274 1.79439 14.2908 1.7476 14.3376C1.70082 14.3844 1.63737 14.4107 1.5712 14.4107H1.57063Z" fill="white"/>
  <path d="M4.87956 16.8757C4.8468 16.8758 4.81435 16.8693 4.78407 16.8568C4.7538 16.8443 4.72629 16.8259 4.70312 16.8027C4.67995 16.7795 4.66158 16.752 4.64905 16.7218C4.63652 16.6915 4.63008 16.659 4.6301 16.6263V8.37942C4.63012 8.31985 4.65146 8.26225 4.69026 8.21704C4.72906 8.17183 4.78276 8.14201 4.84164 8.13295L7.1999 7.77144C7.30787 7.75468 7.41045 7.71302 7.49952 7.64975C7.5886 7.58649 7.66172 7.50335 7.71309 7.40693L9.07063 4.84168C9.09306 4.80124 9.10719 4.75673 9.11222 4.71076C9.11724 4.66478 9.11304 4.61827 9.09987 4.57394C9.0867 4.52961 9.06482 4.48835 9.03552 4.45258C9.00621 4.4168 8.97007 4.38723 8.9292 4.36559C8.88833 4.34395 8.84355 4.33068 8.79749 4.32655C8.75143 4.32242 8.70501 4.32752 8.66094 4.34155C8.61687 4.35558 8.57604 4.37825 8.54084 4.40824C8.50565 4.43824 8.47678 4.47495 8.45594 4.51623L7.15528 6.97271C7.13709 7.00709 7.1111 7.03673 7.07939 7.05926C7.04767 7.08179 7.01113 7.09657 6.97267 7.10243L3.69081 7.60565C3.65818 7.61121 3.62476 7.61022 3.59251 7.60274C3.56025 7.59526 3.52981 7.58143 3.50296 7.56207C3.47611 7.5427 3.45338 7.51818 3.4361 7.48994C3.41881 7.4617 3.40733 7.4303 3.4023 7.39758C3.39728 7.36486 3.39882 7.33146 3.40683 7.29933C3.41485 7.26721 3.42918 7.237 3.44899 7.21047C3.46879 7.18395 3.49369 7.16162 3.52221 7.14481C3.55073 7.128 3.58231 7.11704 3.61512 7.11255L6.7731 6.62787L8.01573 4.28259C8.12084 4.0841 8.30049 3.93549 8.51516 3.86946C8.72983 3.80343 8.96195 3.82538 9.16044 3.93048C9.35892 4.03559 9.50753 4.21524 9.57357 4.42991C9.6396 4.64458 9.61765 4.87669 9.51254 5.07518L8.15387 7.64114C8.06597 7.80614 7.94088 7.94841 7.78849 8.05671C7.63611 8.165 7.46061 8.23635 7.27588 8.2651L5.12889 8.59354V16.6263C5.12889 16.6924 5.10263 16.7558 5.05587 16.8026C5.00912 16.8494 4.9457 16.8757 4.87956 16.8757Z" fill="white"/>
  <path d="M1.57076 16.8738C1.50459 16.8738 1.44114 16.8475 1.39436 16.8008C1.34757 16.754 1.32129 16.6905 1.32129 16.6244V9.53462C1.32129 9.50186 1.32774 9.46942 1.34028 9.43916C1.35282 9.40889 1.37119 9.38139 1.39436 9.35822C1.41752 9.33506 1.44502 9.31668 1.47529 9.30415C1.50556 9.29161 1.538 9.28516 1.57076 9.28516C1.60352 9.28516 1.63596 9.29161 1.66622 9.30415C1.69649 9.31668 1.72399 9.33506 1.74716 9.35822C1.77032 9.38139 1.7887 9.40889 1.80124 9.43916C1.81377 9.46942 1.82023 9.50186 1.82023 9.53462V16.6244C1.82023 16.6905 1.79394 16.754 1.74716 16.8008C1.70037 16.8475 1.63692 16.8738 1.57076 16.8738Z" fill="white"/>
  <path d="M3.22505 16.8746C3.19229 16.8746 3.15984 16.8681 3.12956 16.8556C3.09929 16.8431 3.07178 16.8247 3.04861 16.8015C3.02544 16.7784 3.00707 16.7509 2.99454 16.7206C2.98201 16.6903 2.97557 16.6579 2.97559 16.6251V13.4604C2.97559 13.3942 3.00187 13.3308 3.04865 13.284C3.09544 13.2372 3.15889 13.2109 3.22505 13.2109C3.29122 13.2109 3.35467 13.2372 3.40145 13.284C3.44824 13.3308 3.47452 13.3942 3.47452 13.4604V16.6251C3.47452 16.6912 3.44824 16.7547 3.40145 16.8015C3.35467 16.8483 3.29122 16.8746 3.22505 16.8746Z" fill="white"/>
  <path d="M3.22565 7.66443C2.84662 7.6646 2.47606 7.55236 2.16083 7.34191C1.8456 7.13146 1.59987 6.83225 1.4547 6.48212C1.30954 6.132 1.27147 5.74669 1.34531 5.37492C1.41915 5.00316 1.60158 4.66165 1.86953 4.39358C2.13749 4.12551 2.47892 3.94292 2.85065 3.86891C3.22238 3.79491 3.6077 3.8328 3.95789 3.97781C4.30808 4.12282 4.6074 4.36842 4.818 4.68356C5.02859 4.9987 5.14099 5.36921 5.14099 5.74823C5.14043 6.25612 4.93848 6.74305 4.57943 7.10226C4.22038 7.46147 3.73354 7.66364 3.22565 7.66443ZM3.22565 4.33111C2.94533 4.33108 2.6713 4.41418 2.43821 4.5699C2.20512 4.72562 2.02344 4.94697 1.91615 5.20595C1.80887 5.46492 1.78079 5.7499 1.83547 6.02483C1.89015 6.29977 2.02513 6.55231 2.22335 6.75053C2.42157 6.94875 2.67411 7.08373 2.94905 7.13841C3.22398 7.19309 3.50896 7.16501 3.76794 7.05773C4.02691 6.95044 4.24826 6.76876 4.40398 6.53568C4.5597 6.30259 4.6428 6.02855 4.64277 5.74823C4.64232 5.37253 4.49287 5.01234 4.22721 4.74668C3.96154 4.48101 3.60135 4.33156 3.22565 4.33111Z" fill="white"/>
  <path d="M3.22577 4.33006C3.19294 4.33017 3.16042 4.3238 3.13006 4.31131C3.0997 4.29883 3.07211 4.28047 3.04886 4.25729C3.02562 4.23411 3.00718 4.20657 2.99461 4.17625C2.98203 4.14592 2.97557 4.11342 2.97559 4.08059V1.48384C2.97559 1.41768 3.00187 1.35423 3.04865 1.30744C3.09544 1.26066 3.15889 1.23438 3.22505 1.23438C3.29122 1.23438 3.35467 1.26066 3.40145 1.30744C3.44824 1.35423 3.47452 1.41768 3.47452 1.48384V4.08059C3.47452 4.14663 3.44834 4.20998 3.40171 4.25674C3.35508 4.3035 3.29181 4.32987 3.22577 4.33006Z" fill="white"/>
  <path d="M16.039 10.0821H4.87935C4.81319 10.0821 4.74974 10.0558 4.70295 10.009C4.65617 9.96223 4.62988 9.89878 4.62988 9.83261C4.62988 9.76645 4.65617 9.703 4.70295 9.65621C4.74974 9.60943 4.81319 9.58314 4.87935 9.58314H15.7897V1.48384C15.7897 1.41768 15.8159 1.35423 15.8627 1.30744C15.9095 1.26066 15.973 1.23438 16.0391 1.23438C16.1053 1.23438 16.1687 1.26066 16.2155 1.30744C16.2623 1.35423 16.2886 1.41768 16.2886 1.48384V9.83276C16.2886 9.86552 16.2821 9.89795 16.2696 9.92821C16.257 9.95847 16.2386 9.98596 16.2154 10.0091C16.1922 10.0323 16.1647 10.0506 16.1345 10.0631C16.1042 10.0757 16.0717 10.0821 16.039 10.0821Z" fill="white"/>
  <path d="M16.6256 1.73357H2.63814C2.57198 1.73357 2.50852 1.70729 2.46174 1.6605C2.41496 1.61372 2.38867 1.55027 2.38867 1.4841V0.873404C2.3889 0.674985 2.46782 0.484757 2.60812 0.344453C2.74843 0.204149 2.93866 0.125226 3.13708 0.125H16.1267C16.3251 0.125226 16.5153 0.204149 16.6556 0.344453C16.7959 0.484757 16.8748 0.674985 16.8751 0.873404V1.4841C16.8751 1.55027 16.8488 1.61372 16.802 1.6605C16.7552 1.70729 16.6918 1.73357 16.6256 1.73357ZM2.88761 1.23463H16.3761V0.873404C16.3761 0.807264 16.3498 0.743855 16.303 0.697087C16.2562 0.650319 16.1928 0.624012 16.1267 0.623936H3.13708C3.07095 0.624049 3.00756 0.650369 2.9608 0.697129C2.91404 0.743888 2.88772 0.807276 2.88761 0.873404V1.23463Z" fill="white"/>
  <path d="M9.63228 11.8816C9.59951 11.8816 9.56707 11.8751 9.53679 11.8626C9.50652 11.8501 9.47901 11.8317 9.45584 11.8085C9.43267 11.7854 9.41429 11.7579 9.40176 11.7276C9.38923 11.6973 9.38279 11.6649 9.38281 11.6321V9.8315C9.38281 9.76534 9.40909 9.70188 9.45588 9.6551C9.50266 9.60831 9.56612 9.58203 9.63228 9.58203C9.69844 9.58203 9.7619 9.60831 9.80868 9.6551C9.85547 9.70188 9.88175 9.76534 9.88175 9.8315V11.6321C9.88175 11.6983 9.85547 11.7617 9.80868 11.8085C9.7619 11.8553 9.69844 11.8816 9.63228 11.8816Z" fill="white"/>
  <path d="M9.63148 13.179C9.45386 13.179 9.28022 13.1263 9.13253 13.0276C8.98485 12.9289 8.86974 12.7887 8.80176 12.6246C8.73379 12.4605 8.716 12.2799 8.75066 12.1057C8.78531 11.9315 8.87084 11.7715 8.99644 11.6459C9.12204 11.5203 9.28206 11.4347 9.45628 11.4001C9.63049 11.3654 9.81106 11.3832 9.97517 11.4512C10.1393 11.5191 10.2795 11.6343 10.3782 11.7819C10.4769 11.9296 10.5296 12.1033 10.5296 12.2809C10.5292 12.519 10.4345 12.7472 10.2662 12.9156C10.0978 13.0839 9.86957 13.1786 9.63148 13.179ZM9.63148 11.8817C9.55254 11.8817 9.47537 11.9052 9.40973 11.949C9.34409 11.9929 9.29293 12.0552 9.26272 12.1281C9.23251 12.2011 9.2246 12.2813 9.24 12.3588C9.25541 12.4362 9.29342 12.5073 9.34924 12.5631C9.40506 12.619 9.47619 12.657 9.55361 12.6724C9.63104 12.6878 9.7113 12.6799 9.78423 12.6497C9.85717 12.6195 9.9195 12.5683 9.96336 12.5027C10.0072 12.437 10.0306 12.3598 10.0306 12.2809C10.0306 12.175 9.98855 12.0734 9.91372 11.9985C9.83889 11.9236 9.73739 11.8814 9.63148 11.8812V11.8817Z" fill="white"/>
</svg>