<svg xmlns="http://www.w3.org/2000/svg" width="21" height="21" viewBox="0 0 21 21" fill="none">
  <path d="M14.7472 7.67318V13.5606C14.7472 14.2176 14.212 14.7529 13.5549 14.7529H5.37001C4.71295 14.7529 4.17773 14.2176 4.17773 13.5606V5.50185C4.17773 4.84044 4.7086 4.30957 5.37001 4.30957H11.3836" stroke="#A1A1A1" stroke-width="1.01" stroke-linecap="round" stroke-linejoin="round"/>
  <path d="M14.6426 5.98535H15.2344C15.8914 5.98535 16.4267 6.52057 16.4267 7.17763V15.3626C16.4267 16.0196 15.8914 16.5548 15.2344 16.5548H7.17128C6.51422 16.5548 5.979 16.0196 5.979 15.3626" stroke="#A1A1A1" stroke-width="1.01" stroke-linecap="round" stroke-linejoin="round"/>
  <path d="M11.3574 4.30957V6.98567C11.3574 7.38164 11.6751 7.69929 12.071 7.69929H14.7471L11.3574 4.30957Z" stroke="#A1A1A1" stroke-linecap="round" stroke-linejoin="round"/>
  <path d="M7.65869 9.92285H11.4923" stroke="#A1A1A1" stroke-linecap="round" stroke-linejoin="round"/>
</svg>