<svg width="36" height="34" viewBox="0 0 36 34" fill="none" xmlns="http://www.w3.org/2000/svg">
<g id="Layer_1">
<path id="Vector" d="M2.83314 27.8207C1.63613 27.8207 0.665039 26.8496 0.665039 25.6526V19.937C0.665039 18.74 1.63613 17.7689 2.83314 17.7689C4.03016 17.7689 5.00124 18.74 5.00124 19.937V25.6526C5.00124 26.8496 4.03016 27.8207 2.83314 27.8207Z" fill="white"/>
<path id="Vector_2" d="M11.3985 27.6146V17.7174C11.3985 16.5204 10.4274 15.5493 9.23036 15.5493C8.03334 15.5493 7.06226 16.5204 7.06226 17.7174V27.6146C7.06226 28.8116 8.03334 29.7827 9.23036 29.7827C10.4274 29.7827 11.3985 28.8116 11.3985 27.6146Z" fill="white"/>
<path id="Vector_3" d="M17.7959 29.8026V15.6484C17.7959 14.4514 16.8248 13.4803 15.6278 13.4803C14.4308 13.4803 13.4597 14.4514 13.4597 15.6484V29.8026C13.4597 30.9996 14.4308 31.9707 15.6278 31.9707C16.8248 31.9707 17.7959 30.9996 17.7959 29.8026Z" fill="white"/>
<path id="Vector_4" d="M24.1931 31.8318V13.389C24.1931 12.192 23.2221 11.2209 22.025 11.2209C20.828 11.2209 19.8569 12.192 19.8569 13.389V31.8318C19.8569 33.0288 20.828 33.9999 22.025 33.9999C23.2221 33.9999 24.1931 33.0288 24.1931 31.8318Z" fill="white"/>
<path id="Vector_5" d="M33.69 8.53368L4.78721 0.0911634C4.56922 0.0277454 4.35518 0 4.14114 0C2.92431 0 1.86206 0.986943 1.86206 2.28701V15.9298H3.57435V2.28701C3.57435 1.93425 3.86765 1.71229 4.14114 1.71229C4.19664 1.71229 4.24816 1.72021 4.30365 1.73607L33.2064 10.1746C33.4482 10.246 33.6186 10.4719 33.6186 10.7216V28.9226C33.6186 29.2753 33.3253 29.4973 33.0518 29.4973C32.9963 29.4973 32.9448 29.4894 32.8893 29.4735L26.2978 27.5472V29.3308L32.4097 31.1145C32.6277 31.1779 32.8417 31.2056 33.0558 31.2056C34.2726 31.2056 35.3349 30.2187 35.3349 28.9186V10.7256C35.3349 9.71088 34.665 8.81907 33.69 8.53368Z" fill="white"/>
</g>
</svg>
