<svg width="33" height="40" viewBox="0 0 33 40" fill="none" xmlns="http://www.w3.org/2000/svg">
<g id="LUPA">
<path id="Rectangle 10" opacity="0.2" d="M0 0H26C29.866 0 33 3.13401 33 7V33C33 36.866 29.866 40 26 40H0V0Z" fill="#85BECE"/>
<path id="Buscar" d="M9.99258 13.9927C11.3208 12.6646 13.062 12 14.8026 12C16.5433 12 18.2844 12.6646 19.6125 13.9927C20.9407 15.3208 21.6052 17.0619 21.6052 18.8022C21.6052 20.4035 21.0427 22.0054 19.9184 23.2855L24.869 28.2367C25.0437 28.4113 25.0437 28.6945 24.869 28.869C24.6944 29.0437 24.4111 29.0437 24.2366 28.869L19.286 23.9179C18.0057 25.0421 16.404 25.6045 14.8026 25.6045C13.0622 25.6045 11.3211 24.94 9.99264 23.6118C8.66441 22.2837 8 20.5425 8 18.8023C8 17.0617 8.66431 15.3207 9.99258 13.9927ZM14.8026 12.8949C13.2906 12.8949 11.7784 13.4719 10.625 14.6251C9.47179 15.7782 8.89492 17.2903 8.89492 18.8022C8.89492 20.3141 9.47179 21.8264 10.625 22.9794C11.7783 24.1325 13.2905 24.7096 14.8026 24.7096C16.3112 24.7096 17.8197 24.1353 18.9718 22.9877C20.0908 21.8392 20.7101 20.4159 20.7101 18.8022C20.7101 17.2902 20.1333 15.7781 18.98 14.625C17.8268 13.4719 16.3146 12.8949 14.8026 12.8949Z" fill="#2F647E"/>
</g>
</svg>
