<svg xmlns="http://www.w3.org/2000/svg" width="14" height="14" viewBox="0 0 14 14" fill="none">
  <path d="M13.3511 13.3565C13.258 13.4483 13.1325 13.4998 13.0018 13.5C12.8692 13.4994 12.742 13.4481 12.6462 13.3565L9.95118 10.6555C8.81616 11.6088 7.3569 12.0871 5.87775 11.9907C4.39861 11.8943 3.01378 11.2306 2.01209 10.1381C1.01041 9.04557 0.469202 7.60853 0.501355 6.12669C0.533507 4.64485 1.13653 3.23263 2.18467 2.18456C3.2328 1.13649 4.64511 0.533505 6.12705 0.501355C7.60898 0.469204 9.04612 1.01037 10.1387 2.012C11.2313 3.01362 11.895 4.39836 11.9914 5.87741C12.0878 7.35646 11.6095 8.81563 10.6561 9.95058L13.3511 12.6454C13.3983 12.6918 13.4357 12.7472 13.4613 12.8082C13.4868 12.8693 13.5 12.9348 13.5 13.001C13.5 13.0671 13.4868 13.1327 13.4613 13.1937C13.4357 13.2547 13.3983 13.3101 13.3511 13.3565ZM6.26429 11.0048C7.202 11.0048 8.11866 10.7268 8.89835 10.2058C9.67803 9.68488 10.2857 8.94446 10.6446 8.07817C11.0034 7.21189 11.0973 6.25866 10.9144 5.33902C10.7314 4.41937 10.2799 3.57463 9.61681 2.9116C8.95374 2.24858 8.10894 1.79705 7.18924 1.61413C6.26954 1.4312 5.31625 1.52508 4.44991 1.88391C3.58357 2.24274 2.8431 2.85039 2.32213 3.63002C1.80116 4.40966 1.5231 5.32626 1.5231 6.26392C1.52475 7.52077 2.02479 8.72567 2.91358 9.6144C3.80237 10.5031 5.00735 11.0031 6.26429 11.0048Z" fill="#2F647E"/>
</svg>