<svg xmlns="http://www.w3.org/2000/svg" width="14" height="18" viewBox="0 0 14 18" fill="none">
  <path d="M12.7343 4.73186V15.6777C12.7343 16.4074 12.1417 17 11.412 17H2.32231C1.59259 17 1 16.4074 1 15.6777V2.32231C1 1.59259 1.59259 1 2.32231 1H8.99755" stroke="white" stroke-width="0.8" stroke-linecap="round" stroke-linejoin="round"/>
  <path d="M8.99805 1V3.92868C8.99805 4.37435 9.35556 4.73186 9.80123 4.73186H12.7054L8.99805 1Z" stroke="white" stroke-width="0.8" stroke-linecap="round" stroke-linejoin="round"/>
  <path d="M5.85362 13.6152V14.9816H2.55273V11.6758H4.42356" stroke="white" stroke-width="0.8" stroke-linecap="round" stroke-linejoin="round"/>
  <path d="M7.58789 14.1641H10.8545" stroke="white" stroke-width="0.8" stroke-linecap="round" stroke-linejoin="round"/>
  <path d="M7.58789 12.4258H10.8545" stroke="white" stroke-width="0.8" stroke-linecap="round" stroke-linejoin="round"/>
  <path d="M3.56055 12.6896L4.49106 13.6152L6.22477 11.6758" stroke="white" stroke-width="0.8" stroke-linecap="round" stroke-linejoin="round"/>
  <path d="M5.85362 8.13471V9.4962H2.55273V6.19531H4.42356" stroke="white" stroke-width="0.8" stroke-linecap="round" stroke-linejoin="round"/>
  <path d="M7.58789 8.68359H10.8545" stroke="white" stroke-width="0.8" stroke-linecap="round" stroke-linejoin="round"/>
  <path d="M7.58789 6.94531H10.8545" stroke="white" stroke-width="0.8" stroke-linecap="round" stroke-linejoin="round"/>
  <path d="M3.56055 7.20909L4.49106 8.13471L6.22477 6.19531" stroke="white" stroke-width="0.8" stroke-linecap="round" stroke-linejoin="round"/>
</svg>