<svg width="21" height="23" viewBox="0 0 21 23" fill="none" xmlns="http://www.w3.org/2000/svg">
<g id="Capa_2">
<path id="Vector" d="M7.69358 9.21919C9.99884 9.21919 11.8676 7.3504 11.8676 5.04514C11.8676 2.73988 9.99884 0.871094 7.69358 0.871094C5.38832 0.871094 3.51953 2.73988 3.51953 5.04514C3.51953 7.3504 5.38832 9.21919 7.69358 9.21919Z" fill="#74B160"/>
<path id="Vector_2" d="M14.9345 6.83203C11.8569 6.83203 9.36914 9.31976 9.36914 12.3974C9.36914 15.4751 11.8569 17.9628 14.9345 17.9628C18.0122 17.9628 20.4999 15.4751 20.4999 12.3974C20.4999 9.31976 18.0122 6.83203 14.9345 6.83203ZM15.7137 15.4361C15.6747 15.5419 15.608 15.6254 15.53 15.6977C15.4577 15.7701 15.3686 15.8313 15.2685 15.8702C15.1683 15.9092 15.0514 15.9315 14.9345 15.9315C14.8177 15.9315 14.7064 15.9092 14.6006 15.8702C14.506 15.8313 14.417 15.7645 14.339 15.6977C14.2667 15.6254 14.2055 15.5363 14.1665 15.4361C14.1276 15.3415 14.1053 15.2302 14.1053 15.1189C14.1053 15.0076 14.1276 14.8963 14.1665 14.8017C14.2055 14.6959 14.2723 14.618 14.339 14.5401C14.417 14.4678 14.506 14.4121 14.6006 14.3676C14.7064 14.3286 14.8177 14.3064 14.9345 14.3064C15.0514 14.3064 15.1627 14.3286 15.2685 14.3676C15.3742 14.4177 15.4577 14.4733 15.53 14.5401C15.608 14.618 15.6747 14.7015 15.7137 14.8017C15.7527 14.8963 15.7749 15.0076 15.7749 15.1189C15.7749 15.2302 15.7527 15.3415 15.7137 15.4361ZM16.9993 11.1563C16.9381 11.3289 16.849 11.4847 16.7433 11.6183C16.6375 11.7463 16.5262 11.8576 16.4094 11.9522C16.2814 12.0468 16.1701 12.1359 16.0587 12.2138C15.9474 12.3028 15.8528 12.3807 15.7749 12.4586C15.697 12.5366 15.6413 12.6256 15.6246 12.7202L15.4911 13.3881H14.4837L14.378 12.6256C14.378 12.6256 14.3724 12.5867 14.3724 12.5644V12.5087C14.3724 12.3752 14.4058 12.2472 14.467 12.1414C14.5394 12.0357 14.6173 11.9411 14.7231 11.8576C14.8288 11.7685 14.9401 11.6851 15.0514 11.6016C15.1683 11.5237 15.2796 11.4346 15.3853 11.34C15.4911 11.2454 15.569 11.1396 15.6413 11.0228C15.7026 10.9115 15.736 10.7779 15.736 10.6109C15.736 10.4273 15.6747 10.2714 15.5467 10.1601C15.4299 10.0488 15.2518 9.99318 15.0291 9.99318C14.8622 9.99318 14.7175 10.0099 14.6062 10.0488C14.4949 10.0822 14.4003 10.1212 14.3223 10.1601C14.2333 10.2102 14.1721 10.2492 14.1053 10.277C14.0441 10.3104 13.9884 10.3327 13.9216 10.3327C13.7881 10.3327 13.6823 10.2714 13.6211 10.149L13.226 9.55351C13.3428 9.44777 13.4708 9.36429 13.6155 9.27524C13.7491 9.18619 13.8994 9.11384 14.0608 9.04706C14.2222 8.98584 14.3891 8.93575 14.5672 8.89679C14.7509 8.8634 14.9512 8.84114 15.1627 8.84114C15.4633 8.84114 15.736 8.8801 15.9753 8.95801C16.2146 9.03593 16.4205 9.15837 16.5875 9.2975C16.7544 9.44777 16.8824 9.62586 16.977 9.83178C17.0661 10.0488 17.1106 10.277 17.1106 10.533C17.1106 10.789 17.0772 10.9838 17.0049 11.1619L16.9993 11.1563Z" fill="#74B160"/>
<path id="Vector_3" d="M14.7899 18.9401C14.7287 19.6692 14.6508 20.2647 14.6508 20.6265C14.6508 22.6244 0.73727 22.6244 0.73727 20.6265C0.73727 18.9401 -0.843302 12.3897 4.15442 10.375C5.16733 11.0484 6.38058 11.4436 7.69402 11.4436C7.93889 11.4436 8.18377 11.4324 8.42308 11.4046C8.30621 11.861 8.25056 12.3396 8.25056 12.8349C8.25056 16.2187 10.9887 18.9568 14.3725 18.9568C14.5116 18.9568 14.6508 18.9513 14.7899 18.9401Z" fill="#74B160"/>
</g>
</svg>
