<svg width="25" height="22" viewBox="0 0 25 22" fill="none" xmlns="http://www.w3.org/2000/svg">
<g id="Modo_de_aislamiento" clip-path="url(#clip0_5437_181711)">
<path id="Vector" d="M21.7229 21.9139H2.47656C1.61879 21.9139 0.850497 21.4704 0.421418 20.7274C-0.00766024 19.9844 -0.00766024 19.0974 0.421418 18.3544L10.0448 1.68648C10.4738 0.943472 11.2421 0.5 12.0999 0.5C12.9577 0.5 13.726 0.943472 14.155 1.68648L23.7784 18.3544C24.2075 19.0974 24.2075 19.9844 23.7784 20.7274C23.3493 21.4704 22.5814 21.9139 21.7232 21.9139H21.7229ZM11.4596 2.5034L1.83625 19.1713C1.64369 19.5047 1.77206 19.7992 1.83625 19.9105C1.90044 20.0217 2.09105 20.28 2.47617 20.28H21.7229C22.108 20.28 22.299 20.0217 22.3628 19.9105C22.427 19.7992 22.5553 19.5047 22.3628 19.1713L12.7398 2.5034C12.5473 2.17002 12.2279 2.13384 12.0999 2.13384C11.9719 2.13384 11.6525 2.17002 11.46 2.5034H11.4596Z" fill="#EBB764"/>
<g id="Group">
<path id="Vector_2" d="M11.9165 14.2719C11.4653 14.2719 11.0996 13.9063 11.0996 13.455V5.31692C11.0996 4.86567 11.4653 4.5 11.9165 4.5C12.3678 4.5 12.7335 4.86567 12.7335 5.31692V13.455C12.7335 13.9063 12.3678 14.2719 11.9165 14.2719Z" fill="#EBB764"/>
<path id="Vector_3" d="M11.9165 17.4756C11.4653 17.4756 11.0996 17.1099 11.0996 16.6587V15.9849C11.0996 15.5336 11.4653 15.168 11.9165 15.168C12.3678 15.168 12.7335 15.5336 12.7335 15.9849V16.6587C12.7335 17.1099 12.3678 17.4756 11.9165 17.4756Z" fill="#EBB764"/>
</g>
</g>
<defs>
<clipPath id="clip0_5437_181711">
<rect width="24" height="21.4139" fill="white" transform="translate(0.0996094 0.5)"/>
</clipPath>
</defs>
</svg>
