<svg width="25" height="22" viewBox="0 0 25 22" fill="none" xmlns="http://www.w3.org/2000/svg">
<g id="Modo_de_aislamiento" clip-path="url(#clip0_5437_182173)">
<path id="Vector" d="M22.1232 21.4139H2.87695C2.01918 21.4139 1.25089 20.9704 0.821809 20.2274C0.39273 19.4844 0.39273 18.5974 0.821809 17.8544L10.4451 1.18648C10.8742 0.443472 11.6425 0 12.5003 0C13.3581 0 14.1264 0.443472 14.5554 1.18648L24.1788 17.8544C24.6079 18.5974 24.6079 19.4844 24.1788 20.2274C23.7497 20.9704 22.9818 21.4139 22.1236 21.4139H22.1232ZM11.86 2.0034L2.23664 18.6713C2.04408 19.0047 2.17245 19.2992 2.23664 19.4105C2.30083 19.5217 2.49144 19.78 2.87656 19.78H22.1232C22.5084 19.78 22.6994 19.5217 22.7632 19.4105C22.8274 19.2992 22.9557 19.0047 22.7632 18.6713L13.1402 2.0034C12.9477 1.67002 12.6283 1.63384 12.5003 1.63384C12.3723 1.63384 12.0529 1.67002 11.8604 2.0034H11.86Z" fill="#2F647E"/>
<g id="Group">
<path id="Vector_2" d="M12.3169 13.7719C11.8657 13.7719 11.5 13.4063 11.5 12.955V4.81692C11.5 4.36567 11.8657 4 12.3169 4C12.7682 4 13.1338 4.36567 13.1338 4.81692V12.955C13.1338 13.4063 12.7682 13.7719 12.3169 13.7719Z" fill="#2F647E"/>
<path id="Vector_3" d="M12.3169 16.9756C11.8657 16.9756 11.5 16.6099 11.5 16.1587V15.4849C11.5 15.0336 11.8657 14.668 12.3169 14.668C12.7682 14.668 13.1338 15.0336 13.1338 15.4849V16.1587C13.1338 16.6099 12.7682 16.9756 12.3169 16.9756Z" fill="#2F647E"/>
</g>
</g>
<defs>
<clipPath id="clip0_5437_182173">
<rect width="24" height="21.4139" fill="white" transform="translate(0.5)"/>
</clipPath>
</defs>
</svg>
